G04 EAGLE Gerber RS-274X export*
G75*
%MOMM*%
%FSLAX34Y34*%
%LPD*%
%INTop Copper*%
%IPPOS*%
%AMOC8*
5,1,8,0,0,1.08239X$1,22.5*%
G01*
%ADD10P,2.089446X8X22.500000*%
%ADD11R,1.508000X1.508000*%
%ADD12C,1.508000*%
%ADD13C,2.100000*%
%ADD14P,2.705975X8X112.500000*%
%ADD15C,2.000000*%
%ADD16C,1.950000*%


D10*
X77000Y509000D03*
X77000Y49000D03*
X287000Y49000D03*
X497000Y49000D03*
X287000Y509000D03*
X497000Y509000D03*
X77000Y469000D03*
X287000Y469000D03*
X497000Y469000D03*
X77000Y259000D03*
X287000Y259000D03*
X497000Y259000D03*
D11*
X429800Y121600D03*
D12*
X389800Y121600D03*
X349800Y121600D03*
D13*
X439800Y21600D03*
X339800Y21600D03*
D14*
X422000Y420300D03*
X359000Y537300D03*
D15*
X375000Y478800D03*
X405000Y478800D03*
X375000Y510800D03*
X375000Y446800D03*
X405000Y446800D03*
X405000Y510800D03*
D12*
X201900Y20200D03*
X156900Y20200D03*
D16*
X214400Y45200D03*
X144400Y45200D03*
D11*
X258200Y165200D03*
D12*
X258200Y190600D03*
X258200Y216000D03*
X258200Y241400D03*
X258200Y266800D03*
X258200Y292200D03*
X258200Y317600D03*
X258200Y343000D03*
X258200Y368400D03*
X258200Y393800D03*
X258200Y419200D03*
X258200Y444600D03*
X105800Y165200D03*
X105800Y190600D03*
X105800Y216000D03*
X105800Y241400D03*
X105800Y266800D03*
X105800Y292200D03*
X105800Y343000D03*
X105800Y368400D03*
X105800Y419200D03*
X105800Y444600D03*
X105800Y393800D03*
X105800Y317600D03*
X258200Y470000D03*
X258200Y495400D03*
X258200Y520800D03*
X105800Y470000D03*
X105800Y495400D03*
X105800Y520800D03*
M02*
