G04 EAGLE Gerber RS-274X export*
G75*
%MOMM*%
%FSLAX34Y34*%
%LPD*%
%INBottom Copper*%
%IPPOS*%
%AMOC8*
5,1,8,0,0,1.08239X$1,22.5*%
G01*
%ADD10P,2.089446X8X22.500000*%
%ADD11R,1.500000X1.300000*%
%ADD12R,1.300000X1.500000*%
%ADD13R,1.508000X1.508000*%
%ADD14C,1.508000*%
%ADD15C,2.100000*%
%ADD16P,2.705975X8X112.500000*%
%ADD17C,2.000000*%
%ADD18C,1.950000*%
%ADD19R,0.800000X0.900000*%
%ADD20R,0.900000X0.800000*%
%ADD21R,1.000000X3.200000*%
%ADD22R,3.200000X1.000000*%
%ADD23R,0.850000X1.600000*%
%ADD24C,0.500000*%

G36*
X554508Y5002D02*
X554508Y5002D01*
X554517Y5001D01*
X554605Y5022D01*
X554695Y5040D01*
X554702Y5045D01*
X554710Y5047D01*
X554783Y5101D01*
X554859Y5153D01*
X554863Y5160D01*
X554870Y5165D01*
X554917Y5243D01*
X554966Y5320D01*
X554967Y5329D01*
X554972Y5336D01*
X554999Y5500D01*
X554999Y554500D01*
X554998Y554508D01*
X554999Y554517D01*
X554978Y554605D01*
X554960Y554695D01*
X554955Y554702D01*
X554953Y554710D01*
X554899Y554783D01*
X554847Y554859D01*
X554840Y554863D01*
X554835Y554870D01*
X554757Y554917D01*
X554680Y554966D01*
X554671Y554967D01*
X554664Y554972D01*
X554500Y554999D01*
X367256Y554999D01*
X367252Y554998D01*
X367248Y554999D01*
X367154Y554979D01*
X367061Y554960D01*
X367057Y554957D01*
X367053Y554956D01*
X366975Y554901D01*
X366897Y554847D01*
X366895Y554844D01*
X366891Y554841D01*
X366841Y554760D01*
X366790Y554680D01*
X366789Y554675D01*
X366787Y554672D01*
X366773Y554578D01*
X366757Y554483D01*
X366758Y554479D01*
X366757Y554475D01*
X366781Y554383D01*
X366803Y554290D01*
X366805Y554287D01*
X366806Y554283D01*
X366903Y554147D01*
X376501Y544549D01*
X376501Y530051D01*
X373103Y526653D01*
X373100Y526649D01*
X373097Y526647D01*
X373046Y526567D01*
X372993Y526487D01*
X372992Y526483D01*
X372990Y526480D01*
X372974Y526386D01*
X372957Y526292D01*
X372957Y526288D01*
X372957Y526283D01*
X372979Y526192D01*
X372999Y526098D01*
X373002Y526094D01*
X373003Y526090D01*
X373059Y526014D01*
X373115Y525935D01*
X373118Y525933D01*
X373121Y525930D01*
X373203Y525881D01*
X373284Y525831D01*
X373288Y525831D01*
X373292Y525828D01*
X373456Y525801D01*
X377984Y525801D01*
X383497Y523517D01*
X387717Y519297D01*
X389539Y514899D01*
X389541Y514896D01*
X389542Y514892D01*
X389597Y514813D01*
X389650Y514734D01*
X389653Y514732D01*
X389656Y514729D01*
X389737Y514678D01*
X389817Y514626D01*
X389821Y514625D01*
X389824Y514623D01*
X389918Y514608D01*
X390012Y514591D01*
X390016Y514592D01*
X390021Y514591D01*
X390112Y514614D01*
X390206Y514636D01*
X390210Y514638D01*
X390214Y514639D01*
X390290Y514696D01*
X390367Y514752D01*
X390369Y514756D01*
X390373Y514758D01*
X390461Y514899D01*
X392283Y519297D01*
X396503Y523517D01*
X402016Y525801D01*
X407984Y525801D01*
X413497Y523517D01*
X417717Y519297D01*
X420001Y513784D01*
X420001Y507816D01*
X417717Y502303D01*
X413497Y498083D01*
X407984Y495799D01*
X402016Y495799D01*
X396503Y498083D01*
X392283Y502303D01*
X390461Y506701D01*
X390459Y506704D01*
X390458Y506708D01*
X390403Y506787D01*
X390350Y506866D01*
X390347Y506868D01*
X390344Y506871D01*
X390263Y506922D01*
X390183Y506974D01*
X390179Y506975D01*
X390176Y506977D01*
X390082Y506992D01*
X389988Y507009D01*
X389983Y507008D01*
X389979Y507009D01*
X389888Y506986D01*
X389794Y506964D01*
X389790Y506962D01*
X389786Y506961D01*
X389710Y506904D01*
X389633Y506848D01*
X389631Y506844D01*
X389627Y506842D01*
X389539Y506701D01*
X387717Y502303D01*
X383497Y498083D01*
X377984Y495799D01*
X372016Y495799D01*
X368518Y497248D01*
X368515Y497249D01*
X368514Y497250D01*
X368417Y497268D01*
X368322Y497286D01*
X368320Y497286D01*
X368318Y497286D01*
X368222Y497265D01*
X368128Y497245D01*
X368126Y497244D01*
X368124Y497244D01*
X368045Y497187D01*
X367965Y497131D01*
X367964Y497130D01*
X367962Y497128D01*
X367911Y497046D01*
X367859Y496963D01*
X367859Y496961D01*
X367858Y496959D01*
X367843Y496861D01*
X367828Y496767D01*
X367828Y496765D01*
X367828Y496762D01*
X367852Y496668D01*
X367875Y496573D01*
X367877Y496572D01*
X367877Y496570D01*
X367973Y496434D01*
X370784Y493624D01*
X370793Y493618D01*
X370799Y493610D01*
X370875Y493563D01*
X370950Y493514D01*
X370960Y493512D01*
X370969Y493507D01*
X371057Y493494D01*
X371145Y493478D01*
X371155Y493480D01*
X371166Y493478D01*
X371328Y493516D01*
X372016Y493801D01*
X377984Y493801D01*
X383497Y491517D01*
X387717Y487297D01*
X389539Y482899D01*
X389541Y482896D01*
X389542Y482892D01*
X389597Y482813D01*
X389650Y482734D01*
X389653Y482732D01*
X389656Y482728D01*
X389737Y482678D01*
X389817Y482626D01*
X389821Y482625D01*
X389824Y482623D01*
X389918Y482608D01*
X390012Y482591D01*
X390016Y482592D01*
X390021Y482591D01*
X390112Y482614D01*
X390206Y482635D01*
X390210Y482638D01*
X390214Y482639D01*
X390290Y482696D01*
X390367Y482752D01*
X390369Y482756D01*
X390373Y482758D01*
X390461Y482899D01*
X392283Y487297D01*
X396503Y491517D01*
X402016Y493801D01*
X407984Y493801D01*
X413497Y491517D01*
X417717Y487297D01*
X420001Y481784D01*
X420001Y475816D01*
X417717Y470303D01*
X413497Y466083D01*
X407984Y463799D01*
X402016Y463799D01*
X396503Y466083D01*
X392283Y470303D01*
X390461Y474701D01*
X390459Y474704D01*
X390458Y474708D01*
X390403Y474787D01*
X390350Y474866D01*
X390347Y474868D01*
X390344Y474872D01*
X390263Y474922D01*
X390183Y474974D01*
X390179Y474975D01*
X390176Y474977D01*
X390082Y474992D01*
X389988Y475009D01*
X389983Y475008D01*
X389979Y475009D01*
X389888Y474986D01*
X389794Y474965D01*
X389790Y474962D01*
X389786Y474961D01*
X389710Y474904D01*
X389633Y474848D01*
X389631Y474844D01*
X389627Y474842D01*
X389539Y474701D01*
X387717Y470303D01*
X383497Y466083D01*
X377984Y463799D01*
X372016Y463799D01*
X366503Y466083D01*
X362283Y470303D01*
X359999Y475816D01*
X359999Y481784D01*
X360284Y482472D01*
X360286Y482482D01*
X360292Y482491D01*
X360305Y482580D01*
X360322Y482667D01*
X360320Y482678D01*
X360322Y482688D01*
X360300Y482774D01*
X360281Y482862D01*
X360275Y482870D01*
X360273Y482881D01*
X360176Y483016D01*
X340821Y502371D01*
X338641Y504551D01*
X337499Y507308D01*
X337499Y510922D01*
X337498Y510926D01*
X337499Y510930D01*
X337479Y511023D01*
X337460Y511117D01*
X337457Y511120D01*
X337456Y511124D01*
X337401Y511202D01*
X337347Y511281D01*
X337344Y511283D01*
X337341Y511286D01*
X337260Y511336D01*
X337180Y511388D01*
X337175Y511388D01*
X337172Y511391D01*
X337078Y511405D01*
X336983Y511421D01*
X336979Y511420D01*
X336975Y511421D01*
X336883Y511397D01*
X336790Y511375D01*
X336787Y511372D01*
X336783Y511371D01*
X336647Y511275D01*
X334771Y509399D01*
X321629Y509399D01*
X318699Y512329D01*
X318699Y521086D01*
X318697Y521099D01*
X318699Y521111D01*
X318677Y521195D01*
X318660Y521281D01*
X318653Y521292D01*
X318649Y521304D01*
X318553Y521439D01*
X310539Y529453D01*
X310529Y529460D01*
X310521Y529470D01*
X310446Y529515D01*
X310374Y529563D01*
X310361Y529565D01*
X310350Y529572D01*
X310186Y529599D01*
X268341Y529599D01*
X268337Y529598D01*
X268333Y529599D01*
X268240Y529579D01*
X268146Y529560D01*
X268143Y529557D01*
X268139Y529556D01*
X268061Y529501D01*
X267982Y529447D01*
X267980Y529444D01*
X267977Y529441D01*
X267927Y529360D01*
X267875Y529280D01*
X267875Y529275D01*
X267873Y529272D01*
X267858Y529178D01*
X267842Y529083D01*
X267843Y529079D01*
X267843Y529075D01*
X267866Y528983D01*
X267888Y528890D01*
X267891Y528887D01*
X267892Y528883D01*
X267988Y528747D01*
X268832Y527904D01*
X270741Y523295D01*
X270741Y518305D01*
X268832Y513696D01*
X265304Y510168D01*
X261424Y508561D01*
X261420Y508559D01*
X261416Y508558D01*
X261338Y508503D01*
X261259Y508450D01*
X261256Y508447D01*
X261253Y508444D01*
X261202Y508363D01*
X261150Y508283D01*
X261149Y508279D01*
X261147Y508276D01*
X261132Y508182D01*
X261115Y508088D01*
X261116Y508083D01*
X261116Y508079D01*
X261138Y507988D01*
X261160Y507894D01*
X261162Y507890D01*
X261163Y507886D01*
X261220Y507810D01*
X261276Y507733D01*
X261280Y507731D01*
X261283Y507727D01*
X261424Y507639D01*
X265304Y506032D01*
X268832Y502504D01*
X270741Y497895D01*
X270741Y492905D01*
X268832Y488296D01*
X265304Y484768D01*
X261424Y483161D01*
X261420Y483159D01*
X261416Y483158D01*
X261338Y483103D01*
X261259Y483050D01*
X261256Y483047D01*
X261253Y483044D01*
X261202Y482963D01*
X261150Y482883D01*
X261149Y482879D01*
X261147Y482876D01*
X261132Y482782D01*
X261115Y482688D01*
X261116Y482683D01*
X261116Y482679D01*
X261138Y482588D01*
X261160Y482494D01*
X261162Y482490D01*
X261163Y482486D01*
X261220Y482410D01*
X261276Y482333D01*
X261280Y482331D01*
X261283Y482327D01*
X261424Y482239D01*
X265304Y480632D01*
X268832Y477104D01*
X270741Y472495D01*
X270741Y467505D01*
X268832Y462896D01*
X265304Y459368D01*
X261424Y457761D01*
X261420Y457759D01*
X261416Y457758D01*
X261338Y457703D01*
X261259Y457650D01*
X261256Y457647D01*
X261253Y457644D01*
X261202Y457563D01*
X261150Y457483D01*
X261149Y457479D01*
X261147Y457476D01*
X261132Y457382D01*
X261115Y457288D01*
X261116Y457283D01*
X261116Y457279D01*
X261138Y457188D01*
X261160Y457094D01*
X261162Y457090D01*
X261163Y457086D01*
X261220Y457010D01*
X261276Y456933D01*
X261280Y456931D01*
X261283Y456927D01*
X261424Y456839D01*
X265304Y455232D01*
X268288Y452247D01*
X268299Y452240D01*
X268306Y452230D01*
X268381Y452186D01*
X268454Y452137D01*
X268466Y452135D01*
X268477Y452128D01*
X268641Y452101D01*
X282792Y452101D01*
X285549Y450959D01*
X287761Y448747D01*
X287771Y448740D01*
X287779Y448730D01*
X287854Y448685D01*
X287926Y448637D01*
X287939Y448635D01*
X287950Y448628D01*
X288114Y448601D01*
X298371Y448601D01*
X298947Y448025D01*
X298954Y448020D01*
X298959Y448014D01*
X299037Y447966D01*
X299113Y447915D01*
X299121Y447914D01*
X299128Y447909D01*
X299218Y447896D01*
X299308Y447879D01*
X299317Y447881D01*
X299325Y447880D01*
X299413Y447902D01*
X299502Y447922D01*
X299509Y447927D01*
X299517Y447929D01*
X299653Y448025D01*
X300229Y448601D01*
X300800Y448601D01*
X300808Y448602D01*
X300817Y448601D01*
X300905Y448622D01*
X300995Y448640D01*
X301002Y448645D01*
X301010Y448647D01*
X301083Y448701D01*
X301159Y448753D01*
X301163Y448760D01*
X301170Y448765D01*
X301217Y448843D01*
X301266Y448920D01*
X301267Y448929D01*
X301272Y448936D01*
X301299Y449100D01*
X301299Y451886D01*
X301297Y451899D01*
X301299Y451911D01*
X301277Y451995D01*
X301260Y452081D01*
X301253Y452092D01*
X301249Y452104D01*
X301153Y452239D01*
X296410Y456982D01*
X296403Y456987D01*
X296398Y456994D01*
X296321Y457041D01*
X296244Y457092D01*
X296236Y457093D01*
X296229Y457098D01*
X296139Y457112D01*
X296049Y457128D01*
X296041Y457126D01*
X296032Y457128D01*
X295944Y457105D01*
X295855Y457085D01*
X295848Y457081D01*
X295840Y457079D01*
X295704Y456982D01*
X293069Y454347D01*
X280931Y454347D01*
X272347Y462931D01*
X272347Y475069D01*
X280931Y483653D01*
X293069Y483653D01*
X301653Y475069D01*
X301653Y473162D01*
X301655Y473149D01*
X301653Y473137D01*
X301675Y473053D01*
X301692Y472967D01*
X301699Y472956D01*
X301703Y472944D01*
X301799Y472809D01*
X315159Y459449D01*
X316301Y456692D01*
X316301Y449100D01*
X316302Y449092D01*
X316301Y449083D01*
X316322Y448995D01*
X316340Y448905D01*
X316345Y448898D01*
X316347Y448890D01*
X316401Y448817D01*
X316453Y448741D01*
X316460Y448737D01*
X316465Y448730D01*
X316543Y448683D01*
X316620Y448634D01*
X316629Y448633D01*
X316636Y448628D01*
X316800Y448601D01*
X317371Y448601D01*
X320301Y445671D01*
X320301Y426529D01*
X317371Y423599D01*
X300229Y423599D01*
X299653Y424175D01*
X299646Y424179D01*
X299641Y424186D01*
X299563Y424234D01*
X299487Y424285D01*
X299479Y424286D01*
X299472Y424291D01*
X299382Y424304D01*
X299292Y424321D01*
X299284Y424319D01*
X299275Y424320D01*
X299187Y424298D01*
X299098Y424278D01*
X299091Y424273D01*
X299083Y424271D01*
X298947Y424175D01*
X298371Y423599D01*
X281229Y423599D01*
X278299Y426529D01*
X278299Y436600D01*
X278298Y436608D01*
X278299Y436617D01*
X278278Y436705D01*
X278260Y436795D01*
X278255Y436802D01*
X278253Y436810D01*
X278199Y436883D01*
X278147Y436959D01*
X278140Y436963D01*
X278135Y436970D01*
X278057Y437017D01*
X277980Y437066D01*
X277971Y437067D01*
X277964Y437072D01*
X277800Y437099D01*
X268641Y437099D01*
X268629Y437097D01*
X268617Y437099D01*
X268532Y437077D01*
X268446Y437060D01*
X268436Y437053D01*
X268424Y437049D01*
X268288Y436953D01*
X265304Y433968D01*
X261424Y432361D01*
X261420Y432359D01*
X261416Y432358D01*
X261338Y432303D01*
X261259Y432250D01*
X261256Y432247D01*
X261253Y432244D01*
X261202Y432163D01*
X261150Y432083D01*
X261149Y432079D01*
X261147Y432076D01*
X261132Y431982D01*
X261115Y431888D01*
X261116Y431883D01*
X261116Y431879D01*
X261138Y431788D01*
X261160Y431694D01*
X261162Y431690D01*
X261163Y431686D01*
X261220Y431610D01*
X261276Y431533D01*
X261280Y431531D01*
X261283Y431527D01*
X261424Y431439D01*
X265304Y429832D01*
X268832Y426304D01*
X270741Y421695D01*
X270741Y417474D01*
X270743Y417461D01*
X270741Y417449D01*
X270763Y417365D01*
X270780Y417279D01*
X270787Y417268D01*
X270791Y417256D01*
X270887Y417121D01*
X276361Y411647D01*
X276371Y411640D01*
X276379Y411630D01*
X276453Y411585D01*
X276526Y411537D01*
X276539Y411535D01*
X276550Y411528D01*
X276714Y411501D01*
X404492Y411501D01*
X404832Y411360D01*
X404834Y411359D01*
X404836Y411358D01*
X404932Y411340D01*
X405027Y411322D01*
X405029Y411322D01*
X405031Y411322D01*
X405128Y411343D01*
X405222Y411363D01*
X405223Y411364D01*
X405226Y411365D01*
X405305Y411422D01*
X405385Y411477D01*
X405386Y411479D01*
X405388Y411480D01*
X405439Y411563D01*
X405490Y411645D01*
X405491Y411648D01*
X405492Y411649D01*
X405506Y411745D01*
X405522Y411842D01*
X405521Y411844D01*
X405522Y411846D01*
X405498Y411939D01*
X405474Y412035D01*
X405473Y412037D01*
X405473Y412039D01*
X405376Y412174D01*
X404499Y413051D01*
X404499Y427549D01*
X407897Y430947D01*
X407900Y430951D01*
X407903Y430953D01*
X407954Y431033D01*
X408007Y431113D01*
X408008Y431117D01*
X408010Y431120D01*
X408026Y431214D01*
X408043Y431308D01*
X408043Y431312D01*
X408043Y431317D01*
X408021Y431408D01*
X408001Y431502D01*
X407998Y431506D01*
X407997Y431510D01*
X407941Y431586D01*
X407885Y431665D01*
X407882Y431667D01*
X407879Y431670D01*
X407797Y431719D01*
X407716Y431769D01*
X407712Y431769D01*
X407708Y431772D01*
X407544Y431799D01*
X402016Y431799D01*
X396503Y434083D01*
X392283Y438303D01*
X389999Y443816D01*
X389999Y449784D01*
X392283Y455297D01*
X396503Y459517D01*
X402016Y461801D01*
X407984Y461801D01*
X413497Y459517D01*
X417717Y455297D01*
X420001Y449784D01*
X420001Y443816D01*
X417795Y438491D01*
X417794Y438485D01*
X417790Y438480D01*
X417775Y438387D01*
X417757Y438296D01*
X417758Y438290D01*
X417757Y438283D01*
X417779Y438193D01*
X417798Y438101D01*
X417802Y438096D01*
X417803Y438090D01*
X417858Y438015D01*
X417912Y437938D01*
X417917Y437935D01*
X417921Y437930D01*
X418001Y437883D01*
X418081Y437833D01*
X418087Y437832D01*
X418092Y437828D01*
X418256Y437801D01*
X429249Y437801D01*
X439501Y427549D01*
X439501Y413051D01*
X429249Y402799D01*
X416014Y402799D01*
X416010Y402798D01*
X416005Y402799D01*
X415912Y402779D01*
X415819Y402760D01*
X415815Y402757D01*
X415811Y402756D01*
X415733Y402701D01*
X415655Y402647D01*
X415653Y402644D01*
X415649Y402641D01*
X415599Y402560D01*
X415548Y402480D01*
X415547Y402475D01*
X415545Y402472D01*
X415531Y402378D01*
X415515Y402283D01*
X415516Y402279D01*
X415515Y402275D01*
X415539Y402183D01*
X415561Y402090D01*
X415563Y402087D01*
X415564Y402083D01*
X415661Y401947D01*
X420961Y396647D01*
X420971Y396640D01*
X420979Y396630D01*
X421054Y396585D01*
X421126Y396537D01*
X421139Y396535D01*
X421150Y396528D01*
X421314Y396501D01*
X439686Y396501D01*
X439699Y396503D01*
X439711Y396501D01*
X439795Y396523D01*
X439881Y396540D01*
X439892Y396547D01*
X439904Y396551D01*
X440039Y396647D01*
X450353Y406961D01*
X450360Y406971D01*
X450370Y406979D01*
X450415Y407054D01*
X450463Y407126D01*
X450465Y407139D01*
X450472Y407150D01*
X450499Y407314D01*
X450499Y442600D01*
X450498Y442608D01*
X450499Y442617D01*
X450478Y442705D01*
X450460Y442795D01*
X450455Y442802D01*
X450453Y442810D01*
X450399Y442883D01*
X450347Y442959D01*
X450340Y442963D01*
X450335Y442970D01*
X450257Y443017D01*
X450180Y443066D01*
X450171Y443067D01*
X450164Y443072D01*
X450000Y443099D01*
X448329Y443099D01*
X445399Y446029D01*
X445399Y463171D01*
X445975Y463747D01*
X445979Y463754D01*
X445986Y463759D01*
X446034Y463837D01*
X446085Y463913D01*
X446086Y463921D01*
X446091Y463928D01*
X446104Y464018D01*
X446121Y464108D01*
X446119Y464116D01*
X446120Y464125D01*
X446098Y464213D01*
X446078Y464302D01*
X446073Y464309D01*
X446071Y464317D01*
X445975Y464453D01*
X445399Y465029D01*
X445399Y476302D01*
X445398Y476306D01*
X445399Y476309D01*
X445397Y476319D01*
X445398Y476331D01*
X445361Y476493D01*
X444899Y477608D01*
X444899Y491122D01*
X444897Y491134D01*
X444899Y491147D01*
X444877Y491231D01*
X444860Y491317D01*
X444853Y491327D01*
X444849Y491339D01*
X444753Y491475D01*
X442899Y493329D01*
X442899Y505471D01*
X445829Y508401D01*
X458971Y508401D01*
X461901Y505471D01*
X461901Y493329D01*
X460047Y491475D01*
X460040Y491464D01*
X460030Y491457D01*
X459986Y491382D01*
X459937Y491309D01*
X459935Y491297D01*
X459928Y491286D01*
X459901Y491122D01*
X459901Y485600D01*
X459902Y485592D01*
X459901Y485583D01*
X459922Y485495D01*
X459940Y485405D01*
X459945Y485398D01*
X459947Y485390D01*
X460001Y485317D01*
X460053Y485241D01*
X460060Y485237D01*
X460065Y485230D01*
X460143Y485183D01*
X460220Y485134D01*
X460229Y485133D01*
X460236Y485128D01*
X460400Y485101D01*
X467471Y485101D01*
X470401Y482171D01*
X470401Y465029D01*
X469825Y464453D01*
X469820Y464446D01*
X469814Y464441D01*
X469766Y464363D01*
X469715Y464287D01*
X469714Y464279D01*
X469709Y464272D01*
X469696Y464182D01*
X469679Y464092D01*
X469681Y464083D01*
X469680Y464075D01*
X469702Y463987D01*
X469722Y463898D01*
X469727Y463891D01*
X469729Y463883D01*
X469825Y463747D01*
X470401Y463171D01*
X470401Y446029D01*
X467471Y443099D01*
X466000Y443099D01*
X465992Y443098D01*
X465983Y443099D01*
X465895Y443078D01*
X465805Y443060D01*
X465798Y443055D01*
X465790Y443053D01*
X465717Y442999D01*
X465641Y442947D01*
X465637Y442940D01*
X465630Y442935D01*
X465583Y442857D01*
X465534Y442780D01*
X465533Y442771D01*
X465528Y442764D01*
X465501Y442600D01*
X465501Y402508D01*
X464359Y399751D01*
X462179Y397571D01*
X451461Y386853D01*
X451458Y386849D01*
X451455Y386847D01*
X451403Y386766D01*
X451351Y386687D01*
X451350Y386683D01*
X451348Y386680D01*
X451332Y386586D01*
X451314Y386492D01*
X451315Y386488D01*
X451315Y386483D01*
X451337Y386392D01*
X451357Y386298D01*
X451360Y386294D01*
X451361Y386290D01*
X451417Y386214D01*
X451472Y386135D01*
X451476Y386133D01*
X451479Y386130D01*
X451560Y386081D01*
X451642Y386031D01*
X451646Y386031D01*
X451650Y386028D01*
X451814Y386001D01*
X488186Y386001D01*
X488199Y386003D01*
X488211Y386001D01*
X488295Y386023D01*
X488381Y386040D01*
X488392Y386047D01*
X488404Y386051D01*
X488539Y386147D01*
X508353Y405961D01*
X508360Y405971D01*
X508370Y405979D01*
X508415Y406054D01*
X508463Y406126D01*
X508465Y406139D01*
X508472Y406150D01*
X508499Y406314D01*
X508499Y422100D01*
X508498Y422108D01*
X508499Y422117D01*
X508478Y422205D01*
X508460Y422295D01*
X508455Y422302D01*
X508453Y422310D01*
X508399Y422383D01*
X508347Y422459D01*
X508340Y422463D01*
X508335Y422470D01*
X508257Y422517D01*
X508180Y422566D01*
X508171Y422567D01*
X508164Y422572D01*
X508000Y422599D01*
X507429Y422599D01*
X506853Y423175D01*
X506846Y423180D01*
X506841Y423186D01*
X506763Y423234D01*
X506687Y423285D01*
X506679Y423286D01*
X506672Y423291D01*
X506582Y423304D01*
X506492Y423321D01*
X506483Y423319D01*
X506475Y423320D01*
X506387Y423298D01*
X506298Y423278D01*
X506291Y423273D01*
X506283Y423271D01*
X506147Y423175D01*
X505571Y422599D01*
X488429Y422599D01*
X485499Y425529D01*
X485499Y444671D01*
X488429Y447601D01*
X489000Y447601D01*
X489008Y447602D01*
X489017Y447601D01*
X489105Y447622D01*
X489195Y447640D01*
X489202Y447645D01*
X489210Y447647D01*
X489283Y447701D01*
X489359Y447753D01*
X489363Y447760D01*
X489370Y447765D01*
X489417Y447843D01*
X489466Y447920D01*
X489467Y447929D01*
X489472Y447936D01*
X489499Y448100D01*
X489499Y455572D01*
X489497Y455584D01*
X489499Y455597D01*
X489477Y455681D01*
X489460Y455767D01*
X489453Y455777D01*
X489449Y455789D01*
X489353Y455925D01*
X482347Y462931D01*
X482347Y475069D01*
X490931Y483653D01*
X503069Y483653D01*
X511653Y475069D01*
X511653Y462931D01*
X504647Y455925D01*
X504640Y455914D01*
X504630Y455907D01*
X504585Y455832D01*
X504537Y455759D01*
X504535Y455747D01*
X504528Y455736D01*
X504501Y455572D01*
X504501Y448100D01*
X504502Y448092D01*
X504501Y448083D01*
X504522Y447995D01*
X504540Y447905D01*
X504545Y447898D01*
X504547Y447890D01*
X504601Y447817D01*
X504653Y447741D01*
X504660Y447737D01*
X504665Y447730D01*
X504743Y447683D01*
X504820Y447634D01*
X504829Y447633D01*
X504836Y447628D01*
X505000Y447601D01*
X505571Y447601D01*
X506147Y447025D01*
X506154Y447021D01*
X506159Y447014D01*
X506237Y446966D01*
X506313Y446915D01*
X506321Y446914D01*
X506328Y446909D01*
X506418Y446896D01*
X506508Y446879D01*
X506516Y446881D01*
X506525Y446880D01*
X506613Y446902D01*
X506702Y446922D01*
X506709Y446927D01*
X506717Y446929D01*
X506853Y447025D01*
X507429Y447601D01*
X524571Y447601D01*
X527501Y444671D01*
X527501Y425529D01*
X524571Y422599D01*
X524000Y422599D01*
X523992Y422598D01*
X523983Y422599D01*
X523895Y422578D01*
X523805Y422560D01*
X523798Y422555D01*
X523790Y422553D01*
X523717Y422499D01*
X523641Y422447D01*
X523637Y422440D01*
X523630Y422435D01*
X523583Y422357D01*
X523534Y422280D01*
X523533Y422271D01*
X523528Y422264D01*
X523501Y422100D01*
X523501Y408005D01*
X523504Y407991D01*
X523502Y407977D01*
X523539Y407814D01*
X524501Y405492D01*
X524501Y402508D01*
X523359Y399751D01*
X495749Y372141D01*
X492992Y370999D01*
X413008Y370999D01*
X410251Y372141D01*
X408071Y374321D01*
X397039Y385353D01*
X397029Y385360D01*
X397021Y385370D01*
X396947Y385415D01*
X396874Y385463D01*
X396861Y385465D01*
X396850Y385472D01*
X396686Y385499D01*
X267841Y385499D01*
X267829Y385497D01*
X267817Y385499D01*
X267732Y385477D01*
X267646Y385460D01*
X267636Y385453D01*
X267624Y385449D01*
X267488Y385353D01*
X265304Y383168D01*
X261424Y381561D01*
X261420Y381559D01*
X261416Y381558D01*
X261338Y381503D01*
X261259Y381450D01*
X261256Y381447D01*
X261253Y381444D01*
X261202Y381363D01*
X261150Y381283D01*
X261149Y381279D01*
X261147Y381276D01*
X261132Y381182D01*
X261115Y381088D01*
X261116Y381083D01*
X261116Y381079D01*
X261138Y380988D01*
X261160Y380894D01*
X261162Y380890D01*
X261163Y380886D01*
X261220Y380810D01*
X261276Y380733D01*
X261280Y380731D01*
X261283Y380727D01*
X261424Y380639D01*
X265304Y379032D01*
X268832Y375504D01*
X270741Y370895D01*
X270741Y366674D01*
X270743Y366661D01*
X270741Y366649D01*
X270763Y366565D01*
X270780Y366479D01*
X270787Y366468D01*
X270791Y366456D01*
X270887Y366321D01*
X277161Y360047D01*
X277171Y360040D01*
X277179Y360030D01*
X277254Y359985D01*
X277326Y359937D01*
X277339Y359935D01*
X277350Y359928D01*
X277514Y359901D01*
X429092Y359901D01*
X431849Y358759D01*
X522759Y267849D01*
X523901Y265092D01*
X523901Y240600D01*
X523902Y240592D01*
X523901Y240583D01*
X523922Y240495D01*
X523940Y240405D01*
X523945Y240398D01*
X523947Y240390D01*
X524001Y240317D01*
X524053Y240241D01*
X524060Y240237D01*
X524065Y240230D01*
X524143Y240183D01*
X524220Y240134D01*
X524229Y240133D01*
X524236Y240128D01*
X524400Y240101D01*
X524971Y240101D01*
X527901Y237171D01*
X527901Y218029D01*
X524971Y215099D01*
X507829Y215099D01*
X507253Y215675D01*
X507246Y215680D01*
X507241Y215686D01*
X507163Y215734D01*
X507087Y215785D01*
X507079Y215786D01*
X507072Y215791D01*
X506982Y215804D01*
X506892Y215821D01*
X506883Y215819D01*
X506875Y215820D01*
X506787Y215798D01*
X506698Y215778D01*
X506691Y215773D01*
X506683Y215771D01*
X506547Y215675D01*
X505971Y215099D01*
X488829Y215099D01*
X485899Y218029D01*
X485899Y237171D01*
X488829Y240101D01*
X489400Y240101D01*
X489408Y240102D01*
X489417Y240101D01*
X489505Y240122D01*
X489595Y240140D01*
X489602Y240145D01*
X489610Y240147D01*
X489683Y240201D01*
X489759Y240253D01*
X489763Y240260D01*
X489770Y240265D01*
X489817Y240343D01*
X489866Y240420D01*
X489867Y240429D01*
X489872Y240436D01*
X489899Y240600D01*
X489899Y245172D01*
X489897Y245184D01*
X489899Y245197D01*
X489877Y245281D01*
X489860Y245367D01*
X489853Y245377D01*
X489849Y245389D01*
X489753Y245525D01*
X482347Y252931D01*
X482347Y265069D01*
X490931Y273653D01*
X494534Y273653D01*
X494538Y273654D01*
X494543Y273653D01*
X494636Y273673D01*
X494729Y273692D01*
X494733Y273695D01*
X494737Y273696D01*
X494815Y273751D01*
X494893Y273805D01*
X494895Y273808D01*
X494899Y273811D01*
X494949Y273892D01*
X495000Y273972D01*
X495001Y273977D01*
X495003Y273980D01*
X495017Y274074D01*
X495033Y274169D01*
X495032Y274173D01*
X495033Y274177D01*
X495009Y274269D01*
X494987Y274362D01*
X494985Y274365D01*
X494984Y274369D01*
X494887Y274505D01*
X424639Y344753D01*
X424629Y344760D01*
X424621Y344770D01*
X424546Y344815D01*
X424474Y344863D01*
X424461Y344865D01*
X424450Y344872D01*
X424286Y344899D01*
X272708Y344899D01*
X271431Y345428D01*
X271425Y345429D01*
X271420Y345433D01*
X271327Y345448D01*
X271236Y345466D01*
X271230Y345465D01*
X271223Y345466D01*
X271133Y345444D01*
X271041Y345425D01*
X271036Y345421D01*
X271030Y345420D01*
X270955Y345365D01*
X270878Y345311D01*
X270875Y345306D01*
X270870Y345302D01*
X270822Y345222D01*
X270773Y345143D01*
X270772Y345136D01*
X270768Y345131D01*
X270741Y344967D01*
X270741Y340505D01*
X268832Y335896D01*
X265304Y332368D01*
X261424Y330761D01*
X261420Y330759D01*
X261416Y330758D01*
X261338Y330703D01*
X261259Y330650D01*
X261256Y330647D01*
X261253Y330644D01*
X261202Y330563D01*
X261150Y330483D01*
X261149Y330479D01*
X261147Y330476D01*
X261132Y330382D01*
X261115Y330288D01*
X261116Y330284D01*
X261116Y330279D01*
X261138Y330188D01*
X261160Y330094D01*
X261162Y330090D01*
X261163Y330086D01*
X261220Y330010D01*
X261276Y329933D01*
X261280Y329931D01*
X261283Y329927D01*
X261424Y329839D01*
X265304Y328232D01*
X268832Y324704D01*
X270741Y320095D01*
X270741Y315105D01*
X268832Y310496D01*
X265304Y306968D01*
X261424Y305361D01*
X261420Y305359D01*
X261416Y305358D01*
X261338Y305303D01*
X261259Y305250D01*
X261256Y305247D01*
X261253Y305244D01*
X261202Y305163D01*
X261150Y305083D01*
X261150Y305079D01*
X261147Y305076D01*
X261132Y304982D01*
X261116Y304888D01*
X261116Y304883D01*
X261116Y304879D01*
X261138Y304788D01*
X261160Y304694D01*
X261162Y304690D01*
X261163Y304686D01*
X261220Y304610D01*
X261276Y304533D01*
X261280Y304531D01*
X261283Y304527D01*
X261424Y304439D01*
X265304Y302832D01*
X268832Y299304D01*
X270741Y294695D01*
X270741Y289705D01*
X268832Y285096D01*
X265304Y281568D01*
X261424Y279961D01*
X261420Y279959D01*
X261416Y279958D01*
X261338Y279903D01*
X261259Y279850D01*
X261256Y279847D01*
X261253Y279844D01*
X261202Y279763D01*
X261150Y279683D01*
X261150Y279679D01*
X261147Y279676D01*
X261132Y279582D01*
X261116Y279488D01*
X261116Y279483D01*
X261116Y279479D01*
X261138Y279388D01*
X261160Y279294D01*
X261162Y279290D01*
X261163Y279286D01*
X261220Y279210D01*
X261276Y279133D01*
X261280Y279131D01*
X261283Y279127D01*
X261424Y279039D01*
X265304Y277432D01*
X268832Y273904D01*
X270741Y269295D01*
X270741Y264305D01*
X268832Y259696D01*
X265304Y256168D01*
X260695Y254259D01*
X255705Y254259D01*
X251096Y256168D01*
X250912Y256353D01*
X250901Y256360D01*
X250894Y256370D01*
X250819Y256415D01*
X250746Y256463D01*
X250733Y256465D01*
X250723Y256472D01*
X250559Y256499D01*
X240314Y256499D01*
X240301Y256497D01*
X240289Y256499D01*
X240205Y256477D01*
X240119Y256460D01*
X240108Y256453D01*
X240096Y256449D01*
X239961Y256353D01*
X228147Y244539D01*
X228140Y244529D01*
X228130Y244521D01*
X228085Y244446D01*
X228037Y244374D01*
X228035Y244361D01*
X228028Y244350D01*
X228001Y244186D01*
X228001Y221929D01*
X225071Y218999D01*
X213000Y218999D01*
X212992Y218998D01*
X212983Y218999D01*
X212895Y218978D01*
X212805Y218960D01*
X212798Y218955D01*
X212790Y218953D01*
X212717Y218899D01*
X212641Y218847D01*
X212637Y218840D01*
X212630Y218835D01*
X212583Y218757D01*
X212534Y218680D01*
X212533Y218671D01*
X212528Y218664D01*
X212501Y218500D01*
X212501Y178314D01*
X212503Y178301D01*
X212501Y178289D01*
X212523Y178205D01*
X212540Y178119D01*
X212547Y178108D01*
X212551Y178096D01*
X212647Y177961D01*
X291759Y98849D01*
X292901Y96092D01*
X292901Y92600D01*
X292902Y92592D01*
X292901Y92583D01*
X292922Y92495D01*
X292940Y92405D01*
X292945Y92398D01*
X292947Y92390D01*
X293001Y92317D01*
X293053Y92241D01*
X293060Y92237D01*
X293065Y92230D01*
X293143Y92183D01*
X293220Y92134D01*
X293229Y92133D01*
X293236Y92128D01*
X293400Y92101D01*
X293971Y92101D01*
X294547Y91525D01*
X294554Y91520D01*
X294559Y91514D01*
X294637Y91466D01*
X294713Y91415D01*
X294721Y91414D01*
X294728Y91409D01*
X294818Y91396D01*
X294908Y91379D01*
X294917Y91381D01*
X294925Y91380D01*
X295013Y91402D01*
X295102Y91422D01*
X295109Y91427D01*
X295117Y91429D01*
X295253Y91525D01*
X295829Y92101D01*
X312971Y92101D01*
X315901Y89171D01*
X315901Y70029D01*
X312971Y67099D01*
X312400Y67099D01*
X312392Y67098D01*
X312383Y67099D01*
X312295Y67078D01*
X312205Y67060D01*
X312198Y67055D01*
X312190Y67053D01*
X312117Y66999D01*
X312041Y66947D01*
X312037Y66940D01*
X312030Y66935D01*
X311983Y66857D01*
X311934Y66780D01*
X311933Y66771D01*
X311928Y66764D01*
X311901Y66600D01*
X311901Y64108D01*
X310759Y61351D01*
X301799Y52391D01*
X301792Y52381D01*
X301782Y52373D01*
X301737Y52298D01*
X301689Y52226D01*
X301687Y52213D01*
X301680Y52202D01*
X301653Y52038D01*
X301653Y42931D01*
X294075Y35353D01*
X294073Y35349D01*
X294069Y35347D01*
X294018Y35267D01*
X293965Y35187D01*
X293965Y35183D01*
X293962Y35180D01*
X293946Y35085D01*
X293929Y34992D01*
X293930Y34988D01*
X293929Y34983D01*
X293951Y34892D01*
X293972Y34798D01*
X293974Y34794D01*
X293975Y34790D01*
X294031Y34714D01*
X294087Y34635D01*
X294091Y34633D01*
X294093Y34630D01*
X294175Y34581D01*
X294256Y34531D01*
X294260Y34531D01*
X294264Y34528D01*
X294428Y34501D01*
X295686Y34501D01*
X295699Y34503D01*
X295711Y34501D01*
X295795Y34523D01*
X295881Y34540D01*
X295892Y34547D01*
X295904Y34551D01*
X296039Y34647D01*
X377972Y116580D01*
X377978Y116588D01*
X377986Y116594D01*
X378032Y116671D01*
X378082Y116745D01*
X378084Y116756D01*
X378089Y116765D01*
X378102Y116853D01*
X378118Y116941D01*
X378116Y116951D01*
X378117Y116961D01*
X378080Y117124D01*
X377259Y119105D01*
X377259Y124095D01*
X379168Y128704D01*
X382112Y131647D01*
X382114Y131651D01*
X382118Y131653D01*
X382168Y131733D01*
X382222Y131813D01*
X382222Y131817D01*
X382225Y131820D01*
X382240Y131914D01*
X382258Y132008D01*
X382257Y132012D01*
X382258Y132017D01*
X382236Y132108D01*
X382215Y132202D01*
X382213Y132206D01*
X382212Y132210D01*
X382156Y132286D01*
X382100Y132365D01*
X382096Y132367D01*
X382094Y132370D01*
X382012Y132419D01*
X381931Y132469D01*
X381926Y132469D01*
X381923Y132472D01*
X381759Y132499D01*
X351769Y132499D01*
X351709Y132487D01*
X351648Y132484D01*
X351613Y132468D01*
X351574Y132460D01*
X351524Y132425D01*
X351469Y132399D01*
X351443Y132369D01*
X351410Y132347D01*
X351377Y132296D01*
X351337Y132250D01*
X351324Y132213D01*
X351303Y132180D01*
X351293Y132119D01*
X351273Y132062D01*
X351276Y132022D01*
X351270Y131983D01*
X351284Y131924D01*
X351289Y131863D01*
X351307Y131828D01*
X351316Y131790D01*
X351352Y131741D01*
X351380Y131687D01*
X351410Y131662D01*
X351434Y131630D01*
X351486Y131599D01*
X351533Y131560D01*
X351576Y131545D01*
X351605Y131528D01*
X351649Y131521D01*
X351691Y131507D01*
X352161Y131433D01*
X353670Y130942D01*
X355083Y130222D01*
X356367Y129289D01*
X357489Y128167D01*
X358422Y126883D01*
X359142Y125470D01*
X359633Y123961D01*
X359848Y122599D01*
X350300Y122599D01*
X350292Y122598D01*
X350284Y122599D01*
X350195Y122578D01*
X350105Y122560D01*
X350098Y122555D01*
X350090Y122553D01*
X350017Y122499D01*
X349941Y122447D01*
X349937Y122440D01*
X349930Y122435D01*
X349884Y122357D01*
X349834Y122280D01*
X349833Y122271D01*
X349829Y122264D01*
X349801Y122100D01*
X349801Y121599D01*
X349799Y121599D01*
X349799Y122100D01*
X349797Y122108D01*
X349799Y122116D01*
X349778Y122205D01*
X349760Y122295D01*
X349755Y122302D01*
X349753Y122310D01*
X349699Y122383D01*
X349647Y122459D01*
X349640Y122463D01*
X349635Y122470D01*
X349557Y122516D01*
X349479Y122566D01*
X349471Y122567D01*
X349464Y122571D01*
X349300Y122599D01*
X339752Y122599D01*
X339967Y123961D01*
X340458Y125470D01*
X341178Y126883D01*
X342111Y128167D01*
X343233Y129289D01*
X344517Y130222D01*
X345930Y130942D01*
X347439Y131433D01*
X347909Y131507D01*
X347966Y131528D01*
X348026Y131540D01*
X348059Y131563D01*
X348096Y131576D01*
X348140Y131618D01*
X348190Y131653D01*
X348211Y131686D01*
X348240Y131713D01*
X348264Y131769D01*
X348297Y131820D01*
X348304Y131859D01*
X348319Y131896D01*
X348320Y131956D01*
X348330Y132017D01*
X348321Y132055D01*
X348321Y132094D01*
X348298Y132151D01*
X348284Y132210D01*
X348261Y132242D01*
X348246Y132278D01*
X348202Y132321D01*
X348166Y132370D01*
X348132Y132390D01*
X348104Y132418D01*
X348048Y132440D01*
X347995Y132472D01*
X347950Y132479D01*
X347919Y132491D01*
X347875Y132492D01*
X347831Y132499D01*
X281508Y132499D01*
X278751Y133641D01*
X259879Y152513D01*
X259869Y152520D01*
X259861Y152530D01*
X259786Y152575D01*
X259714Y152623D01*
X259701Y152625D01*
X259690Y152632D01*
X259526Y152659D01*
X248589Y152659D01*
X245659Y155589D01*
X245659Y174811D01*
X248589Y177741D01*
X253965Y177741D01*
X253967Y177741D01*
X253969Y177741D01*
X254063Y177761D01*
X254160Y177780D01*
X254161Y177782D01*
X254163Y177782D01*
X254244Y177838D01*
X254323Y177893D01*
X254325Y177895D01*
X254326Y177896D01*
X254378Y177979D01*
X254430Y178060D01*
X254431Y178063D01*
X254432Y178064D01*
X254447Y178160D01*
X254464Y178257D01*
X254463Y178259D01*
X254463Y178261D01*
X254440Y178355D01*
X254418Y178450D01*
X254416Y178452D01*
X254416Y178454D01*
X254356Y178533D01*
X254300Y178610D01*
X254298Y178611D01*
X254297Y178613D01*
X254156Y178701D01*
X251096Y179968D01*
X247568Y183496D01*
X245659Y188105D01*
X245659Y193095D01*
X247568Y197704D01*
X251096Y201232D01*
X254976Y202839D01*
X254980Y202841D01*
X254984Y202842D01*
X255062Y202897D01*
X255141Y202950D01*
X255144Y202953D01*
X255147Y202956D01*
X255198Y203037D01*
X255250Y203117D01*
X255250Y203121D01*
X255253Y203124D01*
X255268Y203218D01*
X255284Y203312D01*
X255284Y203316D01*
X255284Y203321D01*
X255262Y203412D01*
X255240Y203506D01*
X255238Y203510D01*
X255237Y203514D01*
X255180Y203590D01*
X255124Y203667D01*
X255120Y203669D01*
X255117Y203673D01*
X254976Y203761D01*
X251096Y205368D01*
X247568Y208896D01*
X245659Y213505D01*
X245659Y218495D01*
X247568Y223104D01*
X251096Y226632D01*
X255705Y228541D01*
X260695Y228541D01*
X265304Y226632D01*
X268832Y223104D01*
X270741Y218495D01*
X270741Y213505D01*
X268832Y208896D01*
X265304Y205368D01*
X261424Y203761D01*
X261420Y203759D01*
X261416Y203758D01*
X261338Y203703D01*
X261259Y203650D01*
X261256Y203647D01*
X261253Y203644D01*
X261202Y203563D01*
X261150Y203483D01*
X261150Y203479D01*
X261147Y203476D01*
X261132Y203382D01*
X261116Y203288D01*
X261116Y203283D01*
X261116Y203279D01*
X261139Y203186D01*
X261160Y203094D01*
X261162Y203090D01*
X261163Y203086D01*
X261220Y203010D01*
X261276Y202933D01*
X261280Y202931D01*
X261283Y202927D01*
X261424Y202839D01*
X265304Y201232D01*
X266861Y199674D01*
X266868Y199670D01*
X266873Y199663D01*
X266950Y199615D01*
X267027Y199565D01*
X267035Y199563D01*
X267042Y199559D01*
X267132Y199545D01*
X267222Y199528D01*
X267230Y199530D01*
X267239Y199529D01*
X267327Y199551D01*
X267416Y199571D01*
X267423Y199576D01*
X267431Y199578D01*
X267567Y199674D01*
X273953Y206061D01*
X273960Y206071D01*
X273970Y206079D01*
X274015Y206153D01*
X274063Y206226D01*
X274065Y206239D01*
X274072Y206250D01*
X274099Y206414D01*
X274099Y216671D01*
X274675Y217247D01*
X274680Y217254D01*
X274686Y217259D01*
X274734Y217337D01*
X274785Y217413D01*
X274786Y217421D01*
X274791Y217428D01*
X274804Y217518D01*
X274821Y217608D01*
X274819Y217617D01*
X274820Y217625D01*
X274798Y217713D01*
X274778Y217802D01*
X274773Y217809D01*
X274771Y217817D01*
X274675Y217953D01*
X274099Y218529D01*
X274099Y235671D01*
X277029Y238601D01*
X278600Y238601D01*
X278608Y238602D01*
X278617Y238601D01*
X278705Y238622D01*
X278795Y238640D01*
X278802Y238645D01*
X278810Y238647D01*
X278883Y238701D01*
X278959Y238753D01*
X278963Y238760D01*
X278970Y238765D01*
X279017Y238843D01*
X279066Y238920D01*
X279067Y238929D01*
X279072Y238936D01*
X279099Y239100D01*
X279099Y245972D01*
X279097Y245984D01*
X279099Y245997D01*
X279077Y246081D01*
X279060Y246167D01*
X279053Y246177D01*
X279049Y246189D01*
X278953Y246325D01*
X272347Y252931D01*
X272347Y265069D01*
X280931Y273653D01*
X293069Y273653D01*
X301653Y265069D01*
X301653Y252931D01*
X294247Y245525D01*
X294240Y245514D01*
X294230Y245507D01*
X294185Y245432D01*
X294137Y245359D01*
X294135Y245347D01*
X294128Y245336D01*
X294101Y245172D01*
X294101Y239100D01*
X294102Y239092D01*
X294101Y239083D01*
X294122Y238995D01*
X294140Y238905D01*
X294145Y238898D01*
X294147Y238890D01*
X294201Y238817D01*
X294253Y238741D01*
X294260Y238737D01*
X294265Y238730D01*
X294343Y238683D01*
X294420Y238634D01*
X294429Y238633D01*
X294436Y238628D01*
X294600Y238601D01*
X296171Y238601D01*
X299101Y235671D01*
X299101Y218529D01*
X298525Y217953D01*
X298521Y217946D01*
X298514Y217941D01*
X298466Y217863D01*
X298415Y217787D01*
X298414Y217779D01*
X298409Y217772D01*
X298396Y217681D01*
X298379Y217592D01*
X298381Y217584D01*
X298380Y217575D01*
X298402Y217487D01*
X298422Y217398D01*
X298427Y217391D01*
X298429Y217383D01*
X298525Y217247D01*
X299101Y216671D01*
X299101Y199529D01*
X296171Y196599D01*
X285914Y196599D01*
X285901Y196597D01*
X285889Y196599D01*
X285805Y196577D01*
X285719Y196560D01*
X285708Y196553D01*
X285696Y196549D01*
X285561Y196453D01*
X273349Y184241D01*
X270592Y183099D01*
X268641Y183099D01*
X268629Y183097D01*
X268617Y183099D01*
X268532Y183077D01*
X268446Y183060D01*
X268436Y183053D01*
X268424Y183049D01*
X268288Y182953D01*
X265304Y179968D01*
X262244Y178701D01*
X262243Y178700D01*
X262242Y178700D01*
X262241Y178700D01*
X262240Y178700D01*
X262161Y178645D01*
X262079Y178590D01*
X262078Y178588D01*
X262077Y178587D01*
X262025Y178506D01*
X261971Y178423D01*
X261971Y178421D01*
X261970Y178420D01*
X261953Y178324D01*
X261936Y178228D01*
X261937Y178226D01*
X261936Y178223D01*
X261959Y178130D01*
X261981Y178034D01*
X261982Y178032D01*
X261982Y178030D01*
X262039Y177953D01*
X262097Y177873D01*
X262099Y177872D01*
X262100Y177870D01*
X262183Y177821D01*
X262267Y177770D01*
X262270Y177770D01*
X262271Y177768D01*
X262435Y177741D01*
X267811Y177741D01*
X270741Y174811D01*
X270741Y163074D01*
X270743Y163061D01*
X270741Y163049D01*
X270763Y162965D01*
X270780Y162879D01*
X270787Y162868D01*
X270791Y162856D01*
X270887Y162721D01*
X285961Y147647D01*
X285971Y147640D01*
X285979Y147630D01*
X286054Y147585D01*
X286126Y147537D01*
X286139Y147535D01*
X286150Y147528D01*
X286314Y147501D01*
X478492Y147501D01*
X481249Y146359D01*
X523359Y104249D01*
X524501Y101492D01*
X524501Y97508D01*
X523439Y94944D01*
X523436Y94930D01*
X523428Y94917D01*
X523401Y94753D01*
X523401Y92600D01*
X523402Y92592D01*
X523401Y92583D01*
X523422Y92495D01*
X523440Y92405D01*
X523445Y92398D01*
X523447Y92390D01*
X523501Y92317D01*
X523553Y92241D01*
X523560Y92237D01*
X523565Y92230D01*
X523643Y92183D01*
X523720Y92134D01*
X523729Y92133D01*
X523736Y92128D01*
X523900Y92101D01*
X524471Y92101D01*
X527401Y89171D01*
X527401Y70029D01*
X524471Y67099D01*
X507329Y67099D01*
X506753Y67675D01*
X506746Y67680D01*
X506741Y67686D01*
X506663Y67734D01*
X506587Y67785D01*
X506579Y67786D01*
X506572Y67791D01*
X506482Y67804D01*
X506392Y67821D01*
X506383Y67819D01*
X506375Y67820D01*
X506287Y67798D01*
X506198Y67778D01*
X506191Y67773D01*
X506183Y67771D01*
X506047Y67675D01*
X505471Y67099D01*
X505000Y67099D01*
X504992Y67098D01*
X504983Y67099D01*
X504895Y67078D01*
X504805Y67060D01*
X504798Y67055D01*
X504790Y67053D01*
X504717Y66999D01*
X504641Y66947D01*
X504637Y66940D01*
X504630Y66935D01*
X504583Y66857D01*
X504534Y66780D01*
X504533Y66771D01*
X504528Y66764D01*
X504501Y66600D01*
X504501Y62428D01*
X504503Y62416D01*
X504501Y62403D01*
X504523Y62319D01*
X504540Y62233D01*
X504547Y62223D01*
X504551Y62211D01*
X504647Y62075D01*
X511653Y55069D01*
X511653Y42931D01*
X503069Y34347D01*
X490931Y34347D01*
X482347Y42931D01*
X482347Y55069D01*
X489353Y62075D01*
X489360Y62086D01*
X489370Y62093D01*
X489415Y62168D01*
X489463Y62241D01*
X489465Y62253D01*
X489472Y62264D01*
X489499Y62428D01*
X489499Y66600D01*
X489498Y66608D01*
X489499Y66617D01*
X489478Y66705D01*
X489460Y66795D01*
X489455Y66802D01*
X489453Y66810D01*
X489399Y66883D01*
X489347Y66959D01*
X489340Y66963D01*
X489335Y66970D01*
X489257Y67017D01*
X489180Y67066D01*
X489171Y67067D01*
X489164Y67072D01*
X489000Y67099D01*
X488329Y67099D01*
X485399Y70029D01*
X485399Y89171D01*
X488329Y92101D01*
X505471Y92101D01*
X506047Y91525D01*
X506054Y91521D01*
X506059Y91514D01*
X506137Y91466D01*
X506213Y91415D01*
X506221Y91414D01*
X506228Y91409D01*
X506318Y91396D01*
X506408Y91379D01*
X506416Y91381D01*
X506425Y91380D01*
X506513Y91402D01*
X506602Y91422D01*
X506609Y91427D01*
X506617Y91429D01*
X506753Y91525D01*
X507329Y92101D01*
X507900Y92101D01*
X507908Y92102D01*
X507917Y92101D01*
X508005Y92122D01*
X508095Y92140D01*
X508102Y92145D01*
X508110Y92147D01*
X508183Y92201D01*
X508259Y92253D01*
X508263Y92260D01*
X508270Y92265D01*
X508317Y92343D01*
X508366Y92420D01*
X508367Y92429D01*
X508372Y92436D01*
X508399Y92600D01*
X508399Y97786D01*
X508397Y97799D01*
X508399Y97811D01*
X508377Y97895D01*
X508360Y97981D01*
X508353Y97992D01*
X508349Y98004D01*
X508253Y98139D01*
X474039Y132353D01*
X474029Y132360D01*
X474021Y132370D01*
X473946Y132415D01*
X473874Y132463D01*
X473861Y132465D01*
X473850Y132472D01*
X473686Y132499D01*
X442258Y132499D01*
X442254Y132498D01*
X442250Y132499D01*
X442157Y132479D01*
X442063Y132460D01*
X442060Y132457D01*
X442056Y132456D01*
X441978Y132401D01*
X441899Y132347D01*
X441897Y132344D01*
X441894Y132341D01*
X441843Y132259D01*
X441792Y132180D01*
X441792Y132175D01*
X441789Y132172D01*
X441775Y132078D01*
X441759Y131983D01*
X441760Y131979D01*
X441759Y131975D01*
X441783Y131883D01*
X441805Y131790D01*
X441808Y131787D01*
X441809Y131783D01*
X441905Y131647D01*
X442341Y131211D01*
X442341Y111989D01*
X439411Y109059D01*
X428074Y109059D01*
X428061Y109057D01*
X428049Y109059D01*
X427965Y109037D01*
X427879Y109020D01*
X427868Y109013D01*
X427856Y109009D01*
X427721Y108913D01*
X415449Y96641D01*
X412692Y95499D01*
X395314Y95499D01*
X395301Y95497D01*
X395289Y95499D01*
X395205Y95477D01*
X395119Y95460D01*
X395108Y95453D01*
X395096Y95449D01*
X394961Y95353D01*
X337561Y37953D01*
X337558Y37949D01*
X337555Y37947D01*
X337504Y37867D01*
X337451Y37787D01*
X337450Y37783D01*
X337448Y37780D01*
X337432Y37686D01*
X337414Y37592D01*
X337415Y37588D01*
X337415Y37583D01*
X337437Y37492D01*
X337457Y37398D01*
X337460Y37394D01*
X337461Y37390D01*
X337517Y37314D01*
X337572Y37235D01*
X337576Y37233D01*
X337579Y37230D01*
X337660Y37181D01*
X337742Y37131D01*
X337746Y37131D01*
X337750Y37128D01*
X337914Y37101D01*
X342883Y37101D01*
X348580Y34741D01*
X352941Y30380D01*
X355301Y24683D01*
X355301Y18517D01*
X352941Y12820D01*
X348580Y8459D01*
X342883Y6099D01*
X336717Y6099D01*
X331020Y8459D01*
X326659Y12820D01*
X324299Y18517D01*
X324299Y23486D01*
X324299Y23489D01*
X324299Y23490D01*
X324299Y23491D01*
X324299Y23495D01*
X324279Y23588D01*
X324260Y23681D01*
X324257Y23685D01*
X324256Y23689D01*
X324201Y23767D01*
X324147Y23845D01*
X324144Y23847D01*
X324141Y23851D01*
X324060Y23901D01*
X323980Y23952D01*
X323975Y23953D01*
X323972Y23955D01*
X323878Y23969D01*
X323783Y23985D01*
X323779Y23984D01*
X323775Y23985D01*
X323683Y23961D01*
X323590Y23939D01*
X323587Y23937D01*
X323583Y23936D01*
X323447Y23839D01*
X310429Y10821D01*
X308249Y8641D01*
X305492Y7499D01*
X267508Y7499D01*
X264751Y8641D01*
X230003Y43389D01*
X229999Y43392D01*
X229997Y43395D01*
X229917Y43446D01*
X229837Y43499D01*
X229833Y43500D01*
X229830Y43502D01*
X229736Y43518D01*
X229642Y43536D01*
X229638Y43535D01*
X229633Y43535D01*
X229542Y43513D01*
X229448Y43493D01*
X229444Y43490D01*
X229440Y43489D01*
X229364Y43433D01*
X229285Y43378D01*
X229283Y43374D01*
X229280Y43371D01*
X229231Y43290D01*
X229181Y43208D01*
X229181Y43204D01*
X229178Y43200D01*
X229151Y43036D01*
X229151Y42266D01*
X226905Y36844D01*
X222756Y32695D01*
X217334Y30449D01*
X211466Y30449D01*
X210234Y30959D01*
X210232Y30960D01*
X210230Y30961D01*
X210134Y30979D01*
X210039Y30997D01*
X210037Y30997D01*
X210035Y30997D01*
X209939Y30976D01*
X209844Y30956D01*
X209843Y30955D01*
X209841Y30955D01*
X209762Y30898D01*
X209681Y30842D01*
X209680Y30841D01*
X209679Y30839D01*
X209628Y30757D01*
X209576Y30674D01*
X209575Y30672D01*
X209574Y30670D01*
X209560Y30574D01*
X209544Y30478D01*
X209545Y30476D01*
X209544Y30473D01*
X209569Y30379D01*
X209592Y30285D01*
X209593Y30283D01*
X209594Y30281D01*
X209690Y30145D01*
X212532Y27304D01*
X214441Y22695D01*
X214441Y17705D01*
X212532Y13096D01*
X209004Y9568D01*
X204395Y7659D01*
X199405Y7659D01*
X194796Y9568D01*
X191268Y13096D01*
X189359Y17705D01*
X189359Y21926D01*
X189357Y21939D01*
X189359Y21951D01*
X189337Y22035D01*
X189320Y22121D01*
X189313Y22132D01*
X189309Y22144D01*
X189213Y22279D01*
X188541Y22951D01*
X187399Y25708D01*
X187399Y42886D01*
X187397Y42899D01*
X187399Y42911D01*
X187377Y42995D01*
X187360Y43081D01*
X187353Y43092D01*
X187349Y43104D01*
X187253Y43239D01*
X158821Y71671D01*
X156641Y73851D01*
X155499Y76608D01*
X155499Y87500D01*
X155498Y87508D01*
X155499Y87517D01*
X155478Y87605D01*
X155460Y87695D01*
X155455Y87702D01*
X155453Y87710D01*
X155399Y87783D01*
X155347Y87859D01*
X155340Y87863D01*
X155335Y87870D01*
X155257Y87917D01*
X155180Y87966D01*
X155171Y87967D01*
X155164Y87972D01*
X155000Y87999D01*
X142429Y87999D01*
X139499Y90929D01*
X139499Y111071D01*
X141103Y112675D01*
X141110Y112686D01*
X141120Y112693D01*
X141165Y112768D01*
X141213Y112841D01*
X141215Y112853D01*
X141222Y112864D01*
X141249Y113028D01*
X141249Y188936D01*
X141247Y188949D01*
X141249Y188961D01*
X141227Y189045D01*
X141210Y189131D01*
X141203Y189142D01*
X141199Y189154D01*
X141103Y189289D01*
X136439Y193953D01*
X136429Y193960D01*
X136421Y193970D01*
X136346Y194015D01*
X136274Y194063D01*
X136261Y194065D01*
X136250Y194072D01*
X136086Y194099D01*
X132929Y194099D01*
X129999Y197029D01*
X129999Y216200D01*
X130002Y216205D01*
X130053Y216281D01*
X130055Y216289D01*
X130059Y216296D01*
X130073Y216386D01*
X130089Y216476D01*
X130088Y216485D01*
X130089Y216493D01*
X130066Y216581D01*
X130047Y216671D01*
X130042Y216678D01*
X130040Y216686D01*
X129943Y216821D01*
X129441Y217323D01*
X128299Y220080D01*
X128299Y239100D01*
X128298Y239108D01*
X128299Y239117D01*
X128278Y239205D01*
X128260Y239295D01*
X128255Y239302D01*
X128253Y239310D01*
X128199Y239383D01*
X128147Y239459D01*
X128140Y239463D01*
X128135Y239470D01*
X128057Y239517D01*
X127980Y239566D01*
X127971Y239567D01*
X127964Y239572D01*
X127800Y239599D01*
X126229Y239599D01*
X123266Y242561D01*
X123260Y242595D01*
X123255Y242602D01*
X123253Y242610D01*
X123199Y242683D01*
X123147Y242759D01*
X123140Y242763D01*
X123135Y242770D01*
X123057Y242817D01*
X122980Y242866D01*
X122971Y242867D01*
X122964Y242872D01*
X122800Y242899D01*
X118840Y242899D01*
X118832Y242898D01*
X118823Y242899D01*
X118735Y242878D01*
X118645Y242860D01*
X118638Y242855D01*
X118630Y242853D01*
X118557Y242799D01*
X118481Y242747D01*
X118477Y242740D01*
X118470Y242735D01*
X118423Y242657D01*
X118374Y242580D01*
X118373Y242571D01*
X118368Y242564D01*
X118341Y242400D01*
X118341Y238905D01*
X116432Y234296D01*
X112904Y230768D01*
X109024Y229161D01*
X109020Y229159D01*
X109016Y229158D01*
X108938Y229103D01*
X108859Y229050D01*
X108856Y229047D01*
X108853Y229044D01*
X108802Y228963D01*
X108750Y228883D01*
X108749Y228879D01*
X108747Y228876D01*
X108732Y228782D01*
X108715Y228688D01*
X108716Y228683D01*
X108716Y228679D01*
X108738Y228588D01*
X108760Y228494D01*
X108762Y228490D01*
X108763Y228486D01*
X108820Y228410D01*
X108876Y228333D01*
X108880Y228331D01*
X108883Y228327D01*
X109024Y228239D01*
X112904Y226632D01*
X116432Y223104D01*
X118341Y218495D01*
X118341Y213505D01*
X116432Y208896D01*
X112904Y205368D01*
X108295Y203459D01*
X103305Y203459D01*
X98696Y205368D01*
X95168Y208896D01*
X93259Y213505D01*
X93259Y218495D01*
X95168Y223104D01*
X98696Y226632D01*
X102576Y228239D01*
X102580Y228241D01*
X102584Y228242D01*
X102662Y228297D01*
X102741Y228350D01*
X102744Y228353D01*
X102747Y228356D01*
X102798Y228437D01*
X102850Y228517D01*
X102851Y228521D01*
X102853Y228524D01*
X102868Y228618D01*
X102885Y228712D01*
X102884Y228716D01*
X102884Y228721D01*
X102862Y228812D01*
X102840Y228906D01*
X102838Y228910D01*
X102837Y228914D01*
X102780Y228990D01*
X102724Y229067D01*
X102720Y229069D01*
X102717Y229073D01*
X102576Y229161D01*
X98696Y230768D01*
X95168Y234296D01*
X93259Y238905D01*
X93259Y243895D01*
X95168Y248504D01*
X98696Y252032D01*
X102576Y253639D01*
X102580Y253641D01*
X102584Y253642D01*
X102662Y253697D01*
X102741Y253750D01*
X102744Y253753D01*
X102747Y253756D01*
X102798Y253837D01*
X102850Y253917D01*
X102851Y253921D01*
X102853Y253924D01*
X102868Y254018D01*
X102885Y254112D01*
X102884Y254116D01*
X102884Y254121D01*
X102862Y254212D01*
X102840Y254306D01*
X102838Y254310D01*
X102837Y254314D01*
X102780Y254390D01*
X102724Y254467D01*
X102720Y254469D01*
X102717Y254473D01*
X102576Y254561D01*
X98696Y256168D01*
X95168Y259696D01*
X93259Y264305D01*
X93259Y269295D01*
X95168Y273904D01*
X98696Y277432D01*
X102576Y279039D01*
X102580Y279041D01*
X102584Y279042D01*
X102662Y279097D01*
X102741Y279150D01*
X102744Y279153D01*
X102747Y279156D01*
X102798Y279237D01*
X102850Y279317D01*
X102851Y279321D01*
X102853Y279324D01*
X102868Y279418D01*
X102885Y279512D01*
X102884Y279516D01*
X102884Y279521D01*
X102862Y279612D01*
X102840Y279706D01*
X102838Y279710D01*
X102837Y279714D01*
X102780Y279790D01*
X102724Y279867D01*
X102720Y279869D01*
X102717Y279873D01*
X102576Y279961D01*
X98696Y281568D01*
X95168Y285096D01*
X93259Y289705D01*
X93259Y294695D01*
X95168Y299304D01*
X98696Y302832D01*
X102576Y304439D01*
X102580Y304441D01*
X102584Y304442D01*
X102662Y304497D01*
X102741Y304550D01*
X102744Y304553D01*
X102747Y304556D01*
X102798Y304637D01*
X102850Y304717D01*
X102851Y304721D01*
X102853Y304724D01*
X102868Y304818D01*
X102885Y304912D01*
X102884Y304916D01*
X102884Y304921D01*
X102862Y305012D01*
X102840Y305106D01*
X102838Y305110D01*
X102837Y305114D01*
X102780Y305190D01*
X102724Y305267D01*
X102720Y305269D01*
X102717Y305273D01*
X102576Y305361D01*
X98696Y306968D01*
X95168Y310496D01*
X93259Y315105D01*
X93259Y320095D01*
X95168Y324704D01*
X98696Y328232D01*
X102576Y329839D01*
X102580Y329841D01*
X102584Y329842D01*
X102662Y329897D01*
X102741Y329950D01*
X102744Y329953D01*
X102747Y329956D01*
X102798Y330037D01*
X102850Y330117D01*
X102851Y330121D01*
X102853Y330124D01*
X102868Y330218D01*
X102885Y330312D01*
X102884Y330317D01*
X102884Y330321D01*
X102862Y330412D01*
X102840Y330506D01*
X102838Y330510D01*
X102837Y330514D01*
X102780Y330590D01*
X102724Y330667D01*
X102720Y330669D01*
X102717Y330673D01*
X102576Y330761D01*
X98696Y332368D01*
X95168Y335896D01*
X93259Y340505D01*
X93259Y345495D01*
X95168Y350104D01*
X98696Y353632D01*
X102576Y355239D01*
X102580Y355241D01*
X102584Y355242D01*
X102662Y355297D01*
X102741Y355350D01*
X102744Y355353D01*
X102747Y355356D01*
X102798Y355437D01*
X102850Y355517D01*
X102851Y355521D01*
X102853Y355524D01*
X102868Y355618D01*
X102885Y355712D01*
X102884Y355716D01*
X102884Y355721D01*
X102862Y355812D01*
X102840Y355906D01*
X102838Y355910D01*
X102837Y355914D01*
X102780Y355990D01*
X102724Y356067D01*
X102720Y356069D01*
X102717Y356073D01*
X102576Y356161D01*
X98696Y357768D01*
X95168Y361296D01*
X93259Y365905D01*
X93259Y369446D01*
X93258Y369450D01*
X93259Y369455D01*
X93239Y369548D01*
X93220Y369641D01*
X93217Y369645D01*
X93216Y369649D01*
X93161Y369727D01*
X93107Y369805D01*
X93104Y369807D01*
X93101Y369811D01*
X93020Y369861D01*
X92940Y369912D01*
X92935Y369913D01*
X92932Y369915D01*
X92838Y369929D01*
X92743Y369945D01*
X92739Y369944D01*
X92735Y369945D01*
X92643Y369921D01*
X92550Y369899D01*
X92547Y369897D01*
X92543Y369896D01*
X92407Y369799D01*
X65847Y343239D01*
X65840Y343229D01*
X65830Y343221D01*
X65785Y343146D01*
X65737Y343074D01*
X65735Y343061D01*
X65728Y343050D01*
X65701Y342886D01*
X65701Y269628D01*
X65702Y269624D01*
X65701Y269620D01*
X65721Y269527D01*
X65740Y269433D01*
X65743Y269430D01*
X65744Y269426D01*
X65799Y269348D01*
X65853Y269269D01*
X65856Y269267D01*
X65859Y269264D01*
X65940Y269214D01*
X66020Y269162D01*
X66025Y269162D01*
X66028Y269159D01*
X66122Y269145D01*
X66217Y269129D01*
X66221Y269130D01*
X66225Y269129D01*
X66317Y269153D01*
X66410Y269175D01*
X66413Y269178D01*
X66417Y269179D01*
X66553Y269275D01*
X70931Y273653D01*
X83069Y273653D01*
X91653Y265069D01*
X91653Y252931D01*
X84847Y246125D01*
X84840Y246114D01*
X84830Y246107D01*
X84785Y246032D01*
X84737Y245959D01*
X84735Y245947D01*
X84728Y245936D01*
X84701Y245772D01*
X84701Y242400D01*
X84702Y242392D01*
X84701Y242383D01*
X84722Y242295D01*
X84740Y242205D01*
X84745Y242198D01*
X84747Y242190D01*
X84801Y242117D01*
X84853Y242041D01*
X84860Y242037D01*
X84865Y242030D01*
X84943Y241983D01*
X85020Y241934D01*
X85029Y241933D01*
X85036Y241928D01*
X85200Y241901D01*
X85771Y241901D01*
X88701Y238971D01*
X88701Y219829D01*
X85771Y216899D01*
X68629Y216899D01*
X68053Y217475D01*
X68046Y217479D01*
X68041Y217486D01*
X67963Y217534D01*
X67887Y217585D01*
X67879Y217586D01*
X67872Y217591D01*
X67782Y217604D01*
X67692Y217621D01*
X67684Y217619D01*
X67675Y217620D01*
X67587Y217598D01*
X67498Y217578D01*
X67491Y217573D01*
X67483Y217571D01*
X67347Y217475D01*
X66771Y216899D01*
X49629Y216899D01*
X46699Y219829D01*
X46699Y238971D01*
X49629Y241901D01*
X50200Y241901D01*
X50208Y241902D01*
X50217Y241901D01*
X50305Y241922D01*
X50395Y241940D01*
X50402Y241945D01*
X50410Y241947D01*
X50483Y242001D01*
X50559Y242053D01*
X50563Y242060D01*
X50570Y242065D01*
X50617Y242143D01*
X50666Y242220D01*
X50667Y242229D01*
X50672Y242236D01*
X50699Y242400D01*
X50699Y347692D01*
X51841Y350449D01*
X93113Y391721D01*
X93120Y391731D01*
X93130Y391739D01*
X93175Y391814D01*
X93223Y391886D01*
X93225Y391899D01*
X93232Y391910D01*
X93259Y392074D01*
X93259Y394846D01*
X93258Y394850D01*
X93259Y394855D01*
X93239Y394948D01*
X93220Y395041D01*
X93217Y395045D01*
X93216Y395049D01*
X93161Y395127D01*
X93107Y395205D01*
X93104Y395207D01*
X93101Y395211D01*
X93020Y395261D01*
X92940Y395312D01*
X92935Y395313D01*
X92932Y395315D01*
X92838Y395329D01*
X92743Y395345D01*
X92739Y395344D01*
X92735Y395345D01*
X92643Y395321D01*
X92550Y395299D01*
X92547Y395297D01*
X92543Y395296D01*
X92407Y395199D01*
X44647Y347439D01*
X44640Y347429D01*
X44630Y347421D01*
X44585Y347346D01*
X44537Y347274D01*
X44535Y347261D01*
X44528Y347250D01*
X44501Y347086D01*
X44501Y103814D01*
X44503Y103801D01*
X44501Y103789D01*
X44523Y103705D01*
X44540Y103619D01*
X44547Y103608D01*
X44551Y103596D01*
X44647Y103461D01*
X55861Y92247D01*
X55871Y92240D01*
X55879Y92230D01*
X55954Y92185D01*
X56026Y92137D01*
X56039Y92135D01*
X56050Y92128D01*
X56214Y92101D01*
X66471Y92101D01*
X67047Y91525D01*
X67054Y91520D01*
X67059Y91514D01*
X67137Y91466D01*
X67213Y91415D01*
X67221Y91414D01*
X67228Y91409D01*
X67318Y91396D01*
X67408Y91379D01*
X67417Y91381D01*
X67425Y91380D01*
X67513Y91402D01*
X67602Y91422D01*
X67609Y91427D01*
X67617Y91429D01*
X67753Y91525D01*
X68329Y92101D01*
X85471Y92101D01*
X88401Y89171D01*
X88401Y70029D01*
X85471Y67099D01*
X85000Y67099D01*
X84992Y67098D01*
X84983Y67099D01*
X84895Y67078D01*
X84805Y67060D01*
X84798Y67055D01*
X84790Y67053D01*
X84717Y66999D01*
X84641Y66947D01*
X84637Y66940D01*
X84630Y66935D01*
X84583Y66857D01*
X84534Y66780D01*
X84533Y66771D01*
X84528Y66764D01*
X84501Y66600D01*
X84501Y62428D01*
X84503Y62416D01*
X84501Y62403D01*
X84523Y62319D01*
X84540Y62233D01*
X84547Y62223D01*
X84551Y62211D01*
X84647Y62075D01*
X91653Y55069D01*
X91653Y42931D01*
X83069Y34347D01*
X70931Y34347D01*
X62347Y42931D01*
X62347Y55069D01*
X69353Y62075D01*
X69360Y62086D01*
X69370Y62093D01*
X69415Y62168D01*
X69463Y62241D01*
X69465Y62253D01*
X69472Y62264D01*
X69499Y62428D01*
X69499Y66600D01*
X69498Y66608D01*
X69499Y66617D01*
X69478Y66705D01*
X69460Y66795D01*
X69455Y66802D01*
X69453Y66810D01*
X69399Y66883D01*
X69347Y66959D01*
X69340Y66963D01*
X69335Y66970D01*
X69257Y67017D01*
X69180Y67066D01*
X69171Y67067D01*
X69164Y67072D01*
X69000Y67099D01*
X68329Y67099D01*
X67753Y67675D01*
X67746Y67679D01*
X67741Y67686D01*
X67663Y67734D01*
X67587Y67785D01*
X67579Y67786D01*
X67572Y67791D01*
X67482Y67804D01*
X67392Y67821D01*
X67384Y67819D01*
X67375Y67820D01*
X67287Y67798D01*
X67198Y67778D01*
X67191Y67773D01*
X67183Y67771D01*
X67047Y67675D01*
X66471Y67099D01*
X49329Y67099D01*
X46399Y70029D01*
X46399Y80286D01*
X46397Y80299D01*
X46399Y80311D01*
X46377Y80395D01*
X46360Y80481D01*
X46353Y80492D01*
X46349Y80504D01*
X46253Y80639D01*
X30641Y96251D01*
X29499Y99008D01*
X29499Y351892D01*
X30641Y354649D01*
X93113Y417121D01*
X93120Y417131D01*
X93130Y417139D01*
X93175Y417214D01*
X93223Y417286D01*
X93225Y417299D01*
X93232Y417310D01*
X93259Y417474D01*
X93259Y421695D01*
X95168Y426304D01*
X98696Y429832D01*
X102576Y431439D01*
X102580Y431441D01*
X102584Y431442D01*
X102662Y431496D01*
X102741Y431550D01*
X102744Y431553D01*
X102747Y431556D01*
X102797Y431636D01*
X102850Y431717D01*
X102851Y431721D01*
X102853Y431724D01*
X102868Y431818D01*
X102885Y431912D01*
X102884Y431916D01*
X102884Y431921D01*
X102862Y432012D01*
X102840Y432106D01*
X102838Y432110D01*
X102837Y432114D01*
X102780Y432189D01*
X102724Y432267D01*
X102720Y432269D01*
X102717Y432273D01*
X102576Y432361D01*
X102094Y432561D01*
X102079Y432564D01*
X102067Y432572D01*
X101903Y432599D01*
X89600Y432599D01*
X89592Y432598D01*
X89583Y432599D01*
X89495Y432578D01*
X89405Y432560D01*
X89398Y432555D01*
X89390Y432553D01*
X89317Y432499D01*
X89241Y432447D01*
X89237Y432440D01*
X89230Y432435D01*
X89183Y432357D01*
X89134Y432280D01*
X89133Y432271D01*
X89128Y432264D01*
X89101Y432100D01*
X89101Y430529D01*
X86171Y427599D01*
X69029Y427599D01*
X68453Y428175D01*
X68446Y428180D01*
X68441Y428186D01*
X68363Y428234D01*
X68287Y428285D01*
X68279Y428286D01*
X68272Y428291D01*
X68182Y428304D01*
X68092Y428321D01*
X68083Y428319D01*
X68075Y428320D01*
X67987Y428298D01*
X67898Y428278D01*
X67891Y428273D01*
X67883Y428271D01*
X67747Y428175D01*
X67171Y427599D01*
X50029Y427599D01*
X47099Y430529D01*
X47099Y449671D01*
X50029Y452601D01*
X57692Y452601D01*
X57752Y452613D01*
X57813Y452615D01*
X57848Y452632D01*
X57887Y452640D01*
X57937Y452675D01*
X57992Y452701D01*
X58024Y452734D01*
X58051Y452753D01*
X58071Y452784D01*
X58107Y452822D01*
X63642Y461066D01*
X63665Y461122D01*
X63667Y461126D01*
X63674Y461136D01*
X63696Y461173D01*
X63702Y461213D01*
X63718Y461250D01*
X63717Y461310D01*
X63726Y461369D01*
X63716Y461408D01*
X63716Y461449D01*
X63692Y461504D01*
X63677Y461562D01*
X63650Y461600D01*
X63636Y461631D01*
X63610Y461656D01*
X63580Y461698D01*
X62347Y462931D01*
X62347Y470208D01*
X62346Y470212D01*
X62347Y470216D01*
X62327Y470310D01*
X62308Y470403D01*
X62305Y470406D01*
X62304Y470410D01*
X62249Y470488D01*
X62195Y470567D01*
X62192Y470569D01*
X62189Y470573D01*
X62108Y470622D01*
X62028Y470674D01*
X62023Y470675D01*
X62020Y470677D01*
X61926Y470691D01*
X61831Y470707D01*
X61827Y470706D01*
X61823Y470707D01*
X61731Y470683D01*
X61638Y470661D01*
X61635Y470658D01*
X61631Y470657D01*
X61495Y470561D01*
X49475Y458541D01*
X46718Y457399D01*
X41278Y457399D01*
X41266Y457397D01*
X41253Y457399D01*
X41169Y457377D01*
X41083Y457360D01*
X41073Y457353D01*
X41061Y457349D01*
X40925Y457253D01*
X39071Y455399D01*
X26929Y455399D01*
X23999Y458329D01*
X23999Y471471D01*
X26929Y474401D01*
X39071Y474401D01*
X40925Y472547D01*
X40936Y472540D01*
X40943Y472530D01*
X41018Y472486D01*
X41091Y472437D01*
X41103Y472435D01*
X41114Y472428D01*
X41278Y472401D01*
X41913Y472401D01*
X41925Y472403D01*
X41937Y472401D01*
X42022Y472423D01*
X42107Y472440D01*
X42118Y472447D01*
X42130Y472451D01*
X42266Y472547D01*
X47899Y478180D01*
X47937Y478238D01*
X47982Y478291D01*
X47991Y478320D01*
X48008Y478346D01*
X48021Y478414D01*
X48042Y478480D01*
X48039Y478511D01*
X48045Y478541D01*
X48030Y478609D01*
X48023Y478678D01*
X48009Y478705D01*
X48002Y478735D01*
X47962Y478792D01*
X47929Y478853D01*
X47905Y478872D01*
X47887Y478897D01*
X47828Y478934D01*
X47773Y478977D01*
X47744Y478986D01*
X47717Y479002D01*
X47649Y479012D01*
X47582Y479031D01*
X47547Y479028D01*
X47521Y479032D01*
X47480Y479021D01*
X47416Y479015D01*
X46834Y478859D01*
X43499Y478859D01*
X43499Y484901D01*
X49041Y484901D01*
X49041Y481066D01*
X48885Y480484D01*
X48881Y480414D01*
X48868Y480346D01*
X48875Y480316D01*
X48873Y480285D01*
X48896Y480220D01*
X48911Y480152D01*
X48929Y480127D01*
X48939Y480098D01*
X48986Y480046D01*
X49026Y479990D01*
X49052Y479974D01*
X49073Y479951D01*
X49136Y479922D01*
X49195Y479886D01*
X49226Y479881D01*
X49254Y479868D01*
X49323Y479866D01*
X49392Y479856D01*
X49422Y479863D01*
X49453Y479863D01*
X49517Y479888D01*
X49584Y479905D01*
X49613Y479925D01*
X49638Y479935D01*
X49668Y479964D01*
X49720Y480001D01*
X67145Y497427D01*
X67150Y497434D01*
X67157Y497438D01*
X67205Y497516D01*
X67255Y497592D01*
X67257Y497601D01*
X67261Y497608D01*
X67275Y497698D01*
X67291Y497788D01*
X67290Y497796D01*
X67291Y497804D01*
X67268Y497892D01*
X67249Y497982D01*
X67244Y497989D01*
X67242Y497997D01*
X67145Y498133D01*
X62347Y502931D01*
X62347Y515179D01*
X62346Y515183D01*
X62347Y515187D01*
X62327Y515281D01*
X62308Y515374D01*
X62305Y515377D01*
X62304Y515381D01*
X62249Y515459D01*
X62195Y515538D01*
X62192Y515540D01*
X62189Y515543D01*
X62108Y515593D01*
X62028Y515645D01*
X62023Y515646D01*
X62020Y515648D01*
X61926Y515662D01*
X61831Y515678D01*
X61827Y515677D01*
X61823Y515678D01*
X61731Y515654D01*
X61638Y515632D01*
X61635Y515629D01*
X61631Y515628D01*
X61495Y515532D01*
X44604Y498641D01*
X41847Y497499D01*
X31500Y497499D01*
X31492Y497498D01*
X31483Y497499D01*
X31395Y497478D01*
X31305Y497460D01*
X31298Y497455D01*
X31290Y497453D01*
X31217Y497399D01*
X31141Y497347D01*
X31137Y497340D01*
X31130Y497335D01*
X31083Y497257D01*
X31034Y497180D01*
X31033Y497171D01*
X31028Y497164D01*
X31001Y497000D01*
X31001Y494178D01*
X31003Y494166D01*
X31001Y494153D01*
X31023Y494069D01*
X31040Y493983D01*
X31047Y493973D01*
X31051Y493961D01*
X31147Y493825D01*
X32501Y492471D01*
X32501Y479329D01*
X29571Y476399D01*
X17429Y476399D01*
X14499Y479329D01*
X14499Y492471D01*
X15853Y493825D01*
X15860Y493836D01*
X15870Y493843D01*
X15914Y493918D01*
X15963Y493991D01*
X15965Y494003D01*
X15972Y494014D01*
X15999Y494178D01*
X15999Y501992D01*
X17141Y504749D01*
X21571Y509179D01*
X22927Y510534D01*
X22930Y510539D01*
X22935Y510543D01*
X22985Y510622D01*
X23036Y510700D01*
X23037Y510706D01*
X23041Y510711D01*
X23055Y510803D01*
X23073Y510895D01*
X23071Y510902D01*
X23072Y510908D01*
X23050Y510998D01*
X23030Y511090D01*
X23026Y511095D01*
X23025Y511101D01*
X22969Y511176D01*
X22915Y511252D01*
X22909Y511255D01*
X22905Y511260D01*
X22765Y511348D01*
X18670Y513044D01*
X13044Y518670D01*
X9999Y526022D01*
X9999Y533978D01*
X13044Y541330D01*
X18670Y546956D01*
X26022Y550001D01*
X33978Y550001D01*
X41330Y546956D01*
X46956Y541330D01*
X50001Y533978D01*
X50001Y526458D01*
X50002Y526454D01*
X50001Y526450D01*
X50021Y526357D01*
X50040Y526263D01*
X50043Y526260D01*
X50044Y526256D01*
X50099Y526178D01*
X50153Y526099D01*
X50156Y526097D01*
X50159Y526094D01*
X50240Y526044D01*
X50320Y525992D01*
X50325Y525992D01*
X50328Y525990D01*
X50422Y525975D01*
X50517Y525959D01*
X50521Y525960D01*
X50525Y525960D01*
X50617Y525983D01*
X50710Y526005D01*
X50713Y526008D01*
X50717Y526009D01*
X50853Y526105D01*
X56926Y532179D01*
X59107Y534359D01*
X61863Y535501D01*
X82586Y535501D01*
X82599Y535503D01*
X82611Y535501D01*
X82695Y535523D01*
X82781Y535540D01*
X82792Y535547D01*
X82804Y535551D01*
X82939Y535647D01*
X93751Y546459D01*
X96508Y547601D01*
X120200Y547601D01*
X120208Y547602D01*
X120217Y547601D01*
X120305Y547622D01*
X120395Y547640D01*
X120402Y547645D01*
X120410Y547647D01*
X120483Y547701D01*
X120559Y547753D01*
X120563Y547760D01*
X120570Y547765D01*
X120617Y547843D01*
X120666Y547920D01*
X120667Y547929D01*
X120672Y547936D01*
X120699Y548100D01*
X120699Y548671D01*
X123629Y551601D01*
X142771Y551601D01*
X145701Y548671D01*
X145701Y531529D01*
X145125Y530953D01*
X145120Y530946D01*
X145114Y530941D01*
X145066Y530863D01*
X145015Y530787D01*
X145014Y530779D01*
X145009Y530772D01*
X144996Y530682D01*
X144979Y530592D01*
X144981Y530583D01*
X144980Y530575D01*
X145002Y530487D01*
X145022Y530398D01*
X145027Y530391D01*
X145029Y530383D01*
X145125Y530247D01*
X145701Y529671D01*
X145701Y512529D01*
X142771Y509599D01*
X123629Y509599D01*
X120699Y512529D01*
X120699Y512800D01*
X120698Y512808D01*
X120699Y512817D01*
X120678Y512905D01*
X120660Y512995D01*
X120655Y513002D01*
X120653Y513010D01*
X120599Y513083D01*
X120547Y513159D01*
X120540Y513163D01*
X120535Y513170D01*
X120457Y513217D01*
X120380Y513266D01*
X120371Y513267D01*
X120364Y513272D01*
X120200Y513299D01*
X116241Y513299D01*
X116229Y513297D01*
X116217Y513299D01*
X116132Y513277D01*
X116046Y513260D01*
X116036Y513253D01*
X116024Y513249D01*
X115888Y513153D01*
X112904Y510168D01*
X109024Y508561D01*
X109020Y508559D01*
X109016Y508558D01*
X108938Y508503D01*
X108859Y508450D01*
X108856Y508447D01*
X108853Y508444D01*
X108802Y508363D01*
X108750Y508283D01*
X108750Y508279D01*
X108747Y508276D01*
X108732Y508182D01*
X108716Y508088D01*
X108716Y508083D01*
X108716Y508079D01*
X108738Y507988D01*
X108760Y507894D01*
X108762Y507890D01*
X108763Y507886D01*
X108820Y507810D01*
X108876Y507733D01*
X108880Y507731D01*
X108883Y507727D01*
X109024Y507639D01*
X112904Y506032D01*
X116432Y502504D01*
X118341Y497895D01*
X118341Y492905D01*
X116432Y488296D01*
X112904Y484768D01*
X109024Y483161D01*
X109020Y483159D01*
X109016Y483158D01*
X108938Y483103D01*
X108859Y483050D01*
X108856Y483047D01*
X108853Y483044D01*
X108802Y482963D01*
X108750Y482883D01*
X108749Y482879D01*
X108747Y482876D01*
X108732Y482782D01*
X108715Y482688D01*
X108716Y482683D01*
X108716Y482679D01*
X108738Y482588D01*
X108760Y482494D01*
X108762Y482490D01*
X108763Y482486D01*
X108820Y482410D01*
X108876Y482333D01*
X108880Y482331D01*
X108883Y482327D01*
X109024Y482239D01*
X112904Y480632D01*
X116432Y477104D01*
X118341Y472495D01*
X118341Y467505D01*
X116432Y462896D01*
X112904Y459368D01*
X109024Y457761D01*
X109020Y457759D01*
X109016Y457758D01*
X108938Y457703D01*
X108859Y457650D01*
X108856Y457647D01*
X108853Y457644D01*
X108802Y457563D01*
X108750Y457483D01*
X108749Y457479D01*
X108747Y457476D01*
X108732Y457382D01*
X108715Y457288D01*
X108716Y457283D01*
X108716Y457279D01*
X108738Y457188D01*
X108760Y457094D01*
X108762Y457090D01*
X108763Y457086D01*
X108820Y457010D01*
X108876Y456933D01*
X108880Y456931D01*
X108883Y456927D01*
X109024Y456839D01*
X112904Y455232D01*
X116432Y451704D01*
X118341Y447095D01*
X118341Y442105D01*
X116432Y437496D01*
X112904Y433968D01*
X109024Y432361D01*
X109020Y432359D01*
X109016Y432358D01*
X108938Y432303D01*
X108859Y432250D01*
X108856Y432247D01*
X108853Y432244D01*
X108802Y432163D01*
X108750Y432083D01*
X108749Y432079D01*
X108747Y432076D01*
X108732Y431982D01*
X108715Y431888D01*
X108716Y431883D01*
X108716Y431879D01*
X108738Y431788D01*
X108760Y431694D01*
X108762Y431690D01*
X108763Y431686D01*
X108820Y431610D01*
X108876Y431533D01*
X108880Y431531D01*
X108883Y431527D01*
X109024Y431439D01*
X112904Y429832D01*
X116432Y426304D01*
X118341Y421695D01*
X118341Y416705D01*
X116432Y412096D01*
X112904Y408568D01*
X109024Y406961D01*
X109020Y406959D01*
X109016Y406958D01*
X108938Y406903D01*
X108859Y406850D01*
X108856Y406847D01*
X108853Y406844D01*
X108802Y406763D01*
X108750Y406683D01*
X108749Y406679D01*
X108747Y406676D01*
X108732Y406582D01*
X108715Y406488D01*
X108716Y406484D01*
X108716Y406479D01*
X108738Y406388D01*
X108760Y406294D01*
X108762Y406290D01*
X108763Y406286D01*
X108820Y406210D01*
X108876Y406133D01*
X108880Y406131D01*
X108883Y406127D01*
X109024Y406039D01*
X112904Y404432D01*
X116432Y400904D01*
X118341Y396295D01*
X118341Y391305D01*
X116432Y386696D01*
X112904Y383168D01*
X109024Y381561D01*
X109020Y381559D01*
X109016Y381558D01*
X108938Y381503D01*
X108859Y381450D01*
X108856Y381447D01*
X108853Y381444D01*
X108802Y381363D01*
X108750Y381283D01*
X108749Y381279D01*
X108747Y381276D01*
X108732Y381182D01*
X108715Y381088D01*
X108716Y381083D01*
X108716Y381079D01*
X108738Y380988D01*
X108760Y380894D01*
X108762Y380890D01*
X108763Y380886D01*
X108820Y380810D01*
X108876Y380733D01*
X108880Y380731D01*
X108883Y380727D01*
X109024Y380639D01*
X112904Y379032D01*
X116432Y375504D01*
X118341Y370895D01*
X118341Y365905D01*
X116432Y361296D01*
X112904Y357768D01*
X109024Y356161D01*
X109020Y356159D01*
X109016Y356158D01*
X108938Y356103D01*
X108859Y356050D01*
X108856Y356047D01*
X108853Y356044D01*
X108802Y355963D01*
X108750Y355883D01*
X108749Y355879D01*
X108747Y355876D01*
X108732Y355782D01*
X108715Y355688D01*
X108716Y355683D01*
X108716Y355679D01*
X108738Y355588D01*
X108760Y355494D01*
X108762Y355490D01*
X108763Y355486D01*
X108820Y355410D01*
X108876Y355333D01*
X108880Y355331D01*
X108883Y355327D01*
X109024Y355239D01*
X112904Y353632D01*
X116432Y350104D01*
X118341Y345495D01*
X118341Y341274D01*
X118343Y341261D01*
X118341Y341249D01*
X118363Y341165D01*
X118380Y341079D01*
X118387Y341068D01*
X118391Y341056D01*
X118487Y340921D01*
X121761Y337647D01*
X121771Y337640D01*
X121778Y337630D01*
X121779Y337630D01*
X121854Y337585D01*
X121926Y337537D01*
X121939Y337535D01*
X121950Y337528D01*
X122114Y337501D01*
X168292Y337501D01*
X171049Y336359D01*
X184359Y323049D01*
X185501Y320292D01*
X185501Y140314D01*
X185503Y140301D01*
X185501Y140289D01*
X185523Y140205D01*
X185540Y140119D01*
X185547Y140108D01*
X185551Y140096D01*
X185647Y139961D01*
X201359Y124249D01*
X202501Y121492D01*
X202501Y110314D01*
X202503Y110301D01*
X202501Y110289D01*
X202523Y110205D01*
X202540Y110119D01*
X202547Y110108D01*
X202551Y110096D01*
X202647Y109961D01*
X277961Y34647D01*
X277971Y34640D01*
X277979Y34630D01*
X278054Y34585D01*
X278126Y34537D01*
X278139Y34535D01*
X278150Y34528D01*
X278314Y34501D01*
X279572Y34501D01*
X279576Y34502D01*
X279580Y34501D01*
X279673Y34521D01*
X279767Y34540D01*
X279770Y34543D01*
X279774Y34544D01*
X279852Y34599D01*
X279931Y34653D01*
X279933Y34656D01*
X279936Y34659D01*
X279986Y34740D01*
X280038Y34820D01*
X280038Y34825D01*
X280041Y34828D01*
X280055Y34922D01*
X280071Y35017D01*
X280070Y35021D01*
X280071Y35025D01*
X280047Y35117D01*
X280025Y35210D01*
X280022Y35213D01*
X280021Y35217D01*
X279925Y35353D01*
X272347Y42931D01*
X272347Y55069D01*
X280931Y63653D01*
X291638Y63653D01*
X291651Y63655D01*
X291663Y63653D01*
X291747Y63675D01*
X291833Y63692D01*
X291844Y63699D01*
X291856Y63703D01*
X291991Y63799D01*
X294439Y66247D01*
X294442Y66251D01*
X294445Y66253D01*
X294496Y66333D01*
X294549Y66413D01*
X294550Y66417D01*
X294552Y66420D01*
X294568Y66514D01*
X294586Y66608D01*
X294585Y66612D01*
X294585Y66617D01*
X294563Y66708D01*
X294543Y66802D01*
X294540Y66806D01*
X294539Y66810D01*
X294483Y66886D01*
X294428Y66965D01*
X294424Y66967D01*
X294421Y66970D01*
X294340Y67019D01*
X294258Y67069D01*
X294254Y67069D01*
X294250Y67072D01*
X294086Y67099D01*
X276829Y67099D01*
X273899Y70029D01*
X273899Y89171D01*
X276707Y91979D01*
X276712Y91986D01*
X276719Y91991D01*
X276766Y92068D01*
X276817Y92145D01*
X276818Y92153D01*
X276823Y92160D01*
X276837Y92250D01*
X276853Y92340D01*
X276851Y92349D01*
X276853Y92357D01*
X276830Y92445D01*
X276810Y92535D01*
X276806Y92542D01*
X276804Y92550D01*
X276707Y92685D01*
X200821Y168571D01*
X198641Y170751D01*
X197499Y173508D01*
X197499Y329492D01*
X198641Y332249D01*
X231553Y365161D01*
X231560Y365171D01*
X231570Y365179D01*
X231615Y365254D01*
X231663Y365326D01*
X231665Y365339D01*
X231672Y365350D01*
X231699Y365514D01*
X231699Y477892D01*
X232841Y480649D01*
X245513Y493321D01*
X245520Y493331D01*
X245530Y493339D01*
X245575Y493414D01*
X245623Y493486D01*
X245625Y493499D01*
X245632Y493510D01*
X245659Y493674D01*
X245659Y497543D01*
X245658Y497549D01*
X245659Y497555D01*
X245638Y497646D01*
X245620Y497738D01*
X245616Y497743D01*
X245615Y497749D01*
X245560Y497825D01*
X245507Y497902D01*
X245502Y497905D01*
X245498Y497910D01*
X245418Y497958D01*
X245340Y498009D01*
X245333Y498010D01*
X245328Y498013D01*
X245236Y498026D01*
X245143Y498042D01*
X245137Y498040D01*
X245131Y498041D01*
X244969Y498004D01*
X244209Y497689D01*
X244200Y497683D01*
X244190Y497681D01*
X244118Y497628D01*
X244044Y497578D01*
X244038Y497569D01*
X244030Y497563D01*
X243985Y497486D01*
X243936Y497411D01*
X243934Y497401D01*
X243928Y497392D01*
X243901Y497228D01*
X243901Y496529D01*
X240971Y493599D01*
X221829Y493599D01*
X218899Y496529D01*
X218899Y513671D01*
X219475Y514247D01*
X219479Y514254D01*
X219486Y514259D01*
X219534Y514337D01*
X219585Y514413D01*
X219586Y514421D01*
X219591Y514428D01*
X219604Y514518D01*
X219621Y514608D01*
X219619Y514616D01*
X219620Y514625D01*
X219598Y514713D01*
X219578Y514802D01*
X219573Y514809D01*
X219571Y514817D01*
X219475Y514953D01*
X218899Y515529D01*
X218899Y532671D01*
X221829Y535601D01*
X231086Y535601D01*
X231099Y535603D01*
X231111Y535601D01*
X231195Y535623D01*
X231281Y535640D01*
X231292Y535647D01*
X231304Y535651D01*
X231439Y535747D01*
X235339Y539647D01*
X235342Y539651D01*
X235345Y539653D01*
X235396Y539733D01*
X235449Y539813D01*
X235450Y539817D01*
X235452Y539820D01*
X235468Y539914D01*
X235486Y540008D01*
X235485Y540012D01*
X235485Y540017D01*
X235463Y540108D01*
X235443Y540202D01*
X235440Y540206D01*
X235439Y540210D01*
X235383Y540286D01*
X235328Y540365D01*
X235324Y540367D01*
X235321Y540370D01*
X235240Y540419D01*
X235158Y540469D01*
X235154Y540469D01*
X235150Y540472D01*
X234986Y540499D01*
X224314Y540499D01*
X224301Y540497D01*
X224289Y540499D01*
X224205Y540477D01*
X224119Y540460D01*
X224108Y540453D01*
X224096Y540449D01*
X223961Y540353D01*
X151647Y468039D01*
X151640Y468029D01*
X151630Y468021D01*
X151585Y467946D01*
X151537Y467874D01*
X151535Y467861D01*
X151528Y467850D01*
X151501Y467686D01*
X151501Y369500D01*
X151502Y369492D01*
X151501Y369483D01*
X151522Y369395D01*
X151540Y369305D01*
X151545Y369298D01*
X151547Y369290D01*
X151601Y369217D01*
X151653Y369141D01*
X151660Y369137D01*
X151665Y369130D01*
X151743Y369083D01*
X151820Y369034D01*
X151829Y369033D01*
X151836Y369028D01*
X152000Y369001D01*
X162071Y369001D01*
X165001Y366071D01*
X165001Y351929D01*
X162071Y348999D01*
X125929Y348999D01*
X122999Y351929D01*
X122999Y366071D01*
X125929Y369001D01*
X136000Y369001D01*
X136008Y369002D01*
X136017Y369001D01*
X136105Y369022D01*
X136195Y369040D01*
X136202Y369045D01*
X136210Y369047D01*
X136283Y369101D01*
X136359Y369153D01*
X136363Y369160D01*
X136370Y369165D01*
X136417Y369243D01*
X136466Y369320D01*
X136467Y369329D01*
X136472Y369336D01*
X136499Y369500D01*
X136499Y472492D01*
X137641Y475249D01*
X139821Y477429D01*
X216539Y554147D01*
X216542Y554151D01*
X216545Y554153D01*
X216596Y554233D01*
X216649Y554313D01*
X216650Y554317D01*
X216652Y554320D01*
X216668Y554414D01*
X216686Y554508D01*
X216685Y554512D01*
X216685Y554517D01*
X216663Y554608D01*
X216643Y554702D01*
X216640Y554706D01*
X216639Y554710D01*
X216583Y554786D01*
X216528Y554865D01*
X216524Y554867D01*
X216521Y554870D01*
X216440Y554919D01*
X216358Y554969D01*
X216354Y554969D01*
X216350Y554972D01*
X216186Y554999D01*
X5500Y554999D01*
X5492Y554998D01*
X5483Y554999D01*
X5395Y554978D01*
X5305Y554960D01*
X5298Y554955D01*
X5290Y554953D01*
X5217Y554899D01*
X5141Y554847D01*
X5137Y554840D01*
X5130Y554835D01*
X5083Y554757D01*
X5034Y554680D01*
X5033Y554671D01*
X5028Y554664D01*
X5001Y554500D01*
X5001Y5500D01*
X5002Y5492D01*
X5001Y5483D01*
X5022Y5395D01*
X5040Y5305D01*
X5045Y5298D01*
X5047Y5290D01*
X5101Y5217D01*
X5153Y5141D01*
X5160Y5137D01*
X5165Y5130D01*
X5243Y5083D01*
X5320Y5034D01*
X5329Y5033D01*
X5336Y5028D01*
X5500Y5001D01*
X554500Y5001D01*
X554508Y5002D01*
G37*
%LPC*%
G36*
X526022Y509999D02*
X526022Y509999D01*
X518670Y513044D01*
X513044Y518670D01*
X509999Y526022D01*
X509999Y533978D01*
X513044Y541330D01*
X518670Y546956D01*
X526022Y550001D01*
X533978Y550001D01*
X541330Y546956D01*
X546956Y541330D01*
X550001Y533978D01*
X550001Y526022D01*
X546956Y518670D01*
X541330Y513044D01*
X533978Y509999D01*
X526022Y509999D01*
G37*
%LPD*%
%LPC*%
G36*
X26022Y9999D02*
X26022Y9999D01*
X18670Y13044D01*
X13044Y18670D01*
X9999Y26022D01*
X9999Y33978D01*
X13044Y41330D01*
X18670Y46956D01*
X26022Y50001D01*
X33978Y50001D01*
X41330Y46956D01*
X46956Y41330D01*
X50001Y33978D01*
X50001Y26022D01*
X46956Y18670D01*
X41330Y13044D01*
X33978Y9999D01*
X26022Y9999D01*
G37*
%LPD*%
%LPC*%
G36*
X526022Y9999D02*
X526022Y9999D01*
X518670Y13044D01*
X513044Y18670D01*
X509999Y26022D01*
X509999Y33978D01*
X513044Y41330D01*
X518670Y46956D01*
X526022Y50001D01*
X533978Y50001D01*
X541330Y46956D01*
X546956Y41330D01*
X550001Y33978D01*
X550001Y26022D01*
X546956Y18670D01*
X541330Y13044D01*
X533978Y9999D01*
X526022Y9999D01*
G37*
%LPD*%
%LPC*%
G36*
X490931Y494347D02*
X490931Y494347D01*
X484025Y501253D01*
X484014Y501260D01*
X484007Y501270D01*
X483932Y501315D01*
X483859Y501363D01*
X483847Y501365D01*
X483836Y501372D01*
X483672Y501399D01*
X481678Y501399D01*
X481666Y501397D01*
X481653Y501399D01*
X481569Y501377D01*
X481483Y501360D01*
X481473Y501353D01*
X481461Y501349D01*
X481325Y501253D01*
X479971Y499899D01*
X466829Y499899D01*
X463899Y502829D01*
X463899Y514971D01*
X466829Y517901D01*
X479971Y517901D01*
X481325Y516547D01*
X481336Y516540D01*
X481343Y516530D01*
X481418Y516485D01*
X481491Y516437D01*
X481503Y516435D01*
X481514Y516428D01*
X481678Y516401D01*
X483472Y516401D01*
X483484Y516403D01*
X483497Y516401D01*
X483581Y516423D01*
X483667Y516440D01*
X483677Y516447D01*
X483689Y516451D01*
X483825Y516547D01*
X490931Y523653D01*
X503069Y523653D01*
X511653Y515069D01*
X511653Y502931D01*
X503069Y494347D01*
X490931Y494347D01*
G37*
%LPD*%
%LPC*%
G36*
X280931Y494347D02*
X280931Y494347D01*
X272347Y502931D01*
X272347Y515069D01*
X280931Y523653D01*
X293069Y523653D01*
X299372Y517350D01*
X299379Y517345D01*
X299384Y517339D01*
X299462Y517291D01*
X299538Y517240D01*
X299546Y517239D01*
X299553Y517234D01*
X299643Y517221D01*
X299733Y517204D01*
X299741Y517206D01*
X299750Y517204D01*
X299838Y517227D01*
X299927Y517247D01*
X299934Y517252D01*
X299942Y517254D01*
X300078Y517350D01*
X300629Y517901D01*
X313771Y517901D01*
X316701Y514971D01*
X316701Y502829D01*
X313771Y499899D01*
X300629Y499899D01*
X299978Y500550D01*
X299971Y500555D01*
X299966Y500561D01*
X299889Y500609D01*
X299812Y500660D01*
X299804Y500661D01*
X299797Y500666D01*
X299707Y500679D01*
X299617Y500696D01*
X299608Y500694D01*
X299600Y500696D01*
X299512Y500673D01*
X299423Y500653D01*
X299416Y500648D01*
X299408Y500646D01*
X299272Y500550D01*
X293069Y494347D01*
X280931Y494347D01*
G37*
%LPD*%
%LPC*%
G36*
X436717Y6099D02*
X436717Y6099D01*
X431020Y8459D01*
X426659Y12820D01*
X424299Y18517D01*
X424299Y24683D01*
X426659Y30380D01*
X431020Y34741D01*
X436717Y37101D01*
X442883Y37101D01*
X448580Y34741D01*
X452941Y30380D01*
X455301Y24683D01*
X455301Y18517D01*
X452941Y12820D01*
X448580Y8459D01*
X442883Y6099D01*
X436717Y6099D01*
G37*
%LPD*%
%LPC*%
G36*
X141466Y30449D02*
X141466Y30449D01*
X136044Y32695D01*
X131895Y36844D01*
X129649Y42266D01*
X129649Y48134D01*
X131895Y53556D01*
X136044Y57705D01*
X141466Y59951D01*
X147334Y59951D01*
X152756Y57705D01*
X156905Y53556D01*
X159151Y48134D01*
X159151Y42266D01*
X156905Y36844D01*
X152756Y32695D01*
X147334Y30449D01*
X141466Y30449D01*
G37*
%LPD*%
%LPC*%
G36*
X103305Y152659D02*
X103305Y152659D01*
X98696Y154568D01*
X95168Y158096D01*
X93259Y162705D01*
X93259Y167695D01*
X95168Y172304D01*
X98696Y175832D01*
X103305Y177741D01*
X108295Y177741D01*
X112904Y175832D01*
X116432Y172304D01*
X118341Y167695D01*
X118341Y162705D01*
X116432Y158096D01*
X112904Y154568D01*
X108295Y152659D01*
X103305Y152659D01*
G37*
%LPD*%
%LPC*%
G36*
X375999Y447799D02*
X375999Y447799D01*
X375999Y459339D01*
X377937Y459032D01*
X379814Y458422D01*
X381573Y457526D01*
X383170Y456366D01*
X384566Y454970D01*
X385726Y453373D01*
X386622Y451614D01*
X387232Y449737D01*
X387539Y447799D01*
X375999Y447799D01*
G37*
%LPD*%
%LPC*%
G36*
X375999Y445801D02*
X375999Y445801D01*
X387539Y445801D01*
X387232Y443863D01*
X386622Y441986D01*
X385726Y440227D01*
X384566Y438630D01*
X383170Y437234D01*
X381573Y436074D01*
X379814Y435178D01*
X377937Y434568D01*
X375999Y434261D01*
X375999Y445801D01*
G37*
%LPD*%
%LPC*%
G36*
X362461Y447799D02*
X362461Y447799D01*
X362768Y449737D01*
X363378Y451614D01*
X364274Y453373D01*
X365434Y454970D01*
X366830Y456366D01*
X368427Y457526D01*
X370186Y458422D01*
X372063Y459032D01*
X374001Y459339D01*
X374001Y447799D01*
X362461Y447799D01*
G37*
%LPD*%
%LPC*%
G36*
X372063Y434568D02*
X372063Y434568D01*
X370186Y435178D01*
X368427Y436074D01*
X366830Y437234D01*
X365434Y438630D01*
X364274Y440227D01*
X363378Y441986D01*
X362768Y443863D01*
X362461Y445801D01*
X374001Y445801D01*
X374001Y434261D01*
X372063Y434568D01*
G37*
%LPD*%
%LPC*%
G36*
X106799Y191599D02*
X106799Y191599D01*
X106799Y200648D01*
X108161Y200433D01*
X109670Y199942D01*
X111083Y199222D01*
X112367Y198289D01*
X113489Y197167D01*
X114422Y195883D01*
X115142Y194470D01*
X115633Y192961D01*
X115848Y191599D01*
X106799Y191599D01*
G37*
%LPD*%
%LPC*%
G36*
X157899Y21199D02*
X157899Y21199D01*
X157899Y30248D01*
X159261Y30033D01*
X160770Y29542D01*
X162183Y28822D01*
X163467Y27889D01*
X164589Y26767D01*
X165522Y25483D01*
X166242Y24070D01*
X166733Y22561D01*
X166948Y21199D01*
X157899Y21199D01*
G37*
%LPD*%
%LPC*%
G36*
X259199Y242399D02*
X259199Y242399D01*
X259199Y251448D01*
X260561Y251233D01*
X262070Y250742D01*
X263483Y250022D01*
X264767Y249089D01*
X265889Y247967D01*
X266822Y246683D01*
X267542Y245270D01*
X268033Y243761D01*
X268248Y242399D01*
X259199Y242399D01*
G37*
%LPD*%
%LPC*%
G36*
X157899Y19201D02*
X157899Y19201D01*
X166948Y19201D01*
X166733Y17839D01*
X166242Y16330D01*
X165522Y14917D01*
X164589Y13633D01*
X163467Y12511D01*
X162183Y11578D01*
X160770Y10858D01*
X159261Y10367D01*
X157899Y10152D01*
X157899Y19201D01*
G37*
%LPD*%
%LPC*%
G36*
X106799Y189601D02*
X106799Y189601D01*
X115848Y189601D01*
X115633Y188239D01*
X115142Y186730D01*
X114422Y185317D01*
X113489Y184033D01*
X112367Y182911D01*
X111083Y181978D01*
X109670Y181258D01*
X108161Y180767D01*
X106799Y180552D01*
X106799Y189601D01*
G37*
%LPD*%
%LPC*%
G36*
X350799Y120601D02*
X350799Y120601D01*
X359848Y120601D01*
X359633Y119239D01*
X359142Y117730D01*
X358422Y116317D01*
X357489Y115033D01*
X356367Y113911D01*
X355083Y112978D01*
X353670Y112258D01*
X352161Y111767D01*
X350799Y111552D01*
X350799Y120601D01*
G37*
%LPD*%
%LPC*%
G36*
X95752Y191599D02*
X95752Y191599D01*
X95967Y192961D01*
X96458Y194470D01*
X97178Y195883D01*
X98111Y197167D01*
X99233Y198289D01*
X100517Y199222D01*
X101930Y199942D01*
X103439Y200433D01*
X104801Y200648D01*
X104801Y191599D01*
X95752Y191599D01*
G37*
%LPD*%
%LPC*%
G36*
X259199Y240401D02*
X259199Y240401D01*
X268248Y240401D01*
X268033Y239039D01*
X267542Y237530D01*
X266822Y236117D01*
X265889Y234833D01*
X264767Y233711D01*
X263483Y232778D01*
X262070Y232058D01*
X260561Y231567D01*
X259199Y231352D01*
X259199Y240401D01*
G37*
%LPD*%
%LPC*%
G36*
X248152Y242399D02*
X248152Y242399D01*
X248367Y243761D01*
X248858Y245270D01*
X249578Y246683D01*
X250511Y247967D01*
X251633Y249089D01*
X252917Y250022D01*
X254330Y250742D01*
X255839Y251233D01*
X257201Y251448D01*
X257201Y242399D01*
X248152Y242399D01*
G37*
%LPD*%
%LPC*%
G36*
X146852Y21199D02*
X146852Y21199D01*
X147067Y22561D01*
X147558Y24070D01*
X148278Y25483D01*
X149211Y26767D01*
X150333Y27889D01*
X151617Y28822D01*
X153030Y29542D01*
X154539Y30033D01*
X155901Y30248D01*
X155901Y21199D01*
X146852Y21199D01*
G37*
%LPD*%
%LPC*%
G36*
X103439Y180767D02*
X103439Y180767D01*
X101930Y181258D01*
X100517Y181978D01*
X99233Y182911D01*
X98111Y184033D01*
X97178Y185317D01*
X96458Y186730D01*
X95967Y188239D01*
X95752Y189601D01*
X104801Y189601D01*
X104801Y180552D01*
X103439Y180767D01*
G37*
%LPD*%
%LPC*%
G36*
X154539Y10367D02*
X154539Y10367D01*
X153030Y10858D01*
X151617Y11578D01*
X150333Y12511D01*
X149211Y13633D01*
X148278Y14917D01*
X147558Y16330D01*
X147067Y17839D01*
X146852Y19201D01*
X155901Y19201D01*
X155901Y10152D01*
X154539Y10367D01*
G37*
%LPD*%
%LPC*%
G36*
X255839Y231567D02*
X255839Y231567D01*
X254330Y232058D01*
X252917Y232778D01*
X251633Y233711D01*
X250511Y234833D01*
X249578Y236117D01*
X248858Y237530D01*
X248367Y239039D01*
X248152Y240401D01*
X257201Y240401D01*
X257201Y231352D01*
X255839Y231567D01*
G37*
%LPD*%
%LPC*%
G36*
X347439Y111767D02*
X347439Y111767D01*
X345930Y112258D01*
X344517Y112978D01*
X343233Y113911D01*
X342111Y115033D01*
X341178Y116317D01*
X340458Y117730D01*
X339967Y119239D01*
X339752Y120601D01*
X348801Y120601D01*
X348801Y111552D01*
X347439Y111767D01*
G37*
%LPD*%
%LPC*%
G36*
X453399Y519399D02*
X453399Y519399D01*
X453399Y524941D01*
X457234Y524941D01*
X457881Y524768D01*
X458460Y524433D01*
X458933Y523960D01*
X459268Y523381D01*
X459441Y522734D01*
X459441Y519399D01*
X453399Y519399D01*
G37*
%LPD*%
%LPC*%
G36*
X43499Y486899D02*
X43499Y486899D01*
X43499Y492941D01*
X46834Y492941D01*
X47481Y492768D01*
X48060Y492433D01*
X48533Y491960D01*
X48868Y491381D01*
X49041Y490734D01*
X49041Y486899D01*
X43499Y486899D01*
G37*
%LPD*%
%LPC*%
G36*
X329199Y500399D02*
X329199Y500399D01*
X329199Y505941D01*
X333034Y505941D01*
X333681Y505768D01*
X334260Y505433D01*
X334733Y504960D01*
X335068Y504381D01*
X335241Y503734D01*
X335241Y500399D01*
X329199Y500399D01*
G37*
%LPD*%
%LPC*%
G36*
X445359Y519399D02*
X445359Y519399D01*
X445359Y522734D01*
X445532Y523381D01*
X445867Y523960D01*
X446340Y524433D01*
X446919Y524768D01*
X447566Y524941D01*
X451401Y524941D01*
X451401Y519399D01*
X445359Y519399D01*
G37*
%LPD*%
%LPC*%
G36*
X321159Y500399D02*
X321159Y500399D01*
X321159Y503734D01*
X321332Y504381D01*
X321667Y504960D01*
X322140Y505433D01*
X322719Y505768D01*
X323366Y505941D01*
X327201Y505941D01*
X327201Y500399D01*
X321159Y500399D01*
G37*
%LPD*%
%LPC*%
G36*
X329199Y492859D02*
X329199Y492859D01*
X329199Y498401D01*
X335241Y498401D01*
X335241Y495066D01*
X335068Y494419D01*
X334733Y493840D01*
X334260Y493367D01*
X333681Y493032D01*
X333034Y492859D01*
X329199Y492859D01*
G37*
%LPD*%
%LPC*%
G36*
X35959Y486899D02*
X35959Y486899D01*
X35959Y490734D01*
X36132Y491381D01*
X36467Y491960D01*
X36940Y492433D01*
X37519Y492768D01*
X38166Y492941D01*
X41501Y492941D01*
X41501Y486899D01*
X35959Y486899D01*
G37*
%LPD*%
%LPC*%
G36*
X453399Y511859D02*
X453399Y511859D01*
X453399Y517401D01*
X459441Y517401D01*
X459441Y514066D01*
X459268Y513419D01*
X458933Y512840D01*
X458460Y512367D01*
X457881Y512032D01*
X457234Y511859D01*
X453399Y511859D01*
G37*
%LPD*%
%LPC*%
G36*
X38166Y478859D02*
X38166Y478859D01*
X37519Y479032D01*
X36940Y479367D01*
X36467Y479840D01*
X36132Y480419D01*
X35959Y481066D01*
X35959Y484901D01*
X41501Y484901D01*
X41501Y478859D01*
X38166Y478859D01*
G37*
%LPD*%
%LPC*%
G36*
X323366Y492859D02*
X323366Y492859D01*
X322719Y493032D01*
X322140Y493367D01*
X321667Y493840D01*
X321332Y494419D01*
X321159Y495066D01*
X321159Y498401D01*
X327201Y498401D01*
X327201Y492859D01*
X323366Y492859D01*
G37*
%LPD*%
%LPC*%
G36*
X447566Y511859D02*
X447566Y511859D01*
X446919Y512032D01*
X446340Y512367D01*
X445867Y512840D01*
X445532Y513419D01*
X445359Y514066D01*
X445359Y517401D01*
X451401Y517401D01*
X451401Y511859D01*
X447566Y511859D01*
G37*
%LPD*%
%LPC*%
G36*
X258199Y241399D02*
X258199Y241399D01*
X258199Y241401D01*
X258201Y241401D01*
X258201Y241399D01*
X258199Y241399D01*
G37*
%LPD*%
%LPC*%
G36*
X105799Y190599D02*
X105799Y190599D01*
X105799Y190601D01*
X105801Y190601D01*
X105801Y190599D01*
X105799Y190599D01*
G37*
%LPD*%
%LPC*%
G36*
X156899Y20199D02*
X156899Y20199D01*
X156899Y20201D01*
X156901Y20201D01*
X156901Y20199D01*
X156899Y20199D01*
G37*
%LPD*%
%LPC*%
G36*
X374999Y446799D02*
X374999Y446799D01*
X374999Y446801D01*
X375001Y446801D01*
X375001Y446799D01*
X374999Y446799D01*
G37*
%LPD*%
%LPC*%
G36*
X452399Y518399D02*
X452399Y518399D01*
X452399Y518401D01*
X452401Y518401D01*
X452401Y518399D01*
X452399Y518399D01*
G37*
%LPD*%
%LPC*%
G36*
X328199Y499399D02*
X328199Y499399D01*
X328199Y499401D01*
X328201Y499401D01*
X328201Y499399D01*
X328199Y499399D01*
G37*
%LPD*%
%LPC*%
G36*
X42499Y485899D02*
X42499Y485899D01*
X42499Y485901D01*
X42501Y485901D01*
X42501Y485899D01*
X42499Y485899D01*
G37*
%LPD*%
D10*
X77000Y509000D03*
X77000Y49000D03*
X287000Y49000D03*
X497000Y49000D03*
X287000Y509000D03*
X497000Y509000D03*
X77000Y469000D03*
X287000Y469000D03*
X497000Y469000D03*
X77000Y259000D03*
X287000Y259000D03*
X497000Y259000D03*
D11*
X135800Y270100D03*
X135800Y251100D03*
D12*
X77200Y229400D03*
X58200Y229400D03*
D11*
X286600Y227100D03*
X286600Y208100D03*
D12*
X497400Y227600D03*
X516400Y227600D03*
X76900Y79600D03*
X57900Y79600D03*
X304400Y79600D03*
X285400Y79600D03*
X496900Y79600D03*
X515900Y79600D03*
D13*
X429800Y121600D03*
D14*
X389800Y121600D03*
X349800Y121600D03*
D15*
X439800Y21600D03*
X339800Y21600D03*
D12*
X141500Y206600D03*
X160500Y206600D03*
D11*
X133200Y521100D03*
X133200Y540100D03*
X231400Y505100D03*
X231400Y524100D03*
X457900Y454600D03*
X457900Y473600D03*
D12*
X58600Y440100D03*
X77600Y440100D03*
X308800Y436100D03*
X289800Y436100D03*
X497000Y435100D03*
X516000Y435100D03*
D16*
X422000Y420300D03*
X359000Y537300D03*
D17*
X375000Y478800D03*
X405000Y478800D03*
X375000Y510800D03*
X375000Y446800D03*
X405000Y446800D03*
X405000Y510800D03*
D14*
X201900Y20200D03*
X156900Y20200D03*
D18*
X214400Y45200D03*
X144400Y45200D03*
D19*
X23500Y485900D03*
X42500Y485900D03*
X33000Y464900D03*
D20*
X328200Y518400D03*
X328200Y499400D03*
X307200Y508900D03*
X452400Y499400D03*
X452400Y518400D03*
X473400Y508900D03*
D13*
X258200Y165200D03*
D14*
X258200Y190600D03*
X258200Y216000D03*
X258200Y241400D03*
X258200Y266800D03*
X258200Y292200D03*
X258200Y317600D03*
X258200Y343000D03*
X258200Y368400D03*
X258200Y393800D03*
X258200Y419200D03*
X258200Y444600D03*
X105800Y165200D03*
X105800Y190600D03*
X105800Y216000D03*
X105800Y241400D03*
X105800Y266800D03*
X105800Y292200D03*
X105800Y343000D03*
X105800Y368400D03*
X105800Y419200D03*
X105800Y444600D03*
X105800Y393800D03*
X105800Y317600D03*
X258200Y470000D03*
X258200Y495400D03*
X258200Y520800D03*
X105800Y470000D03*
X105800Y495400D03*
X105800Y520800D03*
D21*
X156000Y240000D03*
X218000Y240000D03*
D22*
X144000Y359000D03*
X144000Y297000D03*
D23*
X179250Y101000D03*
X148750Y101000D03*
D24*
X135800Y221572D02*
X135800Y251100D01*
X114800Y250400D02*
X105800Y241400D01*
X135100Y250400D02*
X135800Y251100D01*
X135100Y250400D02*
X114800Y250400D01*
X141500Y215872D02*
X141500Y206600D01*
X141500Y215872D02*
X135800Y221572D01*
X141500Y206600D02*
X141500Y199500D01*
X148500Y192500D01*
X148750Y192750D01*
X148750Y101000D01*
X163000Y78100D02*
X194900Y46200D01*
X194900Y27200D01*
X201900Y20200D01*
X169000Y310400D02*
X161800Y317600D01*
X105800Y317600D01*
X159050Y208050D02*
X160500Y206600D01*
X163000Y206600D01*
X163000Y78100D01*
X160500Y206600D02*
X169000Y215100D01*
X169000Y310400D01*
X45226Y464900D02*
X33000Y464900D01*
X45226Y464900D02*
X77000Y496674D01*
X77000Y509000D01*
X98000Y540100D02*
X133200Y540100D01*
X23500Y486340D02*
X23500Y485900D01*
X23500Y500500D01*
X28000Y505000D01*
X40355Y505000D01*
X63355Y528000D01*
X85900Y528000D02*
X98000Y540100D01*
X85900Y528000D02*
X63355Y528000D01*
X231400Y525100D02*
X231400Y524100D01*
X231400Y525100D02*
X243400Y537100D01*
X313500Y537100D01*
X328200Y522400D01*
X328200Y518400D01*
X452400Y499400D02*
X452400Y479100D01*
X457900Y473600D01*
X307100Y509000D02*
X287000Y509000D01*
X307100Y509000D02*
X307200Y508900D01*
X496900Y508900D02*
X497000Y509000D01*
X496900Y508900D02*
X473400Y508900D01*
X273400Y404000D02*
X258200Y419200D01*
X403000Y404000D02*
X418000Y389000D01*
X443000Y389000D01*
X458000Y404000D01*
X458000Y454500D01*
X457900Y454600D01*
X403000Y404000D02*
X273400Y404000D01*
X77600Y468400D02*
X58600Y440100D01*
X77600Y468400D02*
X77000Y469000D01*
X308800Y455200D02*
X308800Y436100D01*
X308800Y455200D02*
X294000Y470000D01*
X288000Y470000D01*
X287000Y469000D01*
X497000Y469000D02*
X497000Y435100D01*
X77200Y258800D02*
X77000Y259000D01*
X77200Y258800D02*
X77200Y229400D01*
X497400Y227600D02*
X497400Y258600D01*
X497000Y259000D01*
X77000Y79500D02*
X77000Y49000D01*
X77000Y79500D02*
X76900Y79600D01*
X304400Y79600D02*
X304400Y65600D01*
X287800Y49000D02*
X287000Y49000D01*
X287800Y49000D02*
X304400Y65600D01*
X497000Y79500D02*
X497000Y49000D01*
X497000Y79500D02*
X496900Y79600D01*
X289800Y436100D02*
X281300Y444600D01*
X258200Y444600D01*
X239200Y476400D02*
X258200Y495400D01*
X239200Y362200D02*
X205000Y328000D01*
X239200Y362200D02*
X239200Y476400D01*
X285400Y94600D02*
X285400Y79600D01*
X285400Y94600D02*
X205000Y175000D01*
X205000Y328000D01*
X178000Y318800D02*
X178000Y137000D01*
X275000Y27000D02*
X299000Y27000D01*
X389800Y117800D01*
X389800Y121600D01*
X118800Y330000D02*
X105800Y343000D01*
X166800Y330000D02*
X178000Y318800D01*
X166800Y330000D02*
X118800Y330000D01*
X178000Y137000D02*
X195000Y120000D01*
X195000Y107000D02*
X275000Y27000D01*
X195000Y107000D02*
X195000Y120000D01*
X286600Y227100D02*
X286600Y258600D01*
X287000Y259000D01*
X269100Y190600D02*
X258200Y190600D01*
X269100Y190600D02*
X286600Y208100D01*
X242500Y505100D02*
X258200Y520800D01*
X242500Y505100D02*
X231400Y505100D01*
X515900Y97900D02*
X515900Y79600D01*
X515900Y97900D02*
X517000Y99000D01*
X517000Y100000D01*
X477000Y140000D02*
X283000Y140000D01*
X258200Y164800D01*
X258200Y165200D01*
X477000Y140000D02*
X517000Y100000D01*
X132900Y520800D02*
X105800Y520800D01*
X132900Y520800D02*
X133200Y521100D01*
X101300Y440100D02*
X77600Y440100D01*
X101300Y440100D02*
X105800Y444600D01*
X105800Y419200D02*
X37000Y350400D01*
X37000Y100500D02*
X57900Y79600D01*
X37000Y100500D02*
X37000Y350400D01*
X58200Y346200D02*
X105800Y393800D01*
X58200Y346200D02*
X58200Y229400D01*
X516000Y405000D02*
X516000Y435100D01*
X516000Y405000D02*
X517000Y404000D01*
X491500Y378500D01*
X414500Y378500D01*
X400000Y393000D01*
X264200Y393800D02*
X258200Y393800D01*
X264200Y393800D02*
X265000Y393000D01*
X400000Y393000D01*
X516400Y263600D02*
X516400Y227600D01*
X274200Y352400D02*
X258200Y368400D01*
X427600Y352400D02*
X516400Y263600D01*
X427600Y352400D02*
X274200Y352400D01*
X375000Y478800D02*
X345000Y508800D01*
X345000Y520000D01*
X317000Y548000D01*
X221000Y548000D01*
X144000Y471000D01*
X144000Y359000D01*
X143900Y270100D02*
X135800Y270100D01*
X156000Y258000D02*
X156000Y240000D01*
X156000Y258000D02*
X143900Y270100D01*
X156000Y285000D02*
X144000Y297000D01*
X156000Y285000D02*
X156000Y258000D01*
X255400Y264000D02*
X258200Y266800D01*
X255400Y264000D02*
X237000Y264000D01*
X218000Y245000D01*
X218000Y240000D01*
X411200Y103000D02*
X429800Y121600D01*
X392000Y103000D02*
X304000Y15000D01*
X269000Y15000D01*
X183000Y101000D01*
X392000Y103000D02*
X411200Y103000D01*
X183000Y101000D02*
X179250Y101000D01*
M02*
