G04 EAGLE Gerber RS-274X export*
G75*
%MOMM*%
%FSLAX34Y34*%
%LPD*%
%IN*%
%IPPOS*%
%AMOC8*
5,1,8,0,0,1.08239X$1,22.5*%
G01*
%ADD10C,0.254000*%


D10*
X0Y0D02*
X560000Y0D01*
X560000Y560000D01*
X0Y560000D01*
X0Y0D01*
X45000Y529464D02*
X44924Y528396D01*
X44771Y527335D01*
X44543Y526288D01*
X44241Y525260D01*
X43867Y524256D01*
X43422Y523281D01*
X42908Y522341D01*
X42329Y521440D01*
X41687Y520582D01*
X40985Y519772D01*
X40228Y519015D01*
X39418Y518313D01*
X38560Y517671D01*
X37659Y517092D01*
X36719Y516578D01*
X35744Y516133D01*
X34740Y515759D01*
X33712Y515457D01*
X32665Y515229D01*
X31604Y515076D01*
X30536Y515000D01*
X29464Y515000D01*
X28396Y515076D01*
X27335Y515229D01*
X26288Y515457D01*
X25260Y515759D01*
X24256Y516133D01*
X23281Y516578D01*
X22341Y517092D01*
X21440Y517671D01*
X20582Y518313D01*
X19772Y519015D01*
X19015Y519772D01*
X18313Y520582D01*
X17671Y521440D01*
X17092Y522341D01*
X16578Y523281D01*
X16133Y524256D01*
X15759Y525260D01*
X15457Y526288D01*
X15229Y527335D01*
X15076Y528396D01*
X15000Y529464D01*
X15000Y530536D01*
X15076Y531604D01*
X15229Y532665D01*
X15457Y533712D01*
X15759Y534740D01*
X16133Y535744D01*
X16578Y536719D01*
X17092Y537659D01*
X17671Y538560D01*
X18313Y539418D01*
X19015Y540228D01*
X19772Y540985D01*
X20582Y541687D01*
X21440Y542329D01*
X22341Y542908D01*
X23281Y543422D01*
X24256Y543867D01*
X25260Y544241D01*
X26288Y544543D01*
X27335Y544771D01*
X28396Y544924D01*
X29464Y545000D01*
X30536Y545000D01*
X31604Y544924D01*
X32665Y544771D01*
X33712Y544543D01*
X34740Y544241D01*
X35744Y543867D01*
X36719Y543422D01*
X37659Y542908D01*
X38560Y542329D01*
X39418Y541687D01*
X40228Y540985D01*
X40985Y540228D01*
X41687Y539418D01*
X42329Y538560D01*
X42908Y537659D01*
X43422Y536719D01*
X43867Y535744D01*
X44241Y534740D01*
X44543Y533712D01*
X44771Y532665D01*
X44924Y531604D01*
X45000Y530536D01*
X45000Y529464D01*
X545000Y529464D02*
X544924Y528396D01*
X544771Y527335D01*
X544543Y526288D01*
X544241Y525260D01*
X543867Y524256D01*
X543422Y523281D01*
X542908Y522341D01*
X542329Y521440D01*
X541687Y520582D01*
X540985Y519772D01*
X540228Y519015D01*
X539418Y518313D01*
X538560Y517671D01*
X537659Y517092D01*
X536719Y516578D01*
X535744Y516133D01*
X534740Y515759D01*
X533712Y515457D01*
X532665Y515229D01*
X531604Y515076D01*
X530536Y515000D01*
X529464Y515000D01*
X528396Y515076D01*
X527335Y515229D01*
X526288Y515457D01*
X525260Y515759D01*
X524256Y516133D01*
X523281Y516578D01*
X522341Y517092D01*
X521440Y517671D01*
X520582Y518313D01*
X519772Y519015D01*
X519015Y519772D01*
X518313Y520582D01*
X517671Y521440D01*
X517092Y522341D01*
X516578Y523281D01*
X516133Y524256D01*
X515759Y525260D01*
X515457Y526288D01*
X515229Y527335D01*
X515076Y528396D01*
X515000Y529464D01*
X515000Y530536D01*
X515076Y531604D01*
X515229Y532665D01*
X515457Y533712D01*
X515759Y534740D01*
X516133Y535744D01*
X516578Y536719D01*
X517092Y537659D01*
X517671Y538560D01*
X518313Y539418D01*
X519015Y540228D01*
X519772Y540985D01*
X520582Y541687D01*
X521440Y542329D01*
X522341Y542908D01*
X523281Y543422D01*
X524256Y543867D01*
X525260Y544241D01*
X526288Y544543D01*
X527335Y544771D01*
X528396Y544924D01*
X529464Y545000D01*
X530536Y545000D01*
X531604Y544924D01*
X532665Y544771D01*
X533712Y544543D01*
X534740Y544241D01*
X535744Y543867D01*
X536719Y543422D01*
X537659Y542908D01*
X538560Y542329D01*
X539418Y541687D01*
X540228Y540985D01*
X540985Y540228D01*
X541687Y539418D01*
X542329Y538560D01*
X542908Y537659D01*
X543422Y536719D01*
X543867Y535744D01*
X544241Y534740D01*
X544543Y533712D01*
X544771Y532665D01*
X544924Y531604D01*
X545000Y530536D01*
X545000Y529464D01*
X545000Y29464D02*
X544924Y28396D01*
X544771Y27335D01*
X544543Y26288D01*
X544241Y25260D01*
X543867Y24256D01*
X543422Y23281D01*
X542908Y22341D01*
X542329Y21440D01*
X541687Y20582D01*
X540985Y19772D01*
X540228Y19015D01*
X539418Y18313D01*
X538560Y17671D01*
X537659Y17092D01*
X536719Y16578D01*
X535744Y16133D01*
X534740Y15759D01*
X533712Y15457D01*
X532665Y15229D01*
X531604Y15076D01*
X530536Y15000D01*
X529464Y15000D01*
X528396Y15076D01*
X527335Y15229D01*
X526288Y15457D01*
X525260Y15759D01*
X524256Y16133D01*
X523281Y16578D01*
X522341Y17092D01*
X521440Y17671D01*
X520582Y18313D01*
X519772Y19015D01*
X519015Y19772D01*
X518313Y20582D01*
X517671Y21440D01*
X517092Y22341D01*
X516578Y23281D01*
X516133Y24256D01*
X515759Y25260D01*
X515457Y26288D01*
X515229Y27335D01*
X515076Y28396D01*
X515000Y29464D01*
X515000Y30536D01*
X515076Y31604D01*
X515229Y32665D01*
X515457Y33712D01*
X515759Y34740D01*
X516133Y35744D01*
X516578Y36719D01*
X517092Y37659D01*
X517671Y38560D01*
X518313Y39418D01*
X519015Y40228D01*
X519772Y40985D01*
X520582Y41687D01*
X521440Y42329D01*
X522341Y42908D01*
X523281Y43422D01*
X524256Y43867D01*
X525260Y44241D01*
X526288Y44543D01*
X527335Y44771D01*
X528396Y44924D01*
X529464Y45000D01*
X530536Y45000D01*
X531604Y44924D01*
X532665Y44771D01*
X533712Y44543D01*
X534740Y44241D01*
X535744Y43867D01*
X536719Y43422D01*
X537659Y42908D01*
X538560Y42329D01*
X539418Y41687D01*
X540228Y40985D01*
X540985Y40228D01*
X541687Y39418D01*
X542329Y38560D01*
X542908Y37659D01*
X543422Y36719D01*
X543867Y35744D01*
X544241Y34740D01*
X544543Y33712D01*
X544771Y32665D01*
X544924Y31604D01*
X545000Y30536D01*
X545000Y29464D01*
X45000Y29464D02*
X44924Y28396D01*
X44771Y27335D01*
X44543Y26288D01*
X44241Y25260D01*
X43867Y24256D01*
X43422Y23281D01*
X42908Y22341D01*
X42329Y21440D01*
X41687Y20582D01*
X40985Y19772D01*
X40228Y19015D01*
X39418Y18313D01*
X38560Y17671D01*
X37659Y17092D01*
X36719Y16578D01*
X35744Y16133D01*
X34740Y15759D01*
X33712Y15457D01*
X32665Y15229D01*
X31604Y15076D01*
X30536Y15000D01*
X29464Y15000D01*
X28396Y15076D01*
X27335Y15229D01*
X26288Y15457D01*
X25260Y15759D01*
X24256Y16133D01*
X23281Y16578D01*
X22341Y17092D01*
X21440Y17671D01*
X20582Y18313D01*
X19772Y19015D01*
X19015Y19772D01*
X18313Y20582D01*
X17671Y21440D01*
X17092Y22341D01*
X16578Y23281D01*
X16133Y24256D01*
X15759Y25260D01*
X15457Y26288D01*
X15229Y27335D01*
X15076Y28396D01*
X15000Y29464D01*
X15000Y30536D01*
X15076Y31604D01*
X15229Y32665D01*
X15457Y33712D01*
X15759Y34740D01*
X16133Y35744D01*
X16578Y36719D01*
X17092Y37659D01*
X17671Y38560D01*
X18313Y39418D01*
X19015Y40228D01*
X19772Y40985D01*
X20582Y41687D01*
X21440Y42329D01*
X22341Y42908D01*
X23281Y43422D01*
X24256Y43867D01*
X25260Y44241D01*
X26288Y44543D01*
X27335Y44771D01*
X28396Y44924D01*
X29464Y45000D01*
X30536Y45000D01*
X31604Y44924D01*
X32665Y44771D01*
X33712Y44543D01*
X34740Y44241D01*
X35744Y43867D01*
X36719Y43422D01*
X37659Y42908D01*
X38560Y42329D01*
X39418Y41687D01*
X40228Y40985D01*
X40985Y40228D01*
X41687Y39418D01*
X42329Y38560D01*
X42908Y37659D01*
X43422Y36719D01*
X43867Y35744D01*
X44241Y34740D01*
X44543Y33712D01*
X44771Y32665D01*
X44924Y31604D01*
X45000Y30536D01*
X45000Y29464D01*
M02*
