G04 EAGLE Gerber RS-274X export*
G75*
%MOMM*%
%FSLAX34Y34*%
%LPD*%
%INSilkscreen Bottom*%
%IPPOS*%
%AMOC8*
5,1,8,0,0,1.08239X$1,22.5*%
G01*
%ADD10C,0.203200*%
%ADD11C,0.200000*%
%ADD12C,0.101600*%
%ADD13C,0.076200*%


D10*
X25000Y468900D02*
X19000Y468900D01*
X19000Y476900D01*
X41000Y468900D02*
X47000Y468900D01*
X47000Y476900D01*
X311200Y516900D02*
X311200Y522900D01*
X319200Y522900D01*
X311200Y500900D02*
X311200Y494900D01*
X319200Y494900D01*
X469400Y494900D02*
X469400Y500900D01*
X469400Y494900D02*
X461400Y494900D01*
X469400Y516900D02*
X469400Y522900D01*
X461400Y522900D01*
D11*
X209000Y223000D02*
X165000Y223000D01*
X165000Y257000D02*
X209000Y257000D01*
D12*
X224639Y215492D02*
X224639Y203808D01*
X224639Y215492D02*
X221393Y215492D01*
X221280Y215490D01*
X221167Y215484D01*
X221054Y215474D01*
X220941Y215460D01*
X220829Y215443D01*
X220718Y215421D01*
X220608Y215396D01*
X220498Y215366D01*
X220390Y215333D01*
X220283Y215296D01*
X220177Y215256D01*
X220073Y215211D01*
X219970Y215163D01*
X219869Y215112D01*
X219770Y215057D01*
X219673Y214999D01*
X219578Y214937D01*
X219485Y214872D01*
X219395Y214804D01*
X219307Y214733D01*
X219221Y214658D01*
X219138Y214581D01*
X219058Y214501D01*
X218981Y214418D01*
X218906Y214332D01*
X218835Y214244D01*
X218767Y214154D01*
X218702Y214061D01*
X218640Y213966D01*
X218582Y213869D01*
X218527Y213770D01*
X218476Y213669D01*
X218428Y213566D01*
X218383Y213462D01*
X218343Y213356D01*
X218306Y213249D01*
X218273Y213141D01*
X218243Y213031D01*
X218218Y212921D01*
X218196Y212810D01*
X218179Y212698D01*
X218165Y212585D01*
X218155Y212472D01*
X218149Y212359D01*
X218147Y212246D01*
X218149Y212133D01*
X218155Y212020D01*
X218165Y211907D01*
X218179Y211794D01*
X218196Y211682D01*
X218218Y211571D01*
X218243Y211461D01*
X218273Y211351D01*
X218306Y211243D01*
X218343Y211136D01*
X218383Y211030D01*
X218428Y210926D01*
X218476Y210823D01*
X218527Y210722D01*
X218582Y210623D01*
X218640Y210526D01*
X218702Y210431D01*
X218767Y210338D01*
X218835Y210248D01*
X218906Y210160D01*
X218981Y210074D01*
X219058Y209991D01*
X219138Y209911D01*
X219221Y209834D01*
X219307Y209759D01*
X219395Y209688D01*
X219485Y209620D01*
X219578Y209555D01*
X219673Y209493D01*
X219770Y209435D01*
X219869Y209380D01*
X219970Y209329D01*
X220073Y209281D01*
X220177Y209236D01*
X220283Y209196D01*
X220390Y209159D01*
X220498Y209126D01*
X220608Y209096D01*
X220718Y209071D01*
X220829Y209049D01*
X220941Y209032D01*
X221054Y209018D01*
X221167Y209008D01*
X221280Y209002D01*
X221393Y209000D01*
X221393Y209001D02*
X224639Y209001D01*
X220744Y209001D02*
X218148Y203808D01*
X213282Y212896D02*
X210037Y215492D01*
X210037Y203808D01*
X213282Y203808D02*
X206791Y203808D01*
X201852Y210299D02*
X197958Y210299D01*
X197859Y210297D01*
X197759Y210291D01*
X197660Y210282D01*
X197562Y210269D01*
X197464Y210252D01*
X197366Y210231D01*
X197270Y210206D01*
X197175Y210178D01*
X197081Y210146D01*
X196988Y210111D01*
X196896Y210072D01*
X196806Y210029D01*
X196718Y209984D01*
X196631Y209934D01*
X196547Y209882D01*
X196464Y209826D01*
X196384Y209768D01*
X196306Y209706D01*
X196231Y209641D01*
X196158Y209573D01*
X196088Y209503D01*
X196020Y209430D01*
X195955Y209355D01*
X195893Y209277D01*
X195835Y209197D01*
X195779Y209114D01*
X195727Y209030D01*
X195677Y208943D01*
X195632Y208855D01*
X195589Y208765D01*
X195550Y208673D01*
X195515Y208580D01*
X195483Y208486D01*
X195455Y208391D01*
X195430Y208295D01*
X195409Y208197D01*
X195392Y208099D01*
X195379Y208001D01*
X195370Y207902D01*
X195364Y207802D01*
X195362Y207703D01*
X195361Y207703D02*
X195361Y207054D01*
X195363Y206941D01*
X195369Y206828D01*
X195379Y206715D01*
X195393Y206602D01*
X195410Y206490D01*
X195432Y206379D01*
X195457Y206269D01*
X195487Y206159D01*
X195520Y206051D01*
X195557Y205944D01*
X195597Y205838D01*
X195642Y205734D01*
X195690Y205631D01*
X195741Y205530D01*
X195796Y205431D01*
X195854Y205334D01*
X195916Y205239D01*
X195981Y205146D01*
X196049Y205056D01*
X196120Y204968D01*
X196195Y204882D01*
X196272Y204799D01*
X196352Y204719D01*
X196435Y204642D01*
X196521Y204567D01*
X196609Y204496D01*
X196699Y204428D01*
X196792Y204363D01*
X196887Y204301D01*
X196984Y204243D01*
X197083Y204188D01*
X197184Y204137D01*
X197287Y204089D01*
X197391Y204044D01*
X197497Y204004D01*
X197604Y203967D01*
X197712Y203934D01*
X197822Y203904D01*
X197932Y203879D01*
X198043Y203857D01*
X198155Y203840D01*
X198268Y203826D01*
X198381Y203816D01*
X198494Y203810D01*
X198607Y203808D01*
X198720Y203810D01*
X198833Y203816D01*
X198946Y203826D01*
X199059Y203840D01*
X199171Y203857D01*
X199282Y203879D01*
X199392Y203904D01*
X199502Y203934D01*
X199610Y203967D01*
X199717Y204004D01*
X199823Y204044D01*
X199927Y204089D01*
X200030Y204137D01*
X200131Y204188D01*
X200230Y204243D01*
X200327Y204301D01*
X200422Y204363D01*
X200515Y204428D01*
X200605Y204496D01*
X200693Y204567D01*
X200779Y204642D01*
X200862Y204719D01*
X200942Y204799D01*
X201019Y204882D01*
X201094Y204968D01*
X201165Y205056D01*
X201233Y205146D01*
X201298Y205239D01*
X201360Y205334D01*
X201418Y205431D01*
X201473Y205530D01*
X201524Y205631D01*
X201572Y205734D01*
X201617Y205838D01*
X201657Y205944D01*
X201694Y206051D01*
X201727Y206159D01*
X201757Y206269D01*
X201782Y206379D01*
X201804Y206490D01*
X201821Y206602D01*
X201835Y206715D01*
X201845Y206828D01*
X201851Y206941D01*
X201853Y207054D01*
X201852Y207054D02*
X201852Y210299D01*
X201853Y210299D02*
X201851Y210442D01*
X201845Y210585D01*
X201835Y210728D01*
X201821Y210870D01*
X201804Y211012D01*
X201782Y211154D01*
X201757Y211295D01*
X201727Y211435D01*
X201694Y211574D01*
X201657Y211712D01*
X201616Y211849D01*
X201572Y211985D01*
X201523Y212120D01*
X201471Y212253D01*
X201416Y212385D01*
X201356Y212515D01*
X201293Y212644D01*
X201227Y212771D01*
X201157Y212896D01*
X201084Y213018D01*
X201007Y213139D01*
X200927Y213258D01*
X200844Y213374D01*
X200758Y213489D01*
X200669Y213600D01*
X200576Y213710D01*
X200481Y213816D01*
X200382Y213920D01*
X200281Y214021D01*
X200177Y214120D01*
X200071Y214215D01*
X199961Y214308D01*
X199850Y214397D01*
X199735Y214483D01*
X199619Y214566D01*
X199500Y214646D01*
X199379Y214723D01*
X199257Y214796D01*
X199132Y214866D01*
X199005Y214932D01*
X198876Y214995D01*
X198746Y215055D01*
X198614Y215110D01*
X198481Y215162D01*
X198346Y215211D01*
X198210Y215255D01*
X198073Y215296D01*
X197935Y215333D01*
X197796Y215366D01*
X197656Y215396D01*
X197515Y215421D01*
X197373Y215443D01*
X197231Y215460D01*
X197089Y215474D01*
X196946Y215484D01*
X196803Y215490D01*
X196660Y215492D01*
D11*
X127000Y306000D02*
X127000Y350000D01*
X161000Y350000D02*
X161000Y306000D01*
D12*
X161639Y370808D02*
X161639Y382492D01*
X158393Y382492D01*
X158280Y382490D01*
X158167Y382484D01*
X158054Y382474D01*
X157941Y382460D01*
X157829Y382443D01*
X157718Y382421D01*
X157608Y382396D01*
X157498Y382366D01*
X157390Y382333D01*
X157283Y382296D01*
X157177Y382256D01*
X157073Y382211D01*
X156970Y382163D01*
X156869Y382112D01*
X156770Y382057D01*
X156673Y381999D01*
X156578Y381937D01*
X156485Y381872D01*
X156395Y381804D01*
X156307Y381733D01*
X156221Y381658D01*
X156138Y381581D01*
X156058Y381501D01*
X155981Y381418D01*
X155906Y381332D01*
X155835Y381244D01*
X155767Y381154D01*
X155702Y381061D01*
X155640Y380966D01*
X155582Y380869D01*
X155527Y380770D01*
X155476Y380669D01*
X155428Y380566D01*
X155383Y380462D01*
X155343Y380356D01*
X155306Y380249D01*
X155273Y380141D01*
X155243Y380031D01*
X155218Y379921D01*
X155196Y379810D01*
X155179Y379698D01*
X155165Y379585D01*
X155155Y379472D01*
X155149Y379359D01*
X155147Y379246D01*
X155149Y379133D01*
X155155Y379020D01*
X155165Y378907D01*
X155179Y378794D01*
X155196Y378682D01*
X155218Y378571D01*
X155243Y378461D01*
X155273Y378351D01*
X155306Y378243D01*
X155343Y378136D01*
X155383Y378030D01*
X155428Y377926D01*
X155476Y377823D01*
X155527Y377722D01*
X155582Y377623D01*
X155640Y377526D01*
X155702Y377431D01*
X155767Y377338D01*
X155835Y377248D01*
X155906Y377160D01*
X155981Y377074D01*
X156058Y376991D01*
X156138Y376911D01*
X156221Y376834D01*
X156307Y376759D01*
X156395Y376688D01*
X156485Y376620D01*
X156578Y376555D01*
X156673Y376493D01*
X156770Y376435D01*
X156869Y376380D01*
X156970Y376329D01*
X157073Y376281D01*
X157177Y376236D01*
X157283Y376196D01*
X157390Y376159D01*
X157498Y376126D01*
X157608Y376096D01*
X157718Y376071D01*
X157829Y376049D01*
X157941Y376032D01*
X158054Y376018D01*
X158167Y376008D01*
X158280Y376002D01*
X158393Y376000D01*
X158393Y376001D02*
X161639Y376001D01*
X157744Y376001D02*
X155148Y370808D01*
X150282Y379896D02*
X147037Y382492D01*
X147037Y370808D01*
X150282Y370808D02*
X143791Y370808D01*
X138852Y381194D02*
X138852Y382492D01*
X132361Y382492D01*
X135607Y370808D01*
D11*
X157000Y110000D02*
X171000Y110000D01*
X171000Y92000D02*
X157000Y92000D01*
D13*
X175726Y114881D02*
X175726Y124279D01*
X173115Y124279D01*
X173014Y124277D01*
X172913Y124271D01*
X172812Y124261D01*
X172712Y124248D01*
X172612Y124230D01*
X172513Y124209D01*
X172415Y124183D01*
X172318Y124154D01*
X172222Y124122D01*
X172128Y124085D01*
X172035Y124045D01*
X171943Y124001D01*
X171854Y123954D01*
X171766Y123903D01*
X171680Y123849D01*
X171597Y123792D01*
X171515Y123732D01*
X171437Y123668D01*
X171360Y123602D01*
X171287Y123532D01*
X171216Y123460D01*
X171148Y123385D01*
X171083Y123307D01*
X171021Y123227D01*
X170962Y123145D01*
X170906Y123060D01*
X170854Y122974D01*
X170805Y122885D01*
X170759Y122794D01*
X170718Y122702D01*
X170679Y122608D01*
X170645Y122513D01*
X170614Y122417D01*
X170587Y122319D01*
X170563Y122221D01*
X170544Y122121D01*
X170528Y122021D01*
X170516Y121921D01*
X170508Y121820D01*
X170504Y121719D01*
X170504Y121617D01*
X170508Y121516D01*
X170516Y121415D01*
X170528Y121315D01*
X170544Y121215D01*
X170563Y121115D01*
X170587Y121017D01*
X170614Y120919D01*
X170645Y120823D01*
X170679Y120728D01*
X170718Y120634D01*
X170759Y120542D01*
X170805Y120451D01*
X170854Y120363D01*
X170906Y120276D01*
X170962Y120191D01*
X171021Y120109D01*
X171083Y120029D01*
X171148Y119951D01*
X171216Y119876D01*
X171287Y119804D01*
X171360Y119734D01*
X171437Y119668D01*
X171515Y119604D01*
X171597Y119544D01*
X171680Y119487D01*
X171766Y119433D01*
X171854Y119382D01*
X171943Y119335D01*
X172035Y119291D01*
X172128Y119251D01*
X172222Y119214D01*
X172318Y119182D01*
X172415Y119153D01*
X172513Y119127D01*
X172612Y119106D01*
X172712Y119088D01*
X172812Y119075D01*
X172913Y119065D01*
X173014Y119059D01*
X173115Y119057D01*
X173115Y119058D02*
X175726Y119058D01*
X172593Y119058D02*
X170505Y114881D01*
X166639Y122191D02*
X164029Y124279D01*
X164029Y114881D01*
X166639Y114881D02*
X161418Y114881D01*
X157496Y117492D02*
X157494Y117593D01*
X157488Y117694D01*
X157478Y117795D01*
X157465Y117895D01*
X157447Y117995D01*
X157426Y118094D01*
X157400Y118192D01*
X157371Y118289D01*
X157339Y118385D01*
X157302Y118479D01*
X157262Y118572D01*
X157218Y118664D01*
X157171Y118753D01*
X157120Y118841D01*
X157066Y118927D01*
X157009Y119010D01*
X156949Y119092D01*
X156885Y119170D01*
X156819Y119247D01*
X156749Y119320D01*
X156677Y119391D01*
X156602Y119459D01*
X156524Y119524D01*
X156444Y119586D01*
X156362Y119645D01*
X156277Y119701D01*
X156191Y119753D01*
X156102Y119802D01*
X156011Y119848D01*
X155919Y119889D01*
X155825Y119928D01*
X155730Y119962D01*
X155634Y119993D01*
X155536Y120020D01*
X155438Y120044D01*
X155338Y120063D01*
X155238Y120079D01*
X155138Y120091D01*
X155037Y120099D01*
X154936Y120103D01*
X154834Y120103D01*
X154733Y120099D01*
X154632Y120091D01*
X154532Y120079D01*
X154432Y120063D01*
X154332Y120044D01*
X154234Y120020D01*
X154136Y119993D01*
X154040Y119962D01*
X153945Y119928D01*
X153851Y119889D01*
X153759Y119848D01*
X153668Y119802D01*
X153580Y119753D01*
X153493Y119701D01*
X153408Y119645D01*
X153326Y119586D01*
X153246Y119524D01*
X153168Y119459D01*
X153093Y119391D01*
X153021Y119320D01*
X152951Y119247D01*
X152885Y119170D01*
X152821Y119092D01*
X152761Y119010D01*
X152704Y118927D01*
X152650Y118841D01*
X152599Y118753D01*
X152552Y118664D01*
X152508Y118572D01*
X152468Y118479D01*
X152431Y118385D01*
X152399Y118289D01*
X152370Y118192D01*
X152344Y118094D01*
X152323Y117995D01*
X152305Y117895D01*
X152292Y117795D01*
X152282Y117694D01*
X152276Y117593D01*
X152274Y117492D01*
X152276Y117391D01*
X152282Y117290D01*
X152292Y117189D01*
X152305Y117089D01*
X152323Y116989D01*
X152344Y116890D01*
X152370Y116792D01*
X152399Y116695D01*
X152431Y116599D01*
X152468Y116505D01*
X152508Y116412D01*
X152552Y116320D01*
X152599Y116231D01*
X152650Y116143D01*
X152704Y116057D01*
X152761Y115974D01*
X152821Y115892D01*
X152885Y115814D01*
X152951Y115737D01*
X153021Y115664D01*
X153093Y115593D01*
X153168Y115525D01*
X153246Y115460D01*
X153326Y115398D01*
X153408Y115339D01*
X153493Y115283D01*
X153580Y115231D01*
X153668Y115182D01*
X153759Y115136D01*
X153851Y115095D01*
X153945Y115056D01*
X154040Y115022D01*
X154136Y114991D01*
X154234Y114964D01*
X154332Y114940D01*
X154432Y114921D01*
X154532Y114905D01*
X154632Y114893D01*
X154733Y114885D01*
X154834Y114881D01*
X154936Y114881D01*
X155037Y114885D01*
X155138Y114893D01*
X155238Y114905D01*
X155338Y114921D01*
X155438Y114940D01*
X155536Y114964D01*
X155634Y114991D01*
X155730Y115022D01*
X155825Y115056D01*
X155919Y115095D01*
X156011Y115136D01*
X156102Y115182D01*
X156190Y115231D01*
X156277Y115283D01*
X156362Y115339D01*
X156444Y115398D01*
X156524Y115460D01*
X156602Y115525D01*
X156677Y115593D01*
X156749Y115664D01*
X156819Y115737D01*
X156885Y115814D01*
X156949Y115892D01*
X157009Y115974D01*
X157066Y116057D01*
X157120Y116143D01*
X157171Y116231D01*
X157218Y116320D01*
X157262Y116412D01*
X157302Y116505D01*
X157339Y116599D01*
X157371Y116695D01*
X157400Y116792D01*
X157426Y116890D01*
X157447Y116989D01*
X157465Y117089D01*
X157478Y117189D01*
X157488Y117290D01*
X157494Y117391D01*
X157496Y117492D01*
X156973Y122191D02*
X156971Y122281D01*
X156965Y122370D01*
X156956Y122460D01*
X156942Y122549D01*
X156925Y122637D01*
X156904Y122724D01*
X156879Y122811D01*
X156850Y122896D01*
X156818Y122980D01*
X156783Y123062D01*
X156743Y123143D01*
X156701Y123222D01*
X156655Y123299D01*
X156605Y123374D01*
X156553Y123447D01*
X156497Y123518D01*
X156439Y123586D01*
X156377Y123651D01*
X156313Y123714D01*
X156246Y123774D01*
X156177Y123831D01*
X156105Y123885D01*
X156031Y123936D01*
X155955Y123984D01*
X155877Y124028D01*
X155797Y124069D01*
X155715Y124107D01*
X155632Y124141D01*
X155547Y124171D01*
X155461Y124198D01*
X155375Y124221D01*
X155287Y124240D01*
X155198Y124255D01*
X155109Y124267D01*
X155020Y124275D01*
X154930Y124279D01*
X154840Y124279D01*
X154750Y124275D01*
X154661Y124267D01*
X154572Y124255D01*
X154483Y124240D01*
X154395Y124221D01*
X154309Y124198D01*
X154223Y124171D01*
X154138Y124141D01*
X154055Y124107D01*
X153973Y124069D01*
X153893Y124028D01*
X153815Y123984D01*
X153739Y123936D01*
X153665Y123885D01*
X153593Y123831D01*
X153524Y123774D01*
X153457Y123714D01*
X153393Y123651D01*
X153331Y123586D01*
X153273Y123518D01*
X153217Y123447D01*
X153165Y123374D01*
X153115Y123299D01*
X153069Y123222D01*
X153027Y123143D01*
X152987Y123062D01*
X152952Y122980D01*
X152920Y122896D01*
X152891Y122811D01*
X152866Y122724D01*
X152845Y122637D01*
X152828Y122549D01*
X152814Y122460D01*
X152805Y122370D01*
X152799Y122281D01*
X152797Y122191D01*
X152799Y122101D01*
X152805Y122012D01*
X152814Y121922D01*
X152828Y121833D01*
X152845Y121745D01*
X152866Y121658D01*
X152891Y121571D01*
X152920Y121486D01*
X152952Y121402D01*
X152987Y121320D01*
X153027Y121239D01*
X153069Y121160D01*
X153115Y121083D01*
X153165Y121008D01*
X153217Y120935D01*
X153273Y120864D01*
X153331Y120796D01*
X153393Y120731D01*
X153457Y120668D01*
X153524Y120608D01*
X153593Y120551D01*
X153665Y120497D01*
X153739Y120446D01*
X153815Y120398D01*
X153893Y120354D01*
X153973Y120313D01*
X154055Y120275D01*
X154138Y120241D01*
X154223Y120211D01*
X154309Y120184D01*
X154395Y120161D01*
X154483Y120142D01*
X154572Y120127D01*
X154661Y120115D01*
X154750Y120107D01*
X154840Y120103D01*
X154930Y120103D01*
X155020Y120107D01*
X155109Y120115D01*
X155198Y120127D01*
X155287Y120142D01*
X155375Y120161D01*
X155461Y120184D01*
X155547Y120211D01*
X155632Y120241D01*
X155715Y120275D01*
X155797Y120313D01*
X155877Y120354D01*
X155955Y120398D01*
X156031Y120446D01*
X156105Y120497D01*
X156177Y120551D01*
X156246Y120608D01*
X156313Y120668D01*
X156377Y120731D01*
X156439Y120796D01*
X156497Y120864D01*
X156553Y120935D01*
X156605Y121008D01*
X156655Y121083D01*
X156701Y121160D01*
X156743Y121239D01*
X156783Y121320D01*
X156818Y121402D01*
X156850Y121486D01*
X156879Y121571D01*
X156904Y121658D01*
X156925Y121745D01*
X156942Y121833D01*
X156956Y121922D01*
X156965Y122012D01*
X156971Y122101D01*
X156973Y122191D01*
M02*
