G04 EAGLE Gerber RS-274X export*
G75*
%MOMM*%
%FSLAX34Y34*%
%LPD*%
%INSilkscreen Top*%
%IPPOS*%
%AMOC8*
5,1,8,0,0,1.08239X$1,22.5*%
G01*
%ADD10C,0.152400*%
%ADD11C,0.127000*%
%ADD12C,0.300000*%
%ADD13C,0.076200*%
%ADD14C,0.101600*%


D10*
X70650Y521700D02*
X83350Y521700D01*
X89700Y515350D01*
X89700Y502650D01*
X83350Y496300D01*
X64300Y502650D02*
X64300Y515350D01*
X70650Y521700D01*
X64300Y502650D02*
X70650Y496300D01*
X83350Y496300D01*
X83350Y61700D02*
X70650Y61700D01*
X83350Y61700D02*
X89700Y55350D01*
X89700Y42650D01*
X83350Y36300D01*
X64300Y42650D02*
X64300Y55350D01*
X70650Y61700D01*
X64300Y42650D02*
X70650Y36300D01*
X83350Y36300D01*
X280650Y61700D02*
X293350Y61700D01*
X299700Y55350D01*
X299700Y42650D01*
X293350Y36300D01*
X274300Y42650D02*
X274300Y55350D01*
X280650Y61700D01*
X274300Y42650D02*
X280650Y36300D01*
X293350Y36300D01*
X490650Y61700D02*
X503350Y61700D01*
X509700Y55350D01*
X509700Y42650D01*
X503350Y36300D01*
X484300Y42650D02*
X484300Y55350D01*
X490650Y61700D01*
X484300Y42650D02*
X490650Y36300D01*
X503350Y36300D01*
X293350Y521700D02*
X280650Y521700D01*
X293350Y521700D02*
X299700Y515350D01*
X299700Y502650D01*
X293350Y496300D01*
X274300Y502650D02*
X274300Y515350D01*
X280650Y521700D01*
X274300Y502650D02*
X280650Y496300D01*
X293350Y496300D01*
X490650Y521700D02*
X503350Y521700D01*
X509700Y515350D01*
X509700Y502650D01*
X503350Y496300D01*
X484300Y502650D02*
X484300Y515350D01*
X490650Y521700D01*
X484300Y502650D02*
X490650Y496300D01*
X503350Y496300D01*
X83350Y481700D02*
X70650Y481700D01*
X83350Y481700D02*
X89700Y475350D01*
X89700Y462650D01*
X83350Y456300D01*
X64300Y462650D02*
X64300Y475350D01*
X70650Y481700D01*
X64300Y462650D02*
X70650Y456300D01*
X83350Y456300D01*
X280650Y481700D02*
X293350Y481700D01*
X299700Y475350D01*
X299700Y462650D01*
X293350Y456300D01*
X274300Y462650D02*
X274300Y475350D01*
X280650Y481700D01*
X274300Y462650D02*
X280650Y456300D01*
X293350Y456300D01*
X490650Y481700D02*
X503350Y481700D01*
X509700Y475350D01*
X509700Y462650D01*
X503350Y456300D01*
X484300Y462650D02*
X484300Y475350D01*
X490650Y481700D01*
X484300Y462650D02*
X490650Y456300D01*
X503350Y456300D01*
X83350Y271700D02*
X70650Y271700D01*
X83350Y271700D02*
X89700Y265350D01*
X89700Y252650D01*
X83350Y246300D01*
X64300Y252650D02*
X64300Y265350D01*
X70650Y271700D01*
X64300Y252650D02*
X70650Y246300D01*
X83350Y246300D01*
X280650Y271700D02*
X293350Y271700D01*
X299700Y265350D01*
X299700Y252650D01*
X293350Y246300D01*
X274300Y252650D02*
X274300Y265350D01*
X280650Y271700D01*
X274300Y252650D02*
X280650Y246300D01*
X293350Y246300D01*
X490650Y271700D02*
X503350Y271700D01*
X509700Y265350D01*
X509700Y252650D01*
X503350Y246300D01*
X484300Y252650D02*
X484300Y265350D01*
X490650Y271700D01*
X484300Y252650D02*
X490650Y246300D01*
X503350Y246300D01*
D11*
X449050Y9300D02*
X448131Y7864D01*
X447177Y6450D01*
X446189Y5061D01*
X445168Y3695D01*
X444113Y2355D01*
X443026Y1042D01*
X441907Y-245D01*
X440757Y-1504D01*
X439577Y-2735D01*
X438367Y-3936D01*
X437128Y-5108D01*
X435861Y-6249D01*
X434566Y-7358D01*
X433244Y-8436D01*
X431897Y-9481D01*
X430524Y-10493D01*
X429127Y-11471D01*
X427707Y-12414D01*
X426264Y-13323D01*
X424799Y-14196D01*
X423314Y-15033D01*
X421808Y-15834D01*
X420283Y-16597D01*
X418741Y-17323D01*
X417180Y-18011D01*
X415604Y-18661D01*
X414012Y-19272D01*
X412405Y-19844D01*
X410786Y-20376D01*
X409153Y-20869D01*
X407509Y-21322D01*
X405855Y-21734D01*
X404190Y-22106D01*
X402518Y-22438D01*
X400837Y-22728D01*
X399151Y-22977D01*
X397458Y-23185D01*
X395761Y-23351D01*
X394060Y-23476D01*
X392357Y-23559D01*
X390653Y-23601D01*
X388947Y-23601D01*
X387243Y-23559D01*
X385540Y-23476D01*
X383839Y-23351D01*
X382142Y-23185D01*
X380449Y-22977D01*
X378763Y-22728D01*
X377082Y-22438D01*
X375410Y-22106D01*
X373745Y-21734D01*
X372091Y-21322D01*
X370447Y-20869D01*
X368814Y-20376D01*
X367195Y-19844D01*
X365588Y-19272D01*
X363996Y-18661D01*
X362420Y-18011D01*
X360859Y-17323D01*
X359317Y-16597D01*
X357792Y-15834D01*
X356286Y-15033D01*
X354801Y-14196D01*
X353336Y-13323D01*
X351893Y-12414D01*
X350473Y-11471D01*
X349076Y-10493D01*
X347703Y-9481D01*
X346356Y-8436D01*
X345034Y-7358D01*
X343739Y-6249D01*
X342472Y-5108D01*
X341233Y-3936D01*
X340023Y-2735D01*
X338843Y-1504D01*
X337693Y-245D01*
X336574Y1042D01*
X335487Y2355D01*
X334432Y3695D01*
X333411Y5061D01*
X332423Y6450D01*
X331469Y7864D01*
X330550Y9300D01*
X454000Y18700D02*
X454662Y20275D01*
X455285Y21865D01*
X455870Y23470D01*
X456415Y25089D01*
X456920Y26721D01*
X457386Y28364D01*
X457811Y30019D01*
X458196Y31683D01*
X458540Y33356D01*
X458843Y35037D01*
X459105Y36725D01*
X459325Y38419D01*
X459504Y40118D01*
X459642Y41821D01*
X459738Y43526D01*
X459792Y45234D01*
X459805Y46942D01*
X459776Y48650D01*
X459706Y50356D01*
X459593Y52061D01*
X459439Y53762D01*
X459244Y55459D01*
X459007Y57151D01*
X458730Y58836D01*
X458411Y60514D01*
X458051Y62184D01*
X457650Y63845D01*
X457209Y65495D01*
X456728Y67134D01*
X456207Y68761D01*
X455647Y70375D01*
X455047Y71974D01*
X454409Y73558D01*
X453732Y75127D01*
X453016Y76678D01*
X452264Y78211D01*
X451474Y79726D01*
X450647Y81221D01*
X449784Y82695D01*
X448885Y84148D01*
X447952Y85578D01*
X446983Y86985D01*
X445981Y88368D01*
X444945Y89726D01*
X443876Y91059D01*
X442775Y92365D01*
X441642Y93644D01*
X440479Y94894D01*
X439285Y96116D01*
X438062Y97309D01*
X436810Y98471D01*
X435530Y99602D01*
X434223Y100702D01*
X432890Y101769D01*
X431530Y102804D01*
X430146Y103805D01*
X428738Y104772D01*
X427307Y105705D01*
X425853Y106602D01*
X424378Y107463D01*
X422883Y108289D01*
X421367Y109077D01*
X419833Y109828D01*
X418281Y110542D01*
X416712Y111217D01*
X415127Y111854D01*
X413527Y112452D01*
X411913Y113011D01*
X410286Y113531D01*
X408646Y114010D01*
X406995Y114449D01*
X405334Y114848D01*
X403664Y115206D01*
X401986Y115524D01*
X400300Y115800D01*
X379300Y115800D02*
X377614Y115524D01*
X375936Y115206D01*
X374266Y114848D01*
X372605Y114449D01*
X370954Y114010D01*
X369314Y113531D01*
X367687Y113011D01*
X366073Y112452D01*
X364473Y111854D01*
X362888Y111217D01*
X361319Y110542D01*
X359767Y109828D01*
X358233Y109077D01*
X356717Y108289D01*
X355222Y107463D01*
X353747Y106602D01*
X352293Y105705D01*
X350862Y104772D01*
X349454Y103805D01*
X348070Y102804D01*
X346710Y101769D01*
X345377Y100702D01*
X344070Y99602D01*
X342790Y98471D01*
X341538Y97309D01*
X340315Y96116D01*
X339121Y94894D01*
X337958Y93644D01*
X336825Y92365D01*
X335724Y91059D01*
X334655Y89726D01*
X333619Y88368D01*
X332617Y86985D01*
X331648Y85578D01*
X330715Y84148D01*
X329816Y82695D01*
X328953Y81221D01*
X328126Y79726D01*
X327336Y78211D01*
X326584Y76678D01*
X325868Y75127D01*
X325191Y73558D01*
X324553Y71974D01*
X323953Y70375D01*
X323393Y68761D01*
X322872Y67134D01*
X322391Y65495D01*
X321950Y63845D01*
X321549Y62184D01*
X321189Y60514D01*
X320870Y58836D01*
X320593Y57151D01*
X320356Y55459D01*
X320161Y53762D01*
X320007Y52061D01*
X319894Y50356D01*
X319824Y48650D01*
X319795Y46942D01*
X319808Y45234D01*
X319862Y43526D01*
X319958Y41821D01*
X320096Y40118D01*
X320275Y38419D01*
X320495Y36725D01*
X320757Y35037D01*
X321060Y33356D01*
X321404Y31683D01*
X321789Y30019D01*
X322214Y28364D01*
X322680Y26721D01*
X323185Y25089D01*
X323730Y23470D01*
X324315Y21865D01*
X324938Y20275D01*
X325600Y18700D01*
X442300Y92900D02*
X442300Y121600D01*
X440400Y121600D01*
X419100Y121600D02*
X400400Y121600D01*
X379200Y121600D02*
X360500Y121600D01*
X359900Y121700D01*
X339200Y121600D02*
X337300Y121600D01*
X337300Y92900D01*
D12*
X430800Y136600D02*
X430802Y136663D01*
X430808Y136725D01*
X430818Y136787D01*
X430831Y136849D01*
X430849Y136909D01*
X430870Y136968D01*
X430895Y137026D01*
X430924Y137082D01*
X430956Y137136D01*
X430991Y137188D01*
X431029Y137237D01*
X431071Y137285D01*
X431115Y137329D01*
X431163Y137371D01*
X431212Y137409D01*
X431264Y137444D01*
X431318Y137476D01*
X431374Y137505D01*
X431432Y137530D01*
X431491Y137551D01*
X431551Y137569D01*
X431613Y137582D01*
X431675Y137592D01*
X431737Y137598D01*
X431800Y137600D01*
X431863Y137598D01*
X431925Y137592D01*
X431987Y137582D01*
X432049Y137569D01*
X432109Y137551D01*
X432168Y137530D01*
X432226Y137505D01*
X432282Y137476D01*
X432336Y137444D01*
X432388Y137409D01*
X432437Y137371D01*
X432485Y137329D01*
X432529Y137285D01*
X432571Y137237D01*
X432609Y137188D01*
X432644Y137136D01*
X432676Y137082D01*
X432705Y137026D01*
X432730Y136968D01*
X432751Y136909D01*
X432769Y136849D01*
X432782Y136787D01*
X432792Y136725D01*
X432798Y136663D01*
X432800Y136600D01*
X432798Y136537D01*
X432792Y136475D01*
X432782Y136413D01*
X432769Y136351D01*
X432751Y136291D01*
X432730Y136232D01*
X432705Y136174D01*
X432676Y136118D01*
X432644Y136064D01*
X432609Y136012D01*
X432571Y135963D01*
X432529Y135915D01*
X432485Y135871D01*
X432437Y135829D01*
X432388Y135791D01*
X432336Y135756D01*
X432282Y135724D01*
X432226Y135695D01*
X432168Y135670D01*
X432109Y135649D01*
X432049Y135631D01*
X431987Y135618D01*
X431925Y135608D01*
X431863Y135602D01*
X431800Y135600D01*
X431737Y135602D01*
X431675Y135608D01*
X431613Y135618D01*
X431551Y135631D01*
X431491Y135649D01*
X431432Y135670D01*
X431374Y135695D01*
X431318Y135724D01*
X431264Y135756D01*
X431212Y135791D01*
X431163Y135829D01*
X431115Y135871D01*
X431071Y135915D01*
X431029Y135963D01*
X430991Y136012D01*
X430956Y136064D01*
X430924Y136118D01*
X430895Y136174D01*
X430870Y136232D01*
X430849Y136291D01*
X430831Y136351D01*
X430818Y136413D01*
X430808Y136475D01*
X430802Y136537D01*
X430800Y136600D01*
D11*
X213900Y32200D02*
X213900Y-18300D01*
X144900Y-18300D01*
X144900Y32200D01*
X213900Y57200D02*
X213900Y60200D01*
X144900Y60200D01*
X144900Y57200D01*
X264550Y152500D02*
X270900Y158850D01*
X270900Y171550D02*
X264550Y177900D01*
X270900Y196950D02*
X264550Y203300D01*
X270900Y209650D01*
X264550Y228700D02*
X270900Y235050D01*
X270900Y247750D02*
X264550Y254100D01*
X270900Y260450D01*
X270900Y273150D02*
X264550Y279500D01*
X270900Y285850D01*
X270900Y298550D02*
X264550Y304900D01*
X270900Y311250D01*
X270900Y323950D02*
X264550Y330300D01*
X270900Y336650D01*
X270900Y349350D02*
X264550Y355700D01*
X270900Y362050D01*
X270900Y374750D02*
X264550Y381100D01*
X270900Y400150D02*
X264550Y406500D01*
X270900Y412850D01*
X270900Y425550D02*
X264550Y431900D01*
X270900Y438250D01*
X270900Y450950D02*
X264550Y457300D01*
X251850Y457300D02*
X245500Y450950D01*
X245500Y438250D01*
X251850Y431900D01*
X245500Y425550D01*
X245500Y412850D01*
X251850Y406500D01*
X245500Y400150D01*
X245500Y387450D01*
X251850Y381100D01*
X245500Y374750D01*
X245500Y362050D01*
X251850Y355700D01*
X245500Y349350D01*
X245500Y336650D01*
X251850Y330300D01*
X245500Y323950D01*
X245500Y311250D01*
X251850Y304900D01*
X245500Y298550D01*
X245500Y285850D01*
X251850Y279500D01*
X245500Y273150D01*
X245500Y260450D01*
X251850Y254100D01*
X245500Y247750D01*
X245500Y235050D01*
X251850Y228700D01*
X245500Y222350D01*
X245500Y209650D01*
X251850Y203300D01*
X245500Y196950D01*
X245500Y184250D01*
X251850Y177900D01*
X245500Y171550D01*
X245500Y158850D01*
X251850Y152500D01*
X118500Y158850D02*
X112150Y152500D01*
X118500Y450950D02*
X112150Y457300D01*
X93100Y158850D02*
X99450Y152500D01*
X93100Y450950D02*
X99450Y457300D01*
X270900Y184250D02*
X270900Y127100D01*
X270900Y184250D02*
X270900Y222350D01*
X270900Y387450D01*
X93100Y425550D02*
X93100Y438250D01*
X93100Y425550D02*
X93100Y412850D01*
X93100Y400150D01*
X93100Y387450D01*
X93100Y374750D01*
X93100Y362050D01*
X93100Y349350D01*
X93100Y336650D01*
X93100Y323950D01*
X93100Y311250D01*
X93100Y298550D01*
X93100Y285850D01*
X93100Y273150D01*
X93100Y260450D01*
X93100Y247750D01*
X93100Y235050D01*
X93100Y222350D01*
X93100Y209650D01*
X93100Y196950D01*
X93100Y184250D01*
X93100Y171550D01*
X264550Y381100D02*
X270900Y387450D01*
X270900Y184250D02*
X264550Y177900D01*
X270900Y222350D02*
X264550Y228700D01*
X99450Y431900D02*
X93100Y438250D01*
X99450Y431900D02*
X93100Y425550D01*
X93100Y412850D02*
X99450Y406500D01*
X93100Y400150D01*
X93100Y387450D02*
X99450Y381100D01*
X93100Y374750D01*
X93100Y362050D02*
X99450Y355700D01*
X93100Y349350D01*
X93100Y336650D02*
X99450Y330300D01*
X93100Y323950D01*
X93100Y311250D02*
X99450Y304900D01*
X93100Y298550D01*
X93100Y285850D02*
X99450Y279500D01*
X93100Y273150D01*
X93100Y260450D02*
X99450Y254100D01*
X93100Y247750D01*
X93100Y235050D02*
X99450Y228700D01*
X93100Y222350D01*
X93100Y209650D02*
X99450Y203300D01*
X93100Y196950D01*
X118500Y438250D02*
X118500Y450950D01*
X118500Y438250D02*
X112150Y431900D01*
X118500Y425550D01*
X118500Y412850D01*
X112150Y406500D01*
X118500Y400150D01*
X118500Y387450D01*
X112150Y381100D01*
X118500Y374750D01*
X118500Y362050D01*
X112150Y355700D01*
X118500Y349350D01*
X118500Y336650D01*
X112150Y330300D01*
X118500Y323950D01*
X118500Y311250D01*
X112150Y304900D01*
X118500Y298550D01*
X118500Y285850D01*
X112150Y279500D01*
X118500Y273150D01*
X118500Y260450D01*
X112150Y254100D01*
X118500Y247750D01*
X118500Y235050D01*
X112150Y228700D01*
X118500Y222350D01*
X118500Y209650D01*
X112150Y203300D01*
X118500Y196950D01*
X118500Y184250D01*
X112150Y177900D01*
X118500Y171550D01*
X118500Y158850D01*
X99450Y177900D02*
X93100Y171550D01*
X99450Y177900D02*
X93100Y184250D01*
X270900Y387450D02*
X270900Y463650D01*
X270900Y476350D01*
X270900Y489050D01*
X270900Y501750D01*
X270900Y514450D01*
X270900Y527150D01*
X270900Y558900D01*
X213750Y558900D01*
X150250Y558900D02*
X93100Y558900D01*
X93100Y527150D01*
X93100Y514450D01*
X93100Y501750D01*
X93100Y489050D01*
X93100Y476350D01*
X93100Y463650D01*
X93100Y438250D01*
X213750Y127100D02*
X270900Y127100D01*
X213750Y127100D02*
X150250Y127100D01*
X93100Y127100D01*
X93100Y171550D01*
X264550Y457300D02*
X270900Y463650D01*
X270900Y476350D02*
X264550Y482700D01*
X270900Y489050D01*
X270900Y501750D02*
X264550Y508100D01*
X270900Y514450D01*
X270900Y527150D02*
X264550Y533500D01*
X251850Y533500D01*
X245500Y527150D01*
X245500Y514450D01*
X251850Y508100D01*
X245500Y501750D01*
X245500Y489050D01*
X251850Y482700D01*
X245500Y476350D01*
X245500Y463650D01*
X251850Y457300D01*
X251850Y152500D02*
X264550Y152500D01*
X112150Y152500D02*
X99450Y152500D01*
X112150Y457300D02*
X118500Y463650D01*
X118500Y476350D01*
X112150Y482700D01*
X118500Y489050D01*
X118500Y501750D01*
X112150Y508100D01*
X118500Y514450D01*
X118500Y527150D01*
X112150Y533500D01*
X99450Y533500D01*
X93100Y527150D01*
X93100Y514450D02*
X99450Y508100D01*
X93100Y501750D01*
X93100Y489050D02*
X99450Y482700D01*
X93100Y476350D01*
X93100Y463650D02*
X99450Y457300D01*
X213750Y482700D02*
X213750Y558900D01*
X213750Y482700D02*
X150250Y482700D01*
X150250Y558900D01*
D10*
X173872Y500548D02*
X185612Y500548D01*
X185612Y500547D02*
X185745Y500549D01*
X185877Y500555D01*
X186009Y500565D01*
X186141Y500578D01*
X186273Y500596D01*
X186403Y500617D01*
X186534Y500642D01*
X186663Y500671D01*
X186791Y500704D01*
X186919Y500740D01*
X187045Y500780D01*
X187170Y500824D01*
X187294Y500872D01*
X187416Y500923D01*
X187537Y500978D01*
X187656Y501036D01*
X187774Y501098D01*
X187889Y501163D01*
X188003Y501232D01*
X188114Y501303D01*
X188223Y501379D01*
X188330Y501457D01*
X188435Y501538D01*
X188537Y501623D01*
X188637Y501710D01*
X188734Y501800D01*
X188829Y501893D01*
X188920Y501989D01*
X189009Y502087D01*
X189095Y502188D01*
X189178Y502292D01*
X189258Y502398D01*
X189334Y502506D01*
X189408Y502616D01*
X189478Y502729D01*
X189545Y502843D01*
X189608Y502960D01*
X189668Y503078D01*
X189725Y503198D01*
X189778Y503320D01*
X189827Y503443D01*
X189873Y503567D01*
X189915Y503693D01*
X189953Y503820D01*
X189988Y503948D01*
X190019Y504077D01*
X190046Y504206D01*
X190069Y504337D01*
X190089Y504468D01*
X190104Y504600D01*
X190116Y504732D01*
X190124Y504864D01*
X190128Y504997D01*
X190128Y505129D01*
X190124Y505262D01*
X190116Y505394D01*
X190104Y505526D01*
X190089Y505658D01*
X190069Y505789D01*
X190046Y505920D01*
X190019Y506049D01*
X189988Y506178D01*
X189953Y506306D01*
X189915Y506433D01*
X189873Y506559D01*
X189827Y506683D01*
X189778Y506806D01*
X189725Y506928D01*
X189668Y507048D01*
X189608Y507166D01*
X189545Y507283D01*
X189478Y507397D01*
X189408Y507510D01*
X189334Y507620D01*
X189258Y507728D01*
X189178Y507834D01*
X189095Y507938D01*
X189009Y508039D01*
X188920Y508137D01*
X188829Y508233D01*
X188734Y508326D01*
X188637Y508416D01*
X188537Y508503D01*
X188435Y508588D01*
X188330Y508669D01*
X188223Y508747D01*
X188114Y508823D01*
X188003Y508894D01*
X187889Y508963D01*
X187774Y509028D01*
X187656Y509090D01*
X187537Y509148D01*
X187416Y509203D01*
X187294Y509254D01*
X187170Y509302D01*
X187045Y509346D01*
X186919Y509386D01*
X186791Y509422D01*
X186663Y509455D01*
X186534Y509484D01*
X186403Y509509D01*
X186273Y509530D01*
X186141Y509548D01*
X186009Y509561D01*
X185877Y509571D01*
X185745Y509577D01*
X185612Y509579D01*
X173872Y509579D01*
X186516Y525210D02*
X186634Y525208D01*
X186752Y525202D01*
X186870Y525193D01*
X186987Y525179D01*
X187104Y525162D01*
X187221Y525141D01*
X187336Y525116D01*
X187451Y525087D01*
X187565Y525054D01*
X187677Y525018D01*
X187788Y524978D01*
X187898Y524935D01*
X188007Y524888D01*
X188114Y524838D01*
X188219Y524783D01*
X188322Y524726D01*
X188423Y524665D01*
X188523Y524601D01*
X188620Y524534D01*
X188715Y524464D01*
X188807Y524390D01*
X188898Y524314D01*
X188985Y524234D01*
X189070Y524152D01*
X189152Y524067D01*
X189232Y523980D01*
X189308Y523889D01*
X189382Y523797D01*
X189452Y523702D01*
X189519Y523605D01*
X189583Y523505D01*
X189644Y523404D01*
X189701Y523301D01*
X189756Y523196D01*
X189806Y523089D01*
X189853Y522980D01*
X189896Y522870D01*
X189936Y522759D01*
X189972Y522647D01*
X190005Y522533D01*
X190034Y522418D01*
X190059Y522303D01*
X190080Y522186D01*
X190097Y522069D01*
X190111Y521952D01*
X190120Y521834D01*
X190126Y521716D01*
X190128Y521598D01*
X190126Y521415D01*
X190119Y521233D01*
X190108Y521051D01*
X190093Y520869D01*
X190073Y520687D01*
X190050Y520506D01*
X190021Y520326D01*
X189989Y520146D01*
X189952Y519967D01*
X189911Y519790D01*
X189865Y519613D01*
X189816Y519437D01*
X189762Y519263D01*
X189704Y519089D01*
X189642Y518918D01*
X189576Y518748D01*
X189505Y518579D01*
X189431Y518412D01*
X189353Y518247D01*
X189271Y518084D01*
X189185Y517923D01*
X189095Y517764D01*
X189001Y517607D01*
X188904Y517453D01*
X188803Y517301D01*
X188698Y517151D01*
X188590Y517004D01*
X188479Y516860D01*
X188364Y516718D01*
X188245Y516579D01*
X188123Y516443D01*
X187998Y516310D01*
X187870Y516180D01*
X177484Y516631D02*
X177366Y516633D01*
X177248Y516639D01*
X177130Y516648D01*
X177013Y516662D01*
X176896Y516679D01*
X176779Y516700D01*
X176664Y516725D01*
X176549Y516754D01*
X176435Y516787D01*
X176323Y516823D01*
X176212Y516863D01*
X176102Y516906D01*
X175993Y516953D01*
X175886Y517003D01*
X175781Y517058D01*
X175678Y517115D01*
X175577Y517176D01*
X175477Y517240D01*
X175380Y517307D01*
X175285Y517377D01*
X175193Y517451D01*
X175102Y517527D01*
X175015Y517607D01*
X174930Y517689D01*
X174848Y517774D01*
X174768Y517861D01*
X174692Y517952D01*
X174618Y518044D01*
X174548Y518139D01*
X174481Y518236D01*
X174417Y518336D01*
X174356Y518437D01*
X174299Y518540D01*
X174244Y518645D01*
X174194Y518752D01*
X174147Y518861D01*
X174104Y518971D01*
X174064Y519082D01*
X174028Y519194D01*
X173995Y519308D01*
X173966Y519423D01*
X173941Y519538D01*
X173920Y519655D01*
X173903Y519772D01*
X173889Y519889D01*
X173880Y520007D01*
X173874Y520125D01*
X173872Y520243D01*
X173874Y520404D01*
X173880Y520566D01*
X173889Y520727D01*
X173903Y520888D01*
X173920Y521048D01*
X173941Y521208D01*
X173966Y521368D01*
X173995Y521527D01*
X174027Y521685D01*
X174063Y521842D01*
X174103Y521998D01*
X174147Y522154D01*
X174195Y522308D01*
X174246Y522461D01*
X174300Y522613D01*
X174359Y522764D01*
X174420Y522913D01*
X174486Y523060D01*
X174555Y523206D01*
X174627Y523351D01*
X174703Y523493D01*
X174782Y523634D01*
X174864Y523773D01*
X174950Y523909D01*
X175039Y524044D01*
X175131Y524177D01*
X175227Y524307D01*
X180645Y518436D02*
X180583Y518335D01*
X180518Y518235D01*
X180449Y518138D01*
X180377Y518043D01*
X180303Y517950D01*
X180225Y517860D01*
X180144Y517772D01*
X180061Y517687D01*
X179975Y517605D01*
X179886Y517526D01*
X179795Y517449D01*
X179701Y517376D01*
X179605Y517305D01*
X179507Y517238D01*
X179407Y517174D01*
X179304Y517113D01*
X179200Y517056D01*
X179094Y517002D01*
X178986Y516952D01*
X178877Y516905D01*
X178766Y516861D01*
X178654Y516821D01*
X178540Y516785D01*
X178426Y516753D01*
X178310Y516724D01*
X178194Y516699D01*
X178077Y516678D01*
X177959Y516661D01*
X177841Y516647D01*
X177722Y516638D01*
X177603Y516632D01*
X177484Y516630D01*
X183355Y523404D02*
X183417Y523505D01*
X183482Y523605D01*
X183551Y523702D01*
X183623Y523797D01*
X183697Y523890D01*
X183775Y523980D01*
X183856Y524068D01*
X183939Y524153D01*
X184025Y524235D01*
X184114Y524314D01*
X184205Y524391D01*
X184299Y524464D01*
X184395Y524535D01*
X184493Y524602D01*
X184593Y524666D01*
X184696Y524727D01*
X184800Y524784D01*
X184906Y524838D01*
X185014Y524888D01*
X185123Y524935D01*
X185234Y524979D01*
X185346Y525019D01*
X185460Y525055D01*
X185574Y525087D01*
X185690Y525116D01*
X185806Y525141D01*
X185923Y525162D01*
X186041Y525179D01*
X186159Y525193D01*
X186278Y525202D01*
X186397Y525208D01*
X186516Y525210D01*
X183355Y523404D02*
X180645Y518437D01*
X181097Y532021D02*
X181097Y536537D01*
X181096Y536537D02*
X181098Y536670D01*
X181104Y536802D01*
X181114Y536934D01*
X181127Y537066D01*
X181145Y537198D01*
X181166Y537328D01*
X181191Y537459D01*
X181220Y537588D01*
X181253Y537716D01*
X181289Y537844D01*
X181329Y537970D01*
X181373Y538095D01*
X181421Y538219D01*
X181472Y538341D01*
X181527Y538462D01*
X181585Y538581D01*
X181647Y538699D01*
X181712Y538814D01*
X181781Y538928D01*
X181852Y539039D01*
X181928Y539148D01*
X182006Y539255D01*
X182087Y539360D01*
X182172Y539462D01*
X182259Y539562D01*
X182349Y539659D01*
X182442Y539754D01*
X182538Y539845D01*
X182636Y539934D01*
X182737Y540020D01*
X182841Y540103D01*
X182947Y540183D01*
X183055Y540259D01*
X183165Y540333D01*
X183278Y540403D01*
X183392Y540470D01*
X183509Y540533D01*
X183627Y540593D01*
X183747Y540650D01*
X183869Y540703D01*
X183992Y540752D01*
X184116Y540798D01*
X184242Y540840D01*
X184369Y540878D01*
X184497Y540913D01*
X184626Y540944D01*
X184755Y540971D01*
X184886Y540994D01*
X185017Y541014D01*
X185149Y541029D01*
X185281Y541041D01*
X185413Y541049D01*
X185546Y541053D01*
X185678Y541053D01*
X185811Y541049D01*
X185943Y541041D01*
X186075Y541029D01*
X186207Y541014D01*
X186338Y540994D01*
X186469Y540971D01*
X186598Y540944D01*
X186727Y540913D01*
X186855Y540878D01*
X186982Y540840D01*
X187108Y540798D01*
X187232Y540752D01*
X187355Y540703D01*
X187477Y540650D01*
X187597Y540593D01*
X187715Y540533D01*
X187832Y540470D01*
X187946Y540403D01*
X188059Y540333D01*
X188169Y540259D01*
X188277Y540183D01*
X188383Y540103D01*
X188487Y540020D01*
X188588Y539934D01*
X188686Y539845D01*
X188782Y539754D01*
X188875Y539659D01*
X188965Y539562D01*
X189052Y539462D01*
X189137Y539360D01*
X189218Y539255D01*
X189296Y539148D01*
X189372Y539039D01*
X189443Y538928D01*
X189512Y538814D01*
X189577Y538699D01*
X189639Y538581D01*
X189697Y538462D01*
X189752Y538341D01*
X189803Y538219D01*
X189851Y538095D01*
X189895Y537970D01*
X189935Y537844D01*
X189971Y537716D01*
X190004Y537588D01*
X190033Y537459D01*
X190058Y537328D01*
X190079Y537198D01*
X190097Y537066D01*
X190110Y536934D01*
X190120Y536802D01*
X190126Y536670D01*
X190128Y536537D01*
X190128Y532021D01*
X173872Y532021D01*
X173872Y536537D01*
X173874Y536656D01*
X173880Y536776D01*
X173890Y536895D01*
X173904Y537013D01*
X173921Y537132D01*
X173943Y537249D01*
X173968Y537366D01*
X173998Y537481D01*
X174031Y537596D01*
X174068Y537710D01*
X174108Y537822D01*
X174153Y537933D01*
X174201Y538042D01*
X174252Y538150D01*
X174307Y538256D01*
X174366Y538360D01*
X174428Y538462D01*
X174493Y538562D01*
X174562Y538660D01*
X174634Y538756D01*
X174709Y538849D01*
X174786Y538939D01*
X174867Y539027D01*
X174951Y539112D01*
X175038Y539194D01*
X175127Y539274D01*
X175219Y539350D01*
X175313Y539424D01*
X175410Y539494D01*
X175508Y539561D01*
X175609Y539625D01*
X175713Y539685D01*
X175818Y539742D01*
X175925Y539795D01*
X176033Y539845D01*
X176143Y539891D01*
X176255Y539933D01*
X176368Y539972D01*
X176482Y540007D01*
X176597Y540038D01*
X176714Y540066D01*
X176831Y540089D01*
X176948Y540109D01*
X177067Y540125D01*
X177186Y540137D01*
X177305Y540145D01*
X177424Y540149D01*
X177544Y540149D01*
X177663Y540145D01*
X177782Y540137D01*
X177901Y540125D01*
X178020Y540109D01*
X178137Y540089D01*
X178254Y540066D01*
X178371Y540038D01*
X178486Y540007D01*
X178600Y539972D01*
X178713Y539933D01*
X178825Y539891D01*
X178935Y539845D01*
X179043Y539795D01*
X179150Y539742D01*
X179255Y539685D01*
X179359Y539625D01*
X179460Y539561D01*
X179558Y539494D01*
X179655Y539424D01*
X179749Y539350D01*
X179841Y539274D01*
X179930Y539194D01*
X180017Y539112D01*
X180101Y539027D01*
X180182Y538939D01*
X180259Y538849D01*
X180334Y538756D01*
X180406Y538660D01*
X180475Y538562D01*
X180540Y538462D01*
X180602Y538360D01*
X180661Y538256D01*
X180716Y538150D01*
X180767Y538042D01*
X180815Y537933D01*
X180860Y537822D01*
X180900Y537710D01*
X180937Y537596D01*
X180970Y537481D01*
X181000Y537366D01*
X181025Y537249D01*
X181047Y537132D01*
X181064Y537013D01*
X181078Y536895D01*
X181088Y536776D01*
X181094Y536656D01*
X181096Y536537D01*
D11*
X213750Y558900D02*
X213750Y571600D01*
X150250Y571600D01*
X150250Y558900D01*
X156600Y330300D02*
X156600Y304900D01*
X194700Y304900D01*
X194700Y330300D01*
X156600Y330300D01*
X168030Y317600D02*
X168032Y317787D01*
X168039Y317974D01*
X168051Y318161D01*
X168067Y318347D01*
X168087Y318533D01*
X168112Y318718D01*
X168142Y318903D01*
X168176Y319087D01*
X168215Y319270D01*
X168258Y319452D01*
X168306Y319632D01*
X168358Y319812D01*
X168415Y319990D01*
X168475Y320167D01*
X168541Y320342D01*
X168610Y320516D01*
X168684Y320688D01*
X168762Y320858D01*
X168844Y321026D01*
X168930Y321192D01*
X169020Y321356D01*
X169114Y321517D01*
X169212Y321677D01*
X169314Y321833D01*
X169420Y321988D01*
X169530Y322139D01*
X169643Y322288D01*
X169760Y322434D01*
X169880Y322577D01*
X170004Y322717D01*
X170131Y322854D01*
X170262Y322988D01*
X170396Y323119D01*
X170533Y323246D01*
X170673Y323370D01*
X170816Y323490D01*
X170962Y323607D01*
X171111Y323720D01*
X171262Y323830D01*
X171417Y323936D01*
X171573Y324038D01*
X171733Y324136D01*
X171894Y324230D01*
X172058Y324320D01*
X172224Y324406D01*
X172392Y324488D01*
X172562Y324566D01*
X172734Y324640D01*
X172908Y324709D01*
X173083Y324775D01*
X173260Y324835D01*
X173438Y324892D01*
X173618Y324944D01*
X173798Y324992D01*
X173980Y325035D01*
X174163Y325074D01*
X174347Y325108D01*
X174532Y325138D01*
X174717Y325163D01*
X174903Y325183D01*
X175089Y325199D01*
X175276Y325211D01*
X175463Y325218D01*
X175650Y325220D01*
X175837Y325218D01*
X176024Y325211D01*
X176211Y325199D01*
X176397Y325183D01*
X176583Y325163D01*
X176768Y325138D01*
X176953Y325108D01*
X177137Y325074D01*
X177320Y325035D01*
X177502Y324992D01*
X177682Y324944D01*
X177862Y324892D01*
X178040Y324835D01*
X178217Y324775D01*
X178392Y324709D01*
X178566Y324640D01*
X178738Y324566D01*
X178908Y324488D01*
X179076Y324406D01*
X179242Y324320D01*
X179406Y324230D01*
X179567Y324136D01*
X179727Y324038D01*
X179883Y323936D01*
X180038Y323830D01*
X180189Y323720D01*
X180338Y323607D01*
X180484Y323490D01*
X180627Y323370D01*
X180767Y323246D01*
X180904Y323119D01*
X181038Y322988D01*
X181169Y322854D01*
X181296Y322717D01*
X181420Y322577D01*
X181540Y322434D01*
X181657Y322288D01*
X181770Y322139D01*
X181880Y321988D01*
X181986Y321833D01*
X182088Y321677D01*
X182186Y321517D01*
X182280Y321356D01*
X182370Y321192D01*
X182456Y321026D01*
X182538Y320858D01*
X182616Y320688D01*
X182690Y320516D01*
X182759Y320342D01*
X182825Y320167D01*
X182885Y319990D01*
X182942Y319812D01*
X182994Y319632D01*
X183042Y319452D01*
X183085Y319270D01*
X183124Y319087D01*
X183158Y318903D01*
X183188Y318718D01*
X183213Y318533D01*
X183233Y318347D01*
X183249Y318161D01*
X183261Y317974D01*
X183268Y317787D01*
X183270Y317600D01*
X183268Y317413D01*
X183261Y317226D01*
X183249Y317039D01*
X183233Y316853D01*
X183213Y316667D01*
X183188Y316482D01*
X183158Y316297D01*
X183124Y316113D01*
X183085Y315930D01*
X183042Y315748D01*
X182994Y315568D01*
X182942Y315388D01*
X182885Y315210D01*
X182825Y315033D01*
X182759Y314858D01*
X182690Y314684D01*
X182616Y314512D01*
X182538Y314342D01*
X182456Y314174D01*
X182370Y314008D01*
X182280Y313844D01*
X182186Y313683D01*
X182088Y313523D01*
X181986Y313367D01*
X181880Y313212D01*
X181770Y313061D01*
X181657Y312912D01*
X181540Y312766D01*
X181420Y312623D01*
X181296Y312483D01*
X181169Y312346D01*
X181038Y312212D01*
X180904Y312081D01*
X180767Y311954D01*
X180627Y311830D01*
X180484Y311710D01*
X180338Y311593D01*
X180189Y311480D01*
X180038Y311370D01*
X179883Y311264D01*
X179727Y311162D01*
X179567Y311064D01*
X179406Y310970D01*
X179242Y310880D01*
X179076Y310794D01*
X178908Y310712D01*
X178738Y310634D01*
X178566Y310560D01*
X178392Y310491D01*
X178217Y310425D01*
X178040Y310365D01*
X177862Y310308D01*
X177682Y310256D01*
X177502Y310208D01*
X177320Y310165D01*
X177137Y310126D01*
X176953Y310092D01*
X176768Y310062D01*
X176583Y310037D01*
X176397Y310017D01*
X176211Y310001D01*
X176024Y309989D01*
X175837Y309982D01*
X175650Y309980D01*
X175463Y309982D01*
X175276Y309989D01*
X175089Y310001D01*
X174903Y310017D01*
X174717Y310037D01*
X174532Y310062D01*
X174347Y310092D01*
X174163Y310126D01*
X173980Y310165D01*
X173798Y310208D01*
X173618Y310256D01*
X173438Y310308D01*
X173260Y310365D01*
X173083Y310425D01*
X172908Y310491D01*
X172734Y310560D01*
X172562Y310634D01*
X172392Y310712D01*
X172224Y310794D01*
X172058Y310880D01*
X171894Y310970D01*
X171733Y311064D01*
X171573Y311162D01*
X171417Y311264D01*
X171262Y311370D01*
X171111Y311480D01*
X170962Y311593D01*
X170816Y311710D01*
X170673Y311830D01*
X170533Y311954D01*
X170396Y312081D01*
X170262Y312212D01*
X170131Y312346D01*
X170004Y312483D01*
X169880Y312623D01*
X169760Y312766D01*
X169643Y312912D01*
X169530Y313061D01*
X169420Y313212D01*
X169314Y313367D01*
X169212Y313523D01*
X169114Y313683D01*
X169020Y313844D01*
X168930Y314008D01*
X168844Y314174D01*
X168762Y314342D01*
X168684Y314512D01*
X168610Y314684D01*
X168541Y314858D01*
X168475Y315033D01*
X168415Y315210D01*
X168358Y315388D01*
X168306Y315568D01*
X168258Y315748D01*
X168215Y315930D01*
X168176Y316113D01*
X168142Y316297D01*
X168112Y316482D01*
X168087Y316667D01*
X168067Y316853D01*
X168051Y317039D01*
X168039Y317226D01*
X168032Y317413D01*
X168030Y317600D01*
D13*
X156609Y296899D02*
X156609Y287501D01*
X156609Y296899D02*
X159219Y296899D01*
X159320Y296897D01*
X159421Y296891D01*
X159522Y296881D01*
X159622Y296868D01*
X159722Y296850D01*
X159821Y296829D01*
X159919Y296803D01*
X160016Y296774D01*
X160112Y296742D01*
X160206Y296705D01*
X160299Y296665D01*
X160391Y296621D01*
X160480Y296574D01*
X160568Y296523D01*
X160654Y296469D01*
X160737Y296412D01*
X160819Y296352D01*
X160897Y296288D01*
X160974Y296222D01*
X161047Y296152D01*
X161118Y296080D01*
X161186Y296005D01*
X161251Y295927D01*
X161313Y295847D01*
X161372Y295765D01*
X161428Y295680D01*
X161480Y295593D01*
X161529Y295505D01*
X161575Y295414D01*
X161616Y295322D01*
X161655Y295228D01*
X161689Y295133D01*
X161720Y295037D01*
X161747Y294939D01*
X161771Y294841D01*
X161790Y294741D01*
X161806Y294641D01*
X161818Y294541D01*
X161826Y294440D01*
X161830Y294339D01*
X161830Y294237D01*
X161826Y294136D01*
X161818Y294035D01*
X161806Y293935D01*
X161790Y293835D01*
X161771Y293735D01*
X161747Y293637D01*
X161720Y293539D01*
X161689Y293443D01*
X161655Y293348D01*
X161616Y293254D01*
X161575Y293162D01*
X161529Y293071D01*
X161480Y292983D01*
X161428Y292896D01*
X161372Y292811D01*
X161313Y292729D01*
X161251Y292649D01*
X161186Y292571D01*
X161118Y292496D01*
X161047Y292424D01*
X160974Y292354D01*
X160897Y292288D01*
X160819Y292224D01*
X160737Y292164D01*
X160654Y292107D01*
X160568Y292053D01*
X160480Y292002D01*
X160391Y291955D01*
X160299Y291911D01*
X160206Y291871D01*
X160112Y291834D01*
X160016Y291802D01*
X159919Y291773D01*
X159821Y291747D01*
X159722Y291726D01*
X159622Y291708D01*
X159522Y291695D01*
X159421Y291685D01*
X159320Y291679D01*
X159219Y291677D01*
X159219Y291678D02*
X156609Y291678D01*
X159742Y291678D02*
X161830Y287501D01*
X166018Y287501D02*
X170195Y287501D01*
X166018Y287501D02*
X166018Y296899D01*
X170195Y296899D01*
X169151Y292722D02*
X166018Y292722D01*
X176448Y287501D02*
X176537Y287503D01*
X176625Y287509D01*
X176713Y287518D01*
X176801Y287531D01*
X176888Y287548D01*
X176974Y287568D01*
X177059Y287593D01*
X177144Y287620D01*
X177227Y287652D01*
X177308Y287686D01*
X177388Y287725D01*
X177466Y287766D01*
X177543Y287811D01*
X177617Y287859D01*
X177690Y287910D01*
X177760Y287964D01*
X177827Y288022D01*
X177893Y288082D01*
X177955Y288144D01*
X178015Y288210D01*
X178073Y288277D01*
X178127Y288347D01*
X178178Y288420D01*
X178226Y288494D01*
X178271Y288571D01*
X178312Y288649D01*
X178351Y288729D01*
X178385Y288810D01*
X178417Y288893D01*
X178444Y288978D01*
X178469Y289063D01*
X178489Y289149D01*
X178506Y289236D01*
X178519Y289324D01*
X178528Y289412D01*
X178534Y289500D01*
X178536Y289589D01*
X176448Y287501D02*
X176319Y287503D01*
X176190Y287509D01*
X176061Y287518D01*
X175933Y287531D01*
X175805Y287548D01*
X175678Y287569D01*
X175551Y287593D01*
X175425Y287621D01*
X175300Y287653D01*
X175176Y287688D01*
X175053Y287727D01*
X174931Y287770D01*
X174811Y287816D01*
X174692Y287866D01*
X174574Y287919D01*
X174458Y287975D01*
X174344Y288035D01*
X174231Y288098D01*
X174121Y288165D01*
X174012Y288234D01*
X173906Y288307D01*
X173801Y288383D01*
X173699Y288462D01*
X173600Y288544D01*
X173502Y288628D01*
X173407Y288716D01*
X173315Y288806D01*
X173577Y294811D02*
X173579Y294900D01*
X173585Y294988D01*
X173594Y295076D01*
X173607Y295164D01*
X173624Y295251D01*
X173644Y295337D01*
X173669Y295422D01*
X173696Y295507D01*
X173728Y295590D01*
X173762Y295671D01*
X173801Y295751D01*
X173842Y295829D01*
X173887Y295906D01*
X173935Y295980D01*
X173986Y296053D01*
X174040Y296123D01*
X174098Y296190D01*
X174158Y296256D01*
X174220Y296318D01*
X174286Y296378D01*
X174353Y296436D01*
X174423Y296490D01*
X174496Y296541D01*
X174570Y296589D01*
X174647Y296634D01*
X174725Y296675D01*
X174805Y296714D01*
X174886Y296748D01*
X174969Y296780D01*
X175054Y296807D01*
X175139Y296832D01*
X175225Y296852D01*
X175312Y296869D01*
X175400Y296882D01*
X175488Y296891D01*
X175576Y296897D01*
X175665Y296899D01*
X175785Y296897D01*
X175905Y296892D01*
X176025Y296882D01*
X176144Y296870D01*
X176263Y296853D01*
X176381Y296833D01*
X176499Y296809D01*
X176615Y296782D01*
X176731Y296751D01*
X176846Y296717D01*
X176960Y296679D01*
X177073Y296637D01*
X177184Y296592D01*
X177294Y296544D01*
X177402Y296493D01*
X177509Y296438D01*
X177614Y296380D01*
X177717Y296318D01*
X177818Y296254D01*
X177918Y296186D01*
X178015Y296116D01*
X174621Y292984D02*
X174543Y293032D01*
X174467Y293084D01*
X174394Y293138D01*
X174323Y293196D01*
X174254Y293257D01*
X174188Y293321D01*
X174125Y293388D01*
X174065Y293457D01*
X174008Y293529D01*
X173954Y293603D01*
X173904Y293680D01*
X173856Y293759D01*
X173813Y293839D01*
X173772Y293922D01*
X173736Y294006D01*
X173703Y294091D01*
X173674Y294178D01*
X173648Y294267D01*
X173626Y294356D01*
X173609Y294446D01*
X173595Y294536D01*
X173585Y294628D01*
X173579Y294719D01*
X173577Y294811D01*
X177493Y291416D02*
X177571Y291368D01*
X177647Y291316D01*
X177720Y291262D01*
X177791Y291204D01*
X177860Y291143D01*
X177926Y291079D01*
X177989Y291012D01*
X178049Y290943D01*
X178106Y290871D01*
X178160Y290797D01*
X178210Y290720D01*
X178258Y290641D01*
X178301Y290561D01*
X178342Y290478D01*
X178378Y290394D01*
X178411Y290309D01*
X178440Y290222D01*
X178466Y290133D01*
X178488Y290044D01*
X178505Y289954D01*
X178519Y289864D01*
X178529Y289772D01*
X178535Y289681D01*
X178537Y289589D01*
X177493Y291417D02*
X174621Y292983D01*
X182477Y287501D02*
X186654Y287501D01*
X182477Y287501D02*
X182477Y296899D01*
X186654Y296899D01*
X185610Y292722D02*
X182477Y292722D01*
X192081Y296899D02*
X192081Y287501D01*
X189470Y296899D02*
X194691Y296899D01*
D14*
X167353Y463508D02*
X167353Y475192D01*
X170599Y475192D01*
X170712Y475190D01*
X170825Y475184D01*
X170938Y475174D01*
X171051Y475160D01*
X171163Y475143D01*
X171274Y475121D01*
X171384Y475096D01*
X171494Y475066D01*
X171602Y475033D01*
X171709Y474996D01*
X171815Y474956D01*
X171919Y474911D01*
X172022Y474863D01*
X172123Y474812D01*
X172222Y474757D01*
X172319Y474699D01*
X172414Y474637D01*
X172507Y474572D01*
X172597Y474504D01*
X172685Y474433D01*
X172771Y474358D01*
X172854Y474281D01*
X172934Y474201D01*
X173011Y474118D01*
X173086Y474032D01*
X173157Y473944D01*
X173225Y473854D01*
X173290Y473761D01*
X173352Y473666D01*
X173410Y473569D01*
X173465Y473470D01*
X173516Y473369D01*
X173564Y473266D01*
X173609Y473162D01*
X173649Y473056D01*
X173686Y472949D01*
X173719Y472841D01*
X173749Y472731D01*
X173774Y472621D01*
X173796Y472510D01*
X173813Y472398D01*
X173827Y472285D01*
X173837Y472172D01*
X173843Y472059D01*
X173845Y471946D01*
X173844Y471946D02*
X173844Y466754D01*
X173845Y466754D02*
X173843Y466641D01*
X173837Y466528D01*
X173827Y466415D01*
X173813Y466302D01*
X173796Y466190D01*
X173774Y466079D01*
X173749Y465969D01*
X173719Y465859D01*
X173686Y465751D01*
X173649Y465644D01*
X173609Y465538D01*
X173564Y465434D01*
X173516Y465331D01*
X173465Y465230D01*
X173410Y465131D01*
X173352Y465034D01*
X173290Y464939D01*
X173225Y464846D01*
X173157Y464756D01*
X173086Y464668D01*
X173011Y464582D01*
X172934Y464499D01*
X172854Y464419D01*
X172771Y464342D01*
X172685Y464267D01*
X172597Y464196D01*
X172507Y464128D01*
X172414Y464063D01*
X172319Y464001D01*
X172222Y463943D01*
X172123Y463888D01*
X172022Y463837D01*
X171919Y463789D01*
X171815Y463744D01*
X171709Y463704D01*
X171602Y463667D01*
X171494Y463634D01*
X171384Y463604D01*
X171274Y463579D01*
X171163Y463557D01*
X171051Y463540D01*
X170938Y463526D01*
X170825Y463516D01*
X170712Y463510D01*
X170599Y463508D01*
X167353Y463508D01*
X179545Y463508D02*
X179545Y475192D01*
X182791Y475192D01*
X182904Y475190D01*
X183017Y475184D01*
X183130Y475174D01*
X183243Y475160D01*
X183355Y475143D01*
X183466Y475121D01*
X183576Y475096D01*
X183686Y475066D01*
X183794Y475033D01*
X183901Y474996D01*
X184007Y474956D01*
X184111Y474911D01*
X184214Y474863D01*
X184315Y474812D01*
X184414Y474757D01*
X184511Y474699D01*
X184606Y474637D01*
X184699Y474572D01*
X184789Y474504D01*
X184877Y474433D01*
X184963Y474358D01*
X185046Y474281D01*
X185126Y474201D01*
X185203Y474118D01*
X185278Y474032D01*
X185349Y473944D01*
X185417Y473854D01*
X185482Y473761D01*
X185544Y473666D01*
X185602Y473569D01*
X185657Y473470D01*
X185708Y473369D01*
X185756Y473266D01*
X185801Y473162D01*
X185841Y473056D01*
X185878Y472949D01*
X185911Y472841D01*
X185941Y472731D01*
X185966Y472621D01*
X185988Y472510D01*
X186005Y472398D01*
X186019Y472285D01*
X186029Y472172D01*
X186035Y472059D01*
X186037Y471946D01*
X186036Y471946D02*
X186036Y466754D01*
X186037Y466754D02*
X186035Y466641D01*
X186029Y466528D01*
X186019Y466415D01*
X186005Y466302D01*
X185988Y466190D01*
X185966Y466079D01*
X185941Y465969D01*
X185911Y465859D01*
X185878Y465751D01*
X185841Y465644D01*
X185801Y465538D01*
X185756Y465434D01*
X185708Y465331D01*
X185657Y465230D01*
X185602Y465131D01*
X185544Y465034D01*
X185482Y464939D01*
X185417Y464846D01*
X185349Y464756D01*
X185278Y464668D01*
X185203Y464582D01*
X185126Y464499D01*
X185046Y464419D01*
X184963Y464342D01*
X184877Y464267D01*
X184789Y464196D01*
X184699Y464128D01*
X184606Y464063D01*
X184511Y464001D01*
X184414Y463943D01*
X184315Y463888D01*
X184214Y463837D01*
X184111Y463789D01*
X184007Y463744D01*
X183901Y463704D01*
X183794Y463667D01*
X183686Y463634D01*
X183576Y463604D01*
X183466Y463579D01*
X183355Y463557D01*
X183243Y463540D01*
X183130Y463526D01*
X183017Y463516D01*
X182904Y463510D01*
X182791Y463508D01*
X179545Y463508D01*
X191356Y472596D02*
X194601Y475192D01*
X194601Y463508D01*
X191356Y463508D02*
X197847Y463508D01*
M02*
