M48
;GenerationSoftware,Autodesk,EAGLE,9.5.2*%
;CreationDate,2020-07-10T12:09:35Z*%
FMAT,2
ICI,OFF
METRIC,TZ,000.000
T6C1.000
T5C1.016
T4C1.300
T3C1.400
T2C1.500
T1C3.000
%
G90
M71
T1
X3000Y53000
X53000Y53000
X53000Y3000
X3000Y3000
T2
X35900Y53730
X42200Y42030
T3
X33980Y2160
X43980Y2160
T4
X21440Y4520
X14440Y4520
T5
X49700Y50900
X7700Y46900
X28700Y46900
X49700Y46900
X7700Y25900
X28700Y25900
X49700Y25900
X28700Y50900
X7700Y50900
X49700Y4900
X28700Y4900
X7700Y4900
T6
X34980Y12160
X37500Y47880
X40500Y47880
X37500Y51080
X37500Y44680
X40500Y44680
X40500Y51080
X20190Y2020
X15690Y2020
X38980Y12160
X42980Y12160
X25820Y16520
X25820Y19060
X25820Y21600
X25820Y24140
X25820Y26680
X25820Y29220
X25820Y31760
X25820Y34300
X25820Y36840
X25820Y39380
X25820Y41920
X25820Y44460
X10580Y16520
X10580Y19060
X10580Y21600
X10580Y24140
X10580Y26680
X10580Y29220
X10580Y34300
X10580Y36840
X10580Y41920
X10580Y44460
X10580Y39380
X10580Y31760
X25820Y47000
X25820Y49540
X25820Y52080
X10580Y47000
X10580Y49540
X10580Y52080
M30